%TF.GenerationSoftware,KiCad,Pcbnew,(6.0.7)*%
%TF.CreationDate,2025-03-15T16:29:39+08:00*%
%TF.ProjectId,solar_tracer,736f6c61-725f-4747-9261-6365722e6b69,1*%
%TF.SameCoordinates,PX6979f40PY7be1de0*%
%TF.FileFunction,Legend,Top*%
%TF.FilePolarity,Positive*%
%FSLAX46Y46*%
G04 Gerber Fmt 4.6, Leading zero omitted, Abs format (unit mm)*
G04 Created by KiCad (PCBNEW (6.0.7)) date 2025-03-15 16:29:39*
%MOMM*%
%LPD*%
G01*
G04 APERTURE LIST*
G04 Aperture macros list*
%AMRoundRect*
0 Rectangle with rounded corners*
0 $1 Rounding radius*
0 $2 $3 $4 $5 $6 $7 $8 $9 X,Y pos of 4 corners*
0 Add a 4 corners polygon primitive as box body*
4,1,4,$2,$3,$4,$5,$6,$7,$8,$9,$2,$3,0*
0 Add four circle primitives for the rounded corners*
1,1,$1+$1,$2,$3*
1,1,$1+$1,$4,$5*
1,1,$1+$1,$6,$7*
1,1,$1+$1,$8,$9*
0 Add four rect primitives between the rounded corners*
20,1,$1+$1,$2,$3,$4,$5,0*
20,1,$1+$1,$4,$5,$6,$7,0*
20,1,$1+$1,$6,$7,$8,$9,0*
20,1,$1+$1,$8,$9,$2,$3,0*%
G04 Aperture macros list end*
%ADD10C,0.300000*%
%ADD11C,0.150000*%
%ADD12C,0.120000*%
%ADD13C,0.250000*%
%ADD14C,0.800000*%
%ADD15C,6.400000*%
%ADD16RoundRect,0.225000X0.225000X0.250000X-0.225000X0.250000X-0.225000X-0.250000X0.225000X-0.250000X0*%
%ADD17RoundRect,0.250000X0.325000X0.650000X-0.325000X0.650000X-0.325000X-0.650000X0.325000X-0.650000X0*%
%ADD18RoundRect,0.225000X-0.225000X-0.250000X0.225000X-0.250000X0.225000X0.250000X-0.225000X0.250000X0*%
%ADD19R,2.290000X3.000000*%
%ADD20RoundRect,0.150000X0.825000X0.150000X-0.825000X0.150000X-0.825000X-0.150000X0.825000X-0.150000X0*%
%ADD21R,0.250000X0.450000*%
%ADD22R,0.450000X0.250000*%
%ADD23R,0.270000X0.600000*%
%ADD24R,0.600000X0.270000*%
%ADD25RoundRect,0.150000X0.150000X-0.512500X0.150000X0.512500X-0.150000X0.512500X-0.150000X-0.512500X0*%
%ADD26R,0.900000X1.500000*%
%ADD27R,1.500000X0.900000*%
%ADD28R,0.900000X0.900000*%
%ADD29RoundRect,0.135000X0.185000X-0.135000X0.185000X0.135000X-0.185000X0.135000X-0.185000X-0.135000X0*%
%ADD30RoundRect,0.135000X-0.185000X0.135000X-0.185000X-0.135000X0.185000X-0.135000X0.185000X0.135000X0*%
%ADD31RoundRect,0.135000X-0.135000X-0.185000X0.135000X-0.185000X0.135000X0.185000X-0.135000X0.185000X0*%
%ADD32R,1.200000X3.700000*%
%ADD33O,2.100000X2.100000*%
%ADD34R,2.100000X2.100000*%
%ADD35O,1.700000X1.700000*%
%ADD36R,1.700000X1.700000*%
%ADD37RoundRect,0.218750X0.218750X0.256250X-0.218750X0.256250X-0.218750X-0.256250X0.218750X-0.256250X0*%
%ADD38R,1.400000X1.300000*%
%ADD39R,0.900000X1.200000*%
%ADD40RoundRect,0.140000X0.170000X-0.140000X0.170000X0.140000X-0.170000X0.140000X-0.170000X-0.140000X0*%
%ADD41RoundRect,0.140000X0.140000X0.170000X-0.140000X0.170000X-0.140000X-0.170000X0.140000X-0.170000X0*%
%ADD42RoundRect,0.140000X-0.170000X0.140000X-0.170000X-0.140000X0.170000X-0.140000X0.170000X0.140000X0*%
%ADD43RoundRect,0.140000X-0.140000X-0.170000X0.140000X-0.170000X0.140000X0.170000X-0.140000X0.170000X0*%
%ADD44RoundRect,0.250000X-0.325000X-0.650000X0.325000X-0.650000X0.325000X0.650000X-0.325000X0.650000X0*%
%ADD45RoundRect,0.250000X0.650000X-0.325000X0.650000X0.325000X-0.650000X0.325000X-0.650000X-0.325000X0*%
G04 APERTURE END LIST*
D10*
X14443142Y21096143D02*
X15643142Y21096143D01*
X14786000Y20696143D01*
X15643142Y20296143D01*
X14443142Y20296143D01*
X15643142Y19496143D02*
X15643142Y19267572D01*
X15586000Y19153286D01*
X15471714Y19039000D01*
X15243142Y18981858D01*
X14843142Y18981858D01*
X14614571Y19039000D01*
X14500285Y19153286D01*
X14443142Y19267572D01*
X14443142Y19496143D01*
X14500285Y19610429D01*
X14614571Y19724715D01*
X14843142Y19781858D01*
X15243142Y19781858D01*
X15471714Y19724715D01*
X15586000Y19610429D01*
X15643142Y19496143D01*
X15643142Y18639000D02*
X15643142Y17953286D01*
X14443142Y18296143D02*
X15643142Y18296143D01*
X15643142Y17667572D02*
X14443142Y16867572D01*
X15643142Y16867572D02*
X14443142Y17667572D01*
X14062142Y48471000D02*
X15262142Y48471000D01*
X14405000Y48071000D01*
X15262142Y47671000D01*
X14062142Y47671000D01*
X15262142Y46871000D02*
X15262142Y46642429D01*
X15205000Y46528143D01*
X15090714Y46413858D01*
X14862142Y46356715D01*
X14462142Y46356715D01*
X14233571Y46413858D01*
X14119285Y46528143D01*
X14062142Y46642429D01*
X14062142Y46871000D01*
X14119285Y46985286D01*
X14233571Y47099572D01*
X14462142Y47156715D01*
X14862142Y47156715D01*
X15090714Y47099572D01*
X15205000Y46985286D01*
X15262142Y46871000D01*
X15262142Y46013858D02*
X15262142Y45328143D01*
X14062142Y45671000D02*
X15262142Y45671000D01*
X14633571Y44699572D02*
X14062142Y44699572D01*
X15262142Y45099572D02*
X14633571Y44699572D01*
X15262142Y44299572D01*
X18442857Y30034096D02*
X18371428Y29848381D01*
X18371428Y29538858D01*
X18442857Y29415048D01*
X18514285Y29353143D01*
X18657142Y29291239D01*
X18800000Y29291239D01*
X18942857Y29353143D01*
X19014285Y29415048D01*
X19085714Y29538858D01*
X19157142Y29786477D01*
X19228571Y29910286D01*
X19300000Y29972191D01*
X19442857Y30034096D01*
X19585714Y30034096D01*
X19728571Y29972191D01*
X19800000Y29910286D01*
X19871428Y29786477D01*
X19871428Y29476953D01*
X19800000Y29291239D01*
X18371428Y28548381D02*
X18442857Y28672191D01*
X18514285Y28734096D01*
X18657142Y28796000D01*
X19085714Y28796000D01*
X19228571Y28734096D01*
X19300000Y28672191D01*
X19371428Y28548381D01*
X19371428Y28362667D01*
X19300000Y28238858D01*
X19228571Y28176953D01*
X19085714Y28115048D01*
X18657142Y28115048D01*
X18514285Y28176953D01*
X18442857Y28238858D01*
X18371428Y28362667D01*
X18371428Y28548381D01*
X18371428Y27372191D02*
X18442857Y27496000D01*
X18585714Y27557905D01*
X19871428Y27557905D01*
X18371428Y26319810D02*
X19157142Y26319810D01*
X19300000Y26381715D01*
X19371428Y26505524D01*
X19371428Y26753143D01*
X19300000Y26876953D01*
X18442857Y26319810D02*
X18371428Y26443620D01*
X18371428Y26753143D01*
X18442857Y26876953D01*
X18585714Y26938858D01*
X18728571Y26938858D01*
X18871428Y26876953D01*
X18942857Y26753143D01*
X18942857Y26443620D01*
X19014285Y26319810D01*
X18371428Y25700762D02*
X19371428Y25700762D01*
X19085714Y25700762D02*
X19228571Y25638858D01*
X19300000Y25576953D01*
X19371428Y25453143D01*
X19371428Y25329334D01*
X19871428Y24091239D02*
X19871428Y23348381D01*
X18371428Y23719810D02*
X19871428Y23719810D01*
X18371428Y22915048D02*
X19371428Y22915048D01*
X19085714Y22915048D02*
X19228571Y22853143D01*
X19300000Y22791239D01*
X19371428Y22667429D01*
X19371428Y22543620D01*
X18371428Y21553143D02*
X19157142Y21553143D01*
X19300000Y21615048D01*
X19371428Y21738858D01*
X19371428Y21986477D01*
X19300000Y22110286D01*
X18442857Y21553143D02*
X18371428Y21676953D01*
X18371428Y21986477D01*
X18442857Y22110286D01*
X18585714Y22172191D01*
X18728571Y22172191D01*
X18871428Y22110286D01*
X18942857Y21986477D01*
X18942857Y21676953D01*
X19014285Y21553143D01*
X18442857Y20376953D02*
X18371428Y20500762D01*
X18371428Y20748381D01*
X18442857Y20872191D01*
X18514285Y20934096D01*
X18657142Y20996000D01*
X19085714Y20996000D01*
X19228571Y20934096D01*
X19300000Y20872191D01*
X19371428Y20748381D01*
X19371428Y20500762D01*
X19300000Y20376953D01*
X18442857Y19324572D02*
X18371428Y19448381D01*
X18371428Y19696000D01*
X18442857Y19819810D01*
X18585714Y19881715D01*
X19157142Y19881715D01*
X19300000Y19819810D01*
X19371428Y19696000D01*
X19371428Y19448381D01*
X19300000Y19324572D01*
X19157142Y19262667D01*
X19014285Y19262667D01*
X18871428Y19881715D01*
X18371428Y18705524D02*
X19371428Y18705524D01*
X19085714Y18705524D02*
X19228571Y18643620D01*
X19300000Y18581715D01*
X19371428Y18457905D01*
X19371428Y18334096D01*
X28724142Y5246572D02*
X27524142Y4846572D01*
X28724142Y4446572D01*
X27524142Y3418000D02*
X27524142Y4103715D01*
X27524142Y3760858D02*
X28724142Y3760858D01*
X28552714Y3875143D01*
X28438428Y3989429D01*
X28381285Y4103715D01*
X27638428Y2903715D02*
X27581285Y2846572D01*
X27524142Y2903715D01*
X27581285Y2960858D01*
X27638428Y2903715D01*
X27524142Y2903715D01*
X28724142Y2103715D02*
X28724142Y1989429D01*
X28667000Y1875143D01*
X28609857Y1818000D01*
X28495571Y1760858D01*
X28267000Y1703715D01*
X27981285Y1703715D01*
X27752714Y1760858D01*
X27638428Y1818000D01*
X27581285Y1875143D01*
X27524142Y1989429D01*
X27524142Y2103715D01*
X27581285Y2218000D01*
X27638428Y2275143D01*
X27752714Y2332286D01*
X27981285Y2389429D01*
X28267000Y2389429D01*
X28495571Y2332286D01*
X28609857Y2275143D01*
X28667000Y2218000D01*
X28724142Y2103715D01*
X9344285Y17854715D02*
X9744285Y17854715D01*
X9915714Y17226143D02*
X9344285Y17226143D01*
X9344285Y18426143D01*
X9915714Y18426143D01*
X10430000Y17226143D02*
X10430000Y18426143D01*
X11115714Y17226143D01*
X11115714Y18426143D01*
X12372857Y17340429D02*
X12315714Y17283286D01*
X12144285Y17226143D01*
X12030000Y17226143D01*
X11858571Y17283286D01*
X11744285Y17397572D01*
X11687142Y17511858D01*
X11630000Y17740429D01*
X11630000Y17911858D01*
X11687142Y18140429D01*
X11744285Y18254715D01*
X11858571Y18369000D01*
X12030000Y18426143D01*
X12144285Y18426143D01*
X12315714Y18369000D01*
X12372857Y18311858D01*
X13287142Y17854715D02*
X13458571Y17797572D01*
X13515714Y17740429D01*
X13572857Y17626143D01*
X13572857Y17454715D01*
X13515714Y17340429D01*
X13458571Y17283286D01*
X13344285Y17226143D01*
X12887142Y17226143D01*
X12887142Y18426143D01*
X13287142Y18426143D01*
X13401428Y18369000D01*
X13458571Y18311858D01*
X13515714Y18197572D01*
X13515714Y18083286D01*
X13458571Y17969000D01*
X13401428Y17911858D01*
X13287142Y17854715D01*
X12887142Y17854715D01*
X9303000Y20394715D02*
X9703000Y20394715D01*
X9874428Y19766143D02*
X9303000Y19766143D01*
X9303000Y20966143D01*
X9874428Y20966143D01*
X10388714Y19766143D02*
X10388714Y20966143D01*
X11074428Y19766143D01*
X11074428Y20966143D01*
X12331571Y19880429D02*
X12274428Y19823286D01*
X12103000Y19766143D01*
X11988714Y19766143D01*
X11817285Y19823286D01*
X11703000Y19937572D01*
X11645857Y20051858D01*
X11588714Y20280429D01*
X11588714Y20451858D01*
X11645857Y20680429D01*
X11703000Y20794715D01*
X11817285Y20909000D01*
X11988714Y20966143D01*
X12103000Y20966143D01*
X12274428Y20909000D01*
X12331571Y20851858D01*
X12788714Y20109000D02*
X13360142Y20109000D01*
X12674428Y19766143D02*
X13074428Y20966143D01*
X13474428Y19766143D01*
X10388714Y23322000D02*
X10274428Y23379143D01*
X10103000Y23379143D01*
X9931571Y23322000D01*
X9817285Y23207715D01*
X9760142Y23093429D01*
X9703000Y22864858D01*
X9703000Y22693429D01*
X9760142Y22464858D01*
X9817285Y22350572D01*
X9931571Y22236286D01*
X10103000Y22179143D01*
X10217285Y22179143D01*
X10388714Y22236286D01*
X10445857Y22293429D01*
X10445857Y22693429D01*
X10217285Y22693429D01*
X10960142Y22179143D02*
X10960142Y23379143D01*
X11645857Y22179143D01*
X11645857Y23379143D01*
X12217285Y22179143D02*
X12217285Y23379143D01*
X12503000Y23379143D01*
X12674428Y23322000D01*
X12788714Y23207715D01*
X12845857Y23093429D01*
X12903000Y22864858D01*
X12903000Y22693429D01*
X12845857Y22464858D01*
X12788714Y22350572D01*
X12674428Y22236286D01*
X12503000Y22179143D01*
X12217285Y22179143D01*
X9690285Y15886143D02*
X10433142Y15886143D01*
X10033142Y15429000D01*
X10204571Y15429000D01*
X10318857Y15371858D01*
X10376000Y15314715D01*
X10433142Y15200429D01*
X10433142Y14914715D01*
X10376000Y14800429D01*
X10318857Y14743286D01*
X10204571Y14686143D01*
X9861714Y14686143D01*
X9747428Y14743286D01*
X9690285Y14800429D01*
X10776000Y15886143D02*
X11176000Y14686143D01*
X11576000Y15886143D01*
X11861714Y15886143D02*
X12604571Y15886143D01*
X12204571Y15429000D01*
X12376000Y15429000D01*
X12490285Y15371858D01*
X12547428Y15314715D01*
X12604571Y15200429D01*
X12604571Y14914715D01*
X12547428Y14800429D01*
X12490285Y14743286D01*
X12376000Y14686143D01*
X12033142Y14686143D01*
X11918857Y14743286D01*
X11861714Y14800429D01*
X8541000Y49223715D02*
X8941000Y49223715D01*
X9112428Y48595143D02*
X8541000Y48595143D01*
X8541000Y49795143D01*
X9112428Y49795143D01*
X9626714Y48595143D02*
X9626714Y49795143D01*
X10312428Y48595143D01*
X10312428Y49795143D01*
X11569571Y48709429D02*
X11512428Y48652286D01*
X11341000Y48595143D01*
X11226714Y48595143D01*
X11055285Y48652286D01*
X10941000Y48766572D01*
X10883857Y48880858D01*
X10826714Y49109429D01*
X10826714Y49280858D01*
X10883857Y49509429D01*
X10941000Y49623715D01*
X11055285Y49738000D01*
X11226714Y49795143D01*
X11341000Y49795143D01*
X11512428Y49738000D01*
X11569571Y49680858D01*
X12026714Y48938000D02*
X12598142Y48938000D01*
X11912428Y48595143D02*
X12312428Y49795143D01*
X12712428Y48595143D01*
X8582285Y47445715D02*
X8982285Y47445715D01*
X9153714Y46817143D02*
X8582285Y46817143D01*
X8582285Y48017143D01*
X9153714Y48017143D01*
X9668000Y46817143D02*
X9668000Y48017143D01*
X10353714Y46817143D01*
X10353714Y48017143D01*
X11610857Y46931429D02*
X11553714Y46874286D01*
X11382285Y46817143D01*
X11268000Y46817143D01*
X11096571Y46874286D01*
X10982285Y46988572D01*
X10925142Y47102858D01*
X10868000Y47331429D01*
X10868000Y47502858D01*
X10925142Y47731429D01*
X10982285Y47845715D01*
X11096571Y47960000D01*
X11268000Y48017143D01*
X11382285Y48017143D01*
X11553714Y47960000D01*
X11610857Y47902858D01*
X12525142Y47445715D02*
X12696571Y47388572D01*
X12753714Y47331429D01*
X12810857Y47217143D01*
X12810857Y47045715D01*
X12753714Y46931429D01*
X12696571Y46874286D01*
X12582285Y46817143D01*
X12125142Y46817143D01*
X12125142Y48017143D01*
X12525142Y48017143D01*
X12639428Y47960000D01*
X12696571Y47902858D01*
X12753714Y47788572D01*
X12753714Y47674286D01*
X12696571Y47560000D01*
X12639428Y47502858D01*
X12525142Y47445715D01*
X12125142Y47445715D01*
X9626714Y51770000D02*
X9512428Y51827143D01*
X9341000Y51827143D01*
X9169571Y51770000D01*
X9055285Y51655715D01*
X8998142Y51541429D01*
X8941000Y51312858D01*
X8941000Y51141429D01*
X8998142Y50912858D01*
X9055285Y50798572D01*
X9169571Y50684286D01*
X9341000Y50627143D01*
X9455285Y50627143D01*
X9626714Y50684286D01*
X9683857Y50741429D01*
X9683857Y51141429D01*
X9455285Y51141429D01*
X10198142Y50627143D02*
X10198142Y51827143D01*
X10883857Y50627143D01*
X10883857Y51827143D01*
X11455285Y50627143D02*
X11455285Y51827143D01*
X11741000Y51827143D01*
X11912428Y51770000D01*
X12026714Y51655715D01*
X12083857Y51541429D01*
X12141000Y51312858D01*
X12141000Y51141429D01*
X12083857Y50912858D01*
X12026714Y50798572D01*
X11912428Y50684286D01*
X11741000Y50627143D01*
X11455285Y50627143D01*
X9055285Y45985143D02*
X9798142Y45985143D01*
X9398142Y45528000D01*
X9569571Y45528000D01*
X9683857Y45470858D01*
X9741000Y45413715D01*
X9798142Y45299429D01*
X9798142Y45013715D01*
X9741000Y44899429D01*
X9683857Y44842286D01*
X9569571Y44785143D01*
X9226714Y44785143D01*
X9112428Y44842286D01*
X9055285Y44899429D01*
X10141000Y45985143D02*
X10541000Y44785143D01*
X10941000Y45985143D01*
X11226714Y45985143D02*
X11969571Y45985143D01*
X11569571Y45528000D01*
X11741000Y45528000D01*
X11855285Y45470858D01*
X11912428Y45413715D01*
X11969571Y45299429D01*
X11969571Y45013715D01*
X11912428Y44899429D01*
X11855285Y44842286D01*
X11741000Y44785143D01*
X11398142Y44785143D01*
X11283857Y44842286D01*
X11226714Y44899429D01*
X18564142Y12650715D02*
X18564142Y11907858D01*
X18107000Y12307858D01*
X18107000Y12136429D01*
X18049857Y12022143D01*
X17992714Y11965000D01*
X17878428Y11907858D01*
X17592714Y11907858D01*
X17478428Y11965000D01*
X17421285Y12022143D01*
X17364142Y12136429D01*
X17364142Y12479286D01*
X17421285Y12593572D01*
X17478428Y12650715D01*
X18564142Y11565000D02*
X17364142Y11165000D01*
X18564142Y10765000D01*
X18564142Y10479286D02*
X18564142Y9736429D01*
X18107000Y10136429D01*
X18107000Y9965000D01*
X18049857Y9850715D01*
X17992714Y9793572D01*
X17878428Y9736429D01*
X17592714Y9736429D01*
X17478428Y9793572D01*
X17421285Y9850715D01*
X17364142Y9965000D01*
X17364142Y10307858D01*
X17421285Y10422143D01*
X17478428Y10479286D01*
X16221000Y11952286D02*
X16278142Y12066572D01*
X16278142Y12238000D01*
X16221000Y12409429D01*
X16106714Y12523715D01*
X15992428Y12580858D01*
X15763857Y12638000D01*
X15592428Y12638000D01*
X15363857Y12580858D01*
X15249571Y12523715D01*
X15135285Y12409429D01*
X15078142Y12238000D01*
X15078142Y12123715D01*
X15135285Y11952286D01*
X15192428Y11895143D01*
X15592428Y11895143D01*
X15592428Y12123715D01*
X15078142Y11380858D02*
X16278142Y11380858D01*
X15078142Y10695143D01*
X16278142Y10695143D01*
X15078142Y10123715D02*
X16278142Y10123715D01*
X16278142Y9838000D01*
X16221000Y9666572D01*
X16106714Y9552286D01*
X15992428Y9495143D01*
X15763857Y9438000D01*
X15592428Y9438000D01*
X15363857Y9495143D01*
X15249571Y9552286D01*
X15135285Y9666572D01*
X15078142Y9838000D01*
X15078142Y10123715D01*
X14119142Y12396715D02*
X14119142Y11711000D01*
X12919142Y12053858D02*
X14119142Y12053858D01*
X14119142Y11425286D02*
X12919142Y10625286D01*
X14119142Y10625286D02*
X12919142Y11425286D01*
X12919142Y9539572D02*
X12919142Y10225286D01*
X12919142Y9882429D02*
X14119142Y9882429D01*
X13947714Y9996715D01*
X13833428Y10111000D01*
X13776285Y10225286D01*
X10379142Y11682429D02*
X10950571Y12082429D01*
X10379142Y12368143D02*
X11579142Y12368143D01*
X11579142Y11911000D01*
X11522000Y11796715D01*
X11464857Y11739572D01*
X11350571Y11682429D01*
X11179142Y11682429D01*
X11064857Y11739572D01*
X11007714Y11796715D01*
X10950571Y11911000D01*
X10950571Y12368143D01*
X11579142Y11282429D02*
X10379142Y10482429D01*
X11579142Y10482429D02*
X10379142Y11282429D01*
X10379142Y9396715D02*
X10379142Y10082429D01*
X10379142Y9739572D02*
X11579142Y9739572D01*
X11407714Y9853858D01*
X11293428Y9968143D01*
X11236285Y10082429D01*
X25873000Y23128286D02*
X25930142Y23242572D01*
X25930142Y23414000D01*
X25873000Y23585429D01*
X25758714Y23699715D01*
X25644428Y23756858D01*
X25415857Y23814000D01*
X25244428Y23814000D01*
X25015857Y23756858D01*
X24901571Y23699715D01*
X24787285Y23585429D01*
X24730142Y23414000D01*
X24730142Y23299715D01*
X24787285Y23128286D01*
X24844428Y23071143D01*
X25244428Y23071143D01*
X25244428Y23299715D01*
X24730142Y22556858D02*
X25930142Y22556858D01*
X24730142Y21871143D01*
X25930142Y21871143D01*
X24730142Y21299715D02*
X25930142Y21299715D01*
X25930142Y21014000D01*
X25873000Y20842572D01*
X25758714Y20728286D01*
X25644428Y20671143D01*
X25415857Y20614000D01*
X25244428Y20614000D01*
X25015857Y20671143D01*
X24901571Y20728286D01*
X24787285Y20842572D01*
X24730142Y21014000D01*
X24730142Y21299715D01*
X37931714Y19416715D02*
X37931714Y19016715D01*
X37303142Y18845286D02*
X37303142Y19416715D01*
X38503142Y19416715D01*
X38503142Y18845286D01*
X37303142Y18331000D02*
X38503142Y18331000D01*
X37303142Y17645286D01*
X38503142Y17645286D01*
X36090142Y19889715D02*
X36090142Y19204000D01*
X34890142Y19546858D02*
X36090142Y19546858D01*
X36090142Y18918286D02*
X34890142Y18118286D01*
X36090142Y18118286D02*
X34890142Y18918286D01*
X36090142Y17432572D02*
X36090142Y17318286D01*
X36033000Y17204000D01*
X35975857Y17146858D01*
X35861571Y17089715D01*
X35633000Y17032572D01*
X35347285Y17032572D01*
X35118714Y17089715D01*
X35004428Y17146858D01*
X34947285Y17204000D01*
X34890142Y17318286D01*
X34890142Y17432572D01*
X34947285Y17546858D01*
X35004428Y17604000D01*
X35118714Y17661143D01*
X35347285Y17718286D01*
X35633000Y17718286D01*
X35861571Y17661143D01*
X35975857Y17604000D01*
X36033000Y17546858D01*
X36090142Y17432572D01*
X32477142Y22985429D02*
X33048571Y23385429D01*
X32477142Y23671143D02*
X33677142Y23671143D01*
X33677142Y23214000D01*
X33620000Y23099715D01*
X33562857Y23042572D01*
X33448571Y22985429D01*
X33277142Y22985429D01*
X33162857Y23042572D01*
X33105714Y23099715D01*
X33048571Y23214000D01*
X33048571Y23671143D01*
X33677142Y22585429D02*
X32477142Y21785429D01*
X33677142Y21785429D02*
X32477142Y22585429D01*
X33677142Y21099715D02*
X33677142Y20985429D01*
X33620000Y20871143D01*
X33562857Y20814000D01*
X33448571Y20756858D01*
X33220000Y20699715D01*
X32934285Y20699715D01*
X32705714Y20756858D01*
X32591428Y20814000D01*
X32534285Y20871143D01*
X32477142Y20985429D01*
X32477142Y21099715D01*
X32534285Y21214000D01*
X32591428Y21271143D01*
X32705714Y21328286D01*
X32934285Y21385429D01*
X33220000Y21385429D01*
X33448571Y21328286D01*
X33562857Y21271143D01*
X33620000Y21214000D01*
X33677142Y21099715D01*
X30565714Y23334572D02*
X30508571Y23163143D01*
X30451428Y23106000D01*
X30337142Y23048858D01*
X30165714Y23048858D01*
X30051428Y23106000D01*
X29994285Y23163143D01*
X29937142Y23277429D01*
X29937142Y23734572D01*
X31137142Y23734572D01*
X31137142Y23334572D01*
X31080000Y23220286D01*
X31022857Y23163143D01*
X30908571Y23106000D01*
X30794285Y23106000D01*
X30680000Y23163143D01*
X30622857Y23220286D01*
X30565714Y23334572D01*
X30565714Y23734572D01*
X31137142Y22306000D02*
X31137142Y22077429D01*
X31080000Y21963143D01*
X30965714Y21848858D01*
X30737142Y21791715D01*
X30337142Y21791715D01*
X30108571Y21848858D01*
X29994285Y21963143D01*
X29937142Y22077429D01*
X29937142Y22306000D01*
X29994285Y22420286D01*
X30108571Y22534572D01*
X30337142Y22591715D01*
X30737142Y22591715D01*
X30965714Y22534572D01*
X31080000Y22420286D01*
X31137142Y22306000D01*
X31137142Y21048858D02*
X31137142Y20820286D01*
X31080000Y20706000D01*
X30965714Y20591715D01*
X30737142Y20534572D01*
X30337142Y20534572D01*
X30108571Y20591715D01*
X29994285Y20706000D01*
X29937142Y20820286D01*
X29937142Y21048858D01*
X29994285Y21163143D01*
X30108571Y21277429D01*
X30337142Y21334572D01*
X30737142Y21334572D01*
X30965714Y21277429D01*
X31080000Y21163143D01*
X31137142Y21048858D01*
X31137142Y20191715D02*
X31137142Y19506000D01*
X29937142Y19848858D02*
X31137142Y19848858D01*
X28724142Y23699715D02*
X28724142Y22956858D01*
X28267000Y23356858D01*
X28267000Y23185429D01*
X28209857Y23071143D01*
X28152714Y23014000D01*
X28038428Y22956858D01*
X27752714Y22956858D01*
X27638428Y23014000D01*
X27581285Y23071143D01*
X27524142Y23185429D01*
X27524142Y23528286D01*
X27581285Y23642572D01*
X27638428Y23699715D01*
X28724142Y22614000D02*
X27524142Y22214000D01*
X28724142Y21814000D01*
X28724142Y21528286D02*
X28724142Y20785429D01*
X28267000Y21185429D01*
X28267000Y21014000D01*
X28209857Y20899715D01*
X28152714Y20842572D01*
X28038428Y20785429D01*
X27752714Y20785429D01*
X27638428Y20842572D01*
X27581285Y20899715D01*
X27524142Y21014000D01*
X27524142Y21356858D01*
X27581285Y21471143D01*
X27638428Y21528286D01*
X29273571Y52332858D02*
X30416428Y52332858D01*
X25717571Y52332858D02*
X26860428Y52332858D01*
X26289000Y51761429D02*
X26289000Y52904286D01*
D11*
X28514000Y15542000D02*
X28895000Y15796000D01*
X30038000Y17066000D02*
X29784000Y16685000D01*
X28514000Y15542000D02*
X28895000Y15288000D01*
X30038000Y17066000D02*
X30038000Y15542000D01*
X30038000Y17066000D02*
X30292000Y16685000D01*
X28514000Y15542000D02*
X30038000Y15542000D01*
X28768000Y16445286D02*
X28768000Y16159572D01*
X28568000Y16759572D02*
X28768000Y16445286D01*
X28968000Y16759572D01*
X30600000Y17013572D02*
X31000000Y16413572D01*
X31000000Y17013572D02*
X30600000Y16413572D01*
X19116000Y15302286D02*
X19116000Y15016572D01*
X18916000Y15616572D02*
X19116000Y15302286D01*
X19316000Y15616572D01*
X21710000Y16759572D02*
X22110000Y16159572D01*
X22110000Y16759572D02*
X21710000Y16159572D01*
X19624000Y15288000D02*
X20005000Y15034000D01*
X19624000Y15288000D02*
X21148000Y15288000D01*
X19624000Y15288000D02*
X20005000Y15542000D01*
X21148000Y16812000D02*
X21402000Y16431000D01*
X21148000Y16812000D02*
X20894000Y16431000D01*
X21148000Y16812000D02*
X21148000Y15288000D01*
%TO.C,U1*%
X42916666Y34238096D02*
X42916666Y34714286D01*
X43202380Y34142858D02*
X42202380Y34476191D01*
X43202380Y34809524D01*
X42535714Y35142858D02*
X43202380Y35142858D01*
X42630952Y35142858D02*
X42583333Y35190477D01*
X42535714Y35285715D01*
X42535714Y35428572D01*
X42583333Y35523810D01*
X42678571Y35571429D01*
X43202380Y35571429D01*
X42535714Y35904762D02*
X42535714Y36285715D01*
X42202380Y36047620D02*
X43059523Y36047620D01*
X43154761Y36095239D01*
X43202380Y36190477D01*
X43202380Y36285715D01*
X43154761Y37000000D02*
X43202380Y36904762D01*
X43202380Y36714286D01*
X43154761Y36619048D01*
X43059523Y36571429D01*
X42678571Y36571429D01*
X42583333Y36619048D01*
X42535714Y36714286D01*
X42535714Y36904762D01*
X42583333Y37000000D01*
X42678571Y37047620D01*
X42773809Y37047620D01*
X42869047Y36571429D01*
X42535714Y37476191D02*
X43202380Y37476191D01*
X42630952Y37476191D02*
X42583333Y37523810D01*
X42535714Y37619048D01*
X42535714Y37761905D01*
X42583333Y37857143D01*
X42678571Y37904762D01*
X43202380Y37904762D01*
X42535714Y38380953D02*
X43202380Y38380953D01*
X42630952Y38380953D02*
X42583333Y38428572D01*
X42535714Y38523810D01*
X42535714Y38666667D01*
X42583333Y38761905D01*
X42678571Y38809524D01*
X43202380Y38809524D01*
X43202380Y39714286D02*
X42678571Y39714286D01*
X42583333Y39666667D01*
X42535714Y39571429D01*
X42535714Y39380953D01*
X42583333Y39285715D01*
X43154761Y39714286D02*
X43202380Y39619048D01*
X43202380Y39380953D01*
X43154761Y39285715D01*
X43059523Y39238096D01*
X42964285Y39238096D01*
X42869047Y39285715D01*
X42821428Y39380953D01*
X42821428Y39619048D01*
X42773809Y39714286D01*
X42916666Y40904762D02*
X42916666Y41380953D01*
X43202380Y40809524D02*
X42202380Y41142858D01*
X43202380Y41476191D01*
X43202380Y41809524D02*
X42535714Y41809524D01*
X42726190Y41809524D02*
X42630952Y41857143D01*
X42583333Y41904762D01*
X42535714Y42000000D01*
X42535714Y42095239D01*
X43154761Y42809524D02*
X43202380Y42714286D01*
X43202380Y42523810D01*
X43154761Y42428572D01*
X43059523Y42380953D01*
X42678571Y42380953D01*
X42583333Y42428572D01*
X42535714Y42523810D01*
X42535714Y42714286D01*
X42583333Y42809524D01*
X42678571Y42857143D01*
X42773809Y42857143D01*
X42869047Y42380953D01*
X43202380Y43714286D02*
X42678571Y43714286D01*
X42583333Y43666667D01*
X42535714Y43571429D01*
X42535714Y43380953D01*
X42583333Y43285715D01*
X43154761Y43714286D02*
X43202380Y43619048D01*
X43202380Y43380953D01*
X43154761Y43285715D01*
X43059523Y43238096D01*
X42964285Y43238096D01*
X42869047Y43285715D01*
X42821428Y43380953D01*
X42821428Y43619048D01*
X42773809Y43714286D01*
D12*
%TO.C,C10*%
X12558180Y58940400D02*
X12277020Y58940400D01*
X12558180Y59960400D02*
X12277020Y59960400D01*
%TO.C,C9*%
X12583580Y57416400D02*
X12302420Y57416400D01*
X12583580Y58436400D02*
X12302420Y58436400D01*
%TO.C,C7*%
X21793252Y59827000D02*
X20370748Y59827000D01*
X21793252Y58007000D02*
X20370748Y58007000D01*
%TO.C,C2*%
X38095820Y50656600D02*
X38376980Y50656600D01*
X38095820Y51676600D02*
X38376980Y51676600D01*
%TO.C,U6*%
X12319000Y32140000D02*
X10369000Y32140000D01*
X12319000Y32140000D02*
X14269000Y32140000D01*
X12319000Y27020000D02*
X15769000Y27020000D01*
X12319000Y27020000D02*
X10369000Y27020000D01*
%TO.C,U5*%
X12319000Y40522000D02*
X10369000Y40522000D01*
X12319000Y40522000D02*
X14269000Y40522000D01*
X12319000Y35402000D02*
X15769000Y35402000D01*
X12319000Y35402000D02*
X10369000Y35402000D01*
D11*
%TO.C,U4*%
X31238000Y14983000D02*
X31638000Y14983000D01*
X31638000Y14983000D02*
X31638000Y14573000D01*
X31638000Y12183000D02*
X31638000Y11773000D01*
X31638000Y11773000D02*
X31228000Y11773000D01*
X28438000Y11783000D02*
X28438000Y12183000D01*
X28438000Y14583000D02*
X28438000Y14983000D01*
X28438000Y14983000D02*
X28838000Y14983000D01*
X28838000Y11783000D02*
X28438000Y11783000D01*
D13*
X31738000Y12583000D02*
G75*
G03*
X31738000Y12583000I0J0D01*
G01*
D11*
%TO.C,U3*%
X19422000Y14064000D02*
G75*
G03*
X19422000Y14064000I-70000J0D01*
G01*
X19502000Y11994000D02*
X19502000Y12244000D01*
X20242000Y11994000D02*
X19502000Y11994000D01*
X19502000Y14654000D02*
X19502000Y14404000D01*
X20242000Y14654000D02*
X19502000Y14654000D01*
X22652000Y11994000D02*
X22652000Y12244000D01*
X21912000Y11994000D02*
X22652000Y11994000D01*
X22652000Y14654000D02*
X22652000Y14404000D01*
X21912000Y14654000D02*
X22652000Y14654000D01*
D12*
%TO.C,U2*%
X15632800Y54726000D02*
X15632800Y52926000D01*
X18752800Y54726000D02*
X18752800Y55526000D01*
X15632800Y54726000D02*
X15632800Y55526000D01*
X18752800Y54726000D02*
X18752800Y53926000D01*
%TO.C,U1*%
X21000000Y48000000D02*
X20250000Y48000000D01*
X45750000Y48000000D02*
X45750000Y30000000D01*
X39810000Y30000000D02*
X39810000Y48000000D01*
X20250000Y48000000D02*
X20250000Y47000000D01*
X21000000Y30000000D02*
X20250000Y30000000D01*
X20250000Y30000000D02*
X20250000Y31000000D01*
X45750000Y30000000D02*
X39000000Y30000000D01*
X45750000Y48000000D02*
X39000000Y48000000D01*
%TO.C,R15*%
X23369000Y13803359D02*
X23369000Y14110641D01*
X24129000Y13803359D02*
X24129000Y14110641D01*
%TO.C,R14*%
X24319000Y13803359D02*
X24319000Y14110641D01*
X25079000Y13803359D02*
X25079000Y14110641D01*
%TO.C,R13*%
X17654000Y13805359D02*
X17654000Y14112641D01*
X18414000Y13805359D02*
X18414000Y14112641D01*
%TO.C,R12*%
X16765000Y13805359D02*
X16765000Y14112641D01*
X17525000Y13805359D02*
X17525000Y14112641D01*
%TO.C,R11*%
X23369000Y11263359D02*
X23369000Y11570641D01*
X24129000Y11263359D02*
X24129000Y11570641D01*
%TO.C,R10*%
X24319000Y11263359D02*
X24319000Y11570641D01*
X25079000Y11263359D02*
X25079000Y11570641D01*
%TO.C,R9*%
X20575000Y51349041D02*
X20575000Y51041759D01*
X21335000Y51349041D02*
X21335000Y51041759D01*
%TO.C,R8*%
X22734000Y51325641D02*
X22734000Y51018359D01*
X23494000Y51325641D02*
X23494000Y51018359D01*
%TO.C,R7*%
X24865359Y51298000D02*
X25172641Y51298000D01*
X24865359Y52058000D02*
X25172641Y52058000D01*
%TO.C,R6*%
X19225800Y51318141D02*
X19225800Y51010859D01*
X19985800Y51318141D02*
X19985800Y51010859D01*
%TO.C,R5*%
X19200400Y53330241D02*
X19200400Y53022959D01*
X19960400Y53330241D02*
X19960400Y53022959D01*
%TO.C,R4*%
X19225800Y55382141D02*
X19225800Y55074859D01*
X19985800Y55382141D02*
X19985800Y55074859D01*
%TO.C,R3*%
X34769359Y22088000D02*
X35076641Y22088000D01*
X34769359Y22848000D02*
X35076641Y22848000D01*
%TO.C,R2*%
X34769359Y20945000D02*
X35076641Y20945000D01*
X34769359Y21705000D02*
X35076641Y21705000D01*
%TO.C,R1*%
X36533600Y50863041D02*
X36533600Y50555759D01*
X35773600Y50863041D02*
X35773600Y50555759D01*
%TO.C,L1*%
X14951000Y52626000D02*
X10951000Y52626000D01*
X14951000Y56826000D02*
X10951000Y56826000D01*
%TO.C,J7*%
X-64000Y25377750D02*
X8094000Y25377750D01*
X-64000Y31981750D02*
X444000Y32519750D01*
X8094000Y25377750D02*
X8094000Y26707750D01*
X444000Y32519750D02*
X8064000Y32519750D01*
X8064000Y31189750D02*
X8064000Y32519750D01*
X-64000Y25377750D02*
X-64000Y26707750D01*
X-64000Y31189750D02*
X-64000Y31981750D01*
%TO.C,J6*%
X-60000Y12889000D02*
X-60000Y14219000D01*
X-60000Y12889000D02*
X8068000Y12889000D01*
X8068000Y23781000D02*
X8068000Y25111000D01*
X8068000Y12889000D02*
X8068000Y14219000D01*
X-187000Y24700000D02*
X194000Y25111000D01*
X194000Y25111000D02*
X8068000Y25111000D01*
X-187000Y23654000D02*
X-187000Y24700000D01*
%TO.C,J5*%
X-64000Y32786500D02*
X8094000Y32786500D01*
X-64000Y39390500D02*
X444000Y39928500D01*
X8094000Y32786500D02*
X8094000Y34116500D01*
X444000Y39928500D02*
X8064000Y39928500D01*
X8064000Y38598500D02*
X8064000Y39928500D01*
X-64000Y32786500D02*
X-64000Y34116500D01*
X-64000Y38598500D02*
X-64000Y39390500D01*
%TO.C,J4*%
X-60000Y40195250D02*
X-60000Y41525250D01*
X-60000Y40195250D02*
X8068000Y40195250D01*
X8068000Y51087250D02*
X8068000Y52417250D01*
X8068000Y40195250D02*
X8068000Y41525250D01*
X-187000Y52006250D02*
X194000Y52417250D01*
X194000Y52417250D02*
X8068000Y52417250D01*
X-187000Y50960250D02*
X-187000Y52006250D01*
%TO.C,J3*%
X24511000Y61076000D02*
X24511000Y52918000D01*
X31115000Y61076000D02*
X31653000Y60568000D01*
X24511000Y52918000D02*
X25841000Y52918000D01*
X31653000Y60568000D02*
X31653000Y52948000D01*
X30323000Y52948000D02*
X31653000Y52948000D01*
X24511000Y61076000D02*
X25841000Y61076000D01*
X30323000Y61076000D02*
X31115000Y61076000D01*
%TO.C,J2*%
X20828000Y-11000D02*
X19498000Y-11000D01*
X20828000Y-11000D02*
X20828000Y8117000D01*
X9936000Y8117000D02*
X8606000Y8117000D01*
X20828000Y8117000D02*
X19498000Y8117000D01*
X9017000Y-138000D02*
X8606000Y243000D01*
X8606000Y243000D02*
X8606000Y8117000D01*
X10063000Y-138000D02*
X9017000Y-138000D01*
%TO.C,J1*%
X26797000Y26973000D02*
X39557000Y26973000D01*
X39557000Y24313000D02*
X39557000Y26973000D01*
X26797000Y24313000D02*
X26797000Y26973000D01*
X24197000Y24313000D02*
X24197000Y25643000D01*
X25527000Y24313000D02*
X24197000Y24313000D01*
X26797000Y24313000D02*
X39557000Y24313000D01*
%TO.C,D5*%
X27140000Y50562000D02*
X29425000Y50562000D01*
X29425000Y50562000D02*
X29425000Y52032000D01*
X29425000Y52032000D02*
X27140000Y52032000D01*
%TO.C,D4*%
X10402000Y55494000D02*
X10402000Y59174000D01*
X8382000Y55494000D02*
X8382000Y59174000D01*
X8382000Y55494000D02*
X10402000Y55494000D01*
%TO.C,D3*%
X14053800Y50246200D02*
X17953800Y50246200D01*
X14053800Y52246200D02*
X14053800Y50246200D01*
X14053800Y52246200D02*
X17953800Y52246200D01*
%TO.C,D2*%
X37298000Y21860000D02*
X39583000Y21860000D01*
X39583000Y21860000D02*
X39583000Y23330000D01*
X39583000Y23330000D02*
X37298000Y23330000D01*
%TO.C,D1*%
X37300000Y20332000D02*
X39585000Y20332000D01*
X39585000Y20332000D02*
X39585000Y21802000D01*
X39585000Y21802000D02*
X37300000Y21802000D01*
%TO.C,C20*%
X11443580Y32372000D02*
X11162420Y32372000D01*
X11443580Y33392000D02*
X11162420Y33392000D01*
%TO.C,C19*%
X11316580Y40754000D02*
X11035420Y40754000D01*
X11316580Y41774000D02*
X11035420Y41774000D01*
%TO.C,C18*%
X8911000Y33028164D02*
X8911000Y33243836D01*
X9631000Y33028164D02*
X9631000Y33243836D01*
%TO.C,C17*%
X8657000Y41410164D02*
X8657000Y41625836D01*
X9377000Y41410164D02*
X9377000Y41625836D01*
%TO.C,C16*%
X27919000Y13851164D02*
X27919000Y14066836D01*
X27199000Y13851164D02*
X27199000Y14066836D01*
%TO.C,C15*%
X20239836Y11457000D02*
X20024164Y11457000D01*
X20239836Y10737000D02*
X20024164Y10737000D01*
%TO.C,C14*%
X27030000Y13851164D02*
X27030000Y14066836D01*
X26310000Y13851164D02*
X26310000Y14066836D01*
%TO.C,C13*%
X32319000Y14066836D02*
X32319000Y13851164D01*
X33039000Y14066836D02*
X33039000Y13851164D01*
%TO.C,C12*%
X21929164Y10737000D02*
X22144836Y10737000D01*
X21929164Y11457000D02*
X22144836Y11457000D01*
%TO.C,C11*%
X22407200Y51303236D02*
X22407200Y51087564D01*
X21687200Y51303236D02*
X21687200Y51087564D01*
%TO.C,C8*%
X15516348Y58007000D02*
X16938852Y58007000D01*
X15516348Y59827000D02*
X16938852Y59827000D01*
%TO.C,C6*%
X12649252Y43952000D02*
X11226748Y43952000D01*
X12649252Y42132000D02*
X11226748Y42132000D01*
%TO.C,C5*%
X23135000Y53760748D02*
X23135000Y55183252D01*
X21315000Y53760748D02*
X21315000Y55183252D01*
%TO.C,C4*%
X18014836Y8646000D02*
X17799164Y8646000D01*
X18014836Y9366000D02*
X17799164Y9366000D01*
%TO.C,C3*%
X37823764Y49460400D02*
X38039436Y49460400D01*
X37823764Y50180400D02*
X38039436Y50180400D01*
%TO.C,C1*%
X35446800Y50601564D02*
X35446800Y50817236D01*
X34726800Y50601564D02*
X34726800Y50817236D01*
%TD*%
%LPC*%
D14*
%TO.C,H4*%
X33600000Y57000000D03*
X34302944Y55302944D03*
X34302944Y58697056D03*
X36000000Y54600000D03*
D15*
X36000000Y57000000D03*
D14*
X38400000Y57000000D03*
X37697056Y58697056D03*
X37697056Y55302944D03*
X36000000Y59400000D03*
%TD*%
%TO.C,H1*%
X1600000Y57000000D03*
X2302944Y55302944D03*
X2302944Y58697056D03*
X4000000Y54600000D03*
D15*
X4000000Y57000000D03*
D14*
X6400000Y57000000D03*
X5697056Y58697056D03*
X5697056Y55302944D03*
X4000000Y59400000D03*
%TD*%
D16*
%TO.C,C10*%
X11642600Y59450400D03*
X13192600Y59450400D03*
%TD*%
%TO.C,C9*%
X11668000Y57926400D03*
X13218000Y57926400D03*
%TD*%
D17*
%TO.C,C7*%
X19607000Y58917000D03*
X22557000Y58917000D03*
%TD*%
D18*
%TO.C,C2*%
X37461400Y51166600D03*
X39011400Y51166600D03*
%TD*%
D19*
%TO.C,U6*%
X12319000Y29580000D03*
D20*
X9844000Y27675000D03*
X9844000Y28945000D03*
X9844000Y30215000D03*
X9844000Y31485000D03*
X14794000Y31485000D03*
X14794000Y30215000D03*
X14794000Y28945000D03*
X14794000Y27675000D03*
%TD*%
D19*
%TO.C,U5*%
X12319000Y37962000D03*
D20*
X9844000Y36057000D03*
X9844000Y37327000D03*
X9844000Y38597000D03*
X9844000Y39867000D03*
X14794000Y39867000D03*
X14794000Y38597000D03*
X14794000Y37327000D03*
X14794000Y36057000D03*
%TD*%
D21*
%TO.C,U4*%
X30788000Y12123000D03*
X30288000Y12123000D03*
X29788000Y12123000D03*
X29288000Y12123000D03*
D22*
X28778000Y12633000D03*
X28778000Y13133000D03*
X28778000Y13633000D03*
X28778000Y14133000D03*
D21*
X29288000Y14643000D03*
X29788000Y14643000D03*
X30288000Y14643000D03*
X30788000Y14643000D03*
D22*
X31298000Y14133000D03*
X31298000Y13633000D03*
X31298000Y13133000D03*
X31298000Y12633000D03*
%TD*%
D23*
%TO.C,U3*%
X20582000Y14244000D03*
X21082000Y14244000D03*
X21582000Y14244000D03*
D24*
X22252000Y14074000D03*
X22252000Y13574000D03*
X22252000Y13074000D03*
X22252000Y12574000D03*
D23*
X21582000Y12404000D03*
X21082000Y12404000D03*
X20582000Y12404000D03*
D24*
X19912000Y12574000D03*
X19912000Y13074000D03*
X19912000Y13574000D03*
X19912000Y14074000D03*
%TD*%
D25*
%TO.C,U2*%
X16242800Y55863500D03*
X17192800Y55863500D03*
X18142800Y55863500D03*
X18142800Y53588500D03*
X17192800Y53588500D03*
X16242800Y53588500D03*
%TD*%
D26*
%TO.C,U1*%
X38260000Y47750000D03*
X36990000Y47750000D03*
X35720000Y47750000D03*
X34450000Y47750000D03*
X33180000Y47750000D03*
X31910000Y47750000D03*
X30640000Y47750000D03*
X29370000Y47750000D03*
X28100000Y47750000D03*
X26830000Y47750000D03*
X25560000Y47750000D03*
X24290000Y47750000D03*
X23020000Y47750000D03*
X21750000Y47750000D03*
D27*
X20500000Y45985000D03*
X20500000Y44715000D03*
X20500000Y43445000D03*
X20500000Y42175000D03*
X20500000Y40905000D03*
X20500000Y39635000D03*
X20500000Y38365000D03*
X20500000Y37095000D03*
X20500000Y35825000D03*
X20500000Y34555000D03*
X20500000Y33285000D03*
X20500000Y32015000D03*
D26*
X21750000Y30250000D03*
X23020000Y30250000D03*
X24290000Y30250000D03*
X25560000Y30250000D03*
X26830000Y30250000D03*
X28100000Y30250000D03*
X29370000Y30250000D03*
X30640000Y30250000D03*
X31910000Y30250000D03*
X33180000Y30250000D03*
X34450000Y30250000D03*
X35720000Y30250000D03*
X36990000Y30250000D03*
X38260000Y30250000D03*
D28*
X30540000Y40500000D03*
X30540000Y41900000D03*
X31940000Y41900000D03*
X31940000Y39100000D03*
X29140000Y40500000D03*
X30540000Y39100000D03*
X29140000Y39100000D03*
X31940000Y40500000D03*
X29140000Y41900000D03*
%TD*%
D29*
%TO.C,R15*%
X23749000Y13447000D03*
X23749000Y14467000D03*
%TD*%
%TO.C,R14*%
X24699000Y13447000D03*
X24699000Y14467000D03*
%TD*%
%TO.C,R13*%
X18034000Y13449000D03*
X18034000Y14469000D03*
%TD*%
%TO.C,R12*%
X17145000Y13449000D03*
X17145000Y14469000D03*
%TD*%
%TO.C,R11*%
X23749000Y10907000D03*
X23749000Y11927000D03*
%TD*%
%TO.C,R10*%
X24699000Y10907000D03*
X24699000Y11927000D03*
%TD*%
D30*
%TO.C,R9*%
X20955000Y50685400D03*
X20955000Y51705400D03*
%TD*%
%TO.C,R8*%
X23114000Y50662000D03*
X23114000Y51682000D03*
%TD*%
D31*
%TO.C,R7*%
X25529000Y51678000D03*
X24509000Y51678000D03*
%TD*%
D30*
%TO.C,R6*%
X19605800Y50654500D03*
X19605800Y51674500D03*
%TD*%
%TO.C,R5*%
X19580400Y52666600D03*
X19580400Y53686600D03*
%TD*%
%TO.C,R4*%
X19605800Y54718500D03*
X19605800Y55738500D03*
%TD*%
D31*
%TO.C,R3*%
X35433000Y22468000D03*
X34413000Y22468000D03*
%TD*%
%TO.C,R2*%
X35433000Y21325000D03*
X34413000Y21325000D03*
%TD*%
D30*
%TO.C,R1*%
X36153600Y51219400D03*
X36153600Y50199400D03*
%TD*%
D32*
%TO.C,L1*%
X11551000Y54726000D03*
X14351000Y54726000D03*
%TD*%
D33*
%TO.C,J7*%
X4000000Y27663750D03*
D34*
X4000000Y30203750D03*
%TD*%
D33*
%TO.C,J6*%
X4004000Y15175000D03*
X4004000Y17715000D03*
X4004000Y20255000D03*
D34*
X4004000Y22795000D03*
%TD*%
D33*
%TO.C,J5*%
X4000000Y35072500D03*
D34*
X4000000Y37612500D03*
%TD*%
D33*
%TO.C,J4*%
X4004000Y42481250D03*
X4004000Y45021250D03*
X4004000Y47561250D03*
D34*
X4004000Y50101250D03*
%TD*%
D33*
%TO.C,J3*%
X26797000Y57012000D03*
D34*
X29337000Y57012000D03*
%TD*%
D33*
%TO.C,J2*%
X18542000Y4053000D03*
X16002000Y4053000D03*
X13462000Y4053000D03*
D34*
X10922000Y4053000D03*
%TD*%
D35*
%TO.C,J1*%
X38227000Y25643000D03*
X35687000Y25643000D03*
X33147000Y25643000D03*
X30607000Y25643000D03*
X28067000Y25643000D03*
D36*
X25527000Y25643000D03*
%TD*%
D14*
%TO.C,H3*%
X33600000Y4000000D03*
X34302944Y2302944D03*
X34302944Y5697056D03*
X36000000Y1600000D03*
D15*
X36000000Y4000000D03*
D14*
X38400000Y4000000D03*
X37697056Y5697056D03*
X37697056Y2302944D03*
X36000000Y6400000D03*
%TD*%
%TO.C,H2*%
X1553500Y4000000D03*
X2256444Y2302944D03*
X2256444Y5697056D03*
X3953500Y1600000D03*
D15*
X3953500Y4000000D03*
D14*
X6353500Y4000000D03*
X5650556Y5697056D03*
X5650556Y2302944D03*
X3953500Y6400000D03*
%TD*%
D37*
%TO.C,D5*%
X27152500Y51297000D03*
X28727500Y51297000D03*
%TD*%
D38*
%TO.C,D4*%
X9392000Y59224000D03*
X9392000Y56324000D03*
%TD*%
D39*
%TO.C,D3*%
X17953800Y51246200D03*
X14653800Y51246200D03*
%TD*%
D37*
%TO.C,D2*%
X37310500Y22595000D03*
X38885500Y22595000D03*
%TD*%
%TO.C,D1*%
X37312500Y21067000D03*
X38887500Y21067000D03*
%TD*%
D16*
%TO.C,C20*%
X10528000Y32882000D03*
X12078000Y32882000D03*
%TD*%
%TO.C,C19*%
X10401000Y41264000D03*
X11951000Y41264000D03*
%TD*%
D40*
%TO.C,C18*%
X9271000Y33616000D03*
X9271000Y32656000D03*
%TD*%
%TO.C,C17*%
X9017000Y41998000D03*
X9017000Y41038000D03*
%TD*%
%TO.C,C16*%
X27559000Y13479000D03*
X27559000Y14439000D03*
%TD*%
D41*
%TO.C,C15*%
X20612000Y11097000D03*
X19652000Y11097000D03*
%TD*%
D40*
%TO.C,C14*%
X26670000Y13479000D03*
X26670000Y14439000D03*
%TD*%
D42*
%TO.C,C13*%
X32679000Y14439000D03*
X32679000Y13479000D03*
%TD*%
D43*
%TO.C,C12*%
X21557000Y11097000D03*
X22517000Y11097000D03*
%TD*%
D42*
%TO.C,C11*%
X22047200Y50715400D03*
X22047200Y51675400D03*
%TD*%
D44*
%TO.C,C8*%
X17702600Y58917000D03*
X14752600Y58917000D03*
%TD*%
D17*
%TO.C,C6*%
X10463000Y43042000D03*
X13413000Y43042000D03*
%TD*%
D45*
%TO.C,C5*%
X22225000Y55947000D03*
X22225000Y52997000D03*
%TD*%
D41*
%TO.C,C4*%
X17427000Y9006000D03*
X18387000Y9006000D03*
%TD*%
D43*
%TO.C,C3*%
X37451600Y49820400D03*
X38411600Y49820400D03*
%TD*%
D40*
%TO.C,C1*%
X35086800Y50229400D03*
X35086800Y51189400D03*
%TD*%
M02*
