%TF.GenerationSoftware,KiCad,Pcbnew,(6.0.7)*%
%TF.CreationDate,2025-03-15T16:29:39+08:00*%
%TF.ProjectId,solar_tracer,736f6c61-725f-4747-9261-6365722e6b69,1*%
%TF.SameCoordinates,PX6979f40PY7be1de0*%
%TF.FileFunction,Copper,L2,Bot*%
%TF.FilePolarity,Positive*%
%FSLAX46Y46*%
G04 Gerber Fmt 4.6, Leading zero omitted, Abs format (unit mm)*
G04 Created by KiCad (PCBNEW (6.0.7)) date 2025-03-15 16:29:39*
%MOMM*%
%LPD*%
G01*
G04 APERTURE LIST*
%TA.AperFunction,ComponentPad*%
%ADD10C,0.800000*%
%TD*%
%TA.AperFunction,ComponentPad*%
%ADD11C,6.400000*%
%TD*%
%TA.AperFunction,ComponentPad*%
%ADD12O,2.100000X2.100000*%
%TD*%
%TA.AperFunction,ComponentPad*%
%ADD13R,2.100000X2.100000*%
%TD*%
%TA.AperFunction,ComponentPad*%
%ADD14O,1.700000X1.700000*%
%TD*%
%TA.AperFunction,ComponentPad*%
%ADD15R,1.700000X1.700000*%
%TD*%
%TA.AperFunction,ViaPad*%
%ADD16C,0.550000*%
%TD*%
%TA.AperFunction,Conductor*%
%ADD17C,0.250000*%
%TD*%
%TA.AperFunction,Conductor*%
%ADD18C,0.350000*%
%TD*%
%TA.AperFunction,Conductor*%
%ADD19C,0.200000*%
%TD*%
%TA.AperFunction,Conductor*%
%ADD20C,0.400000*%
%TD*%
G04 APERTURE END LIST*
D10*
%TO.P,H4,1,1*%
%TO.N,GND*%
X33600000Y57000000D03*
X34302944Y55302944D03*
X34302944Y58697056D03*
X36000000Y54600000D03*
D11*
X36000000Y57000000D03*
D10*
X38400000Y57000000D03*
X37697056Y58697056D03*
X37697056Y55302944D03*
X36000000Y59400000D03*
%TD*%
%TO.P,H1,1,1*%
%TO.N,GND*%
X1600000Y57000000D03*
X2302944Y55302944D03*
X2302944Y58697056D03*
X4000000Y54600000D03*
D11*
X4000000Y57000000D03*
D10*
X6400000Y57000000D03*
X5697056Y58697056D03*
X5697056Y55302944D03*
X4000000Y59400000D03*
%TD*%
D12*
%TO.P,J7,2,Pin_2*%
%TO.N,Net-(U6-Pad8)*%
X4000000Y27663750D03*
D13*
%TO.P,J7,1,Pin_1*%
%TO.N,Net-(U6-Pad6)*%
X4000000Y30203750D03*
%TD*%
D12*
%TO.P,J6,4,Pin_4*%
%TO.N,VCC*%
X4004000Y15175000D03*
%TO.P,J6,3,Pin_3*%
%TO.N,/motor/MOTX_ENCB*%
X4004000Y17715000D03*
%TO.P,J6,2,Pin_2*%
%TO.N,/motor/MOTX_ENCA*%
X4004000Y20255000D03*
D13*
%TO.P,J6,1,Pin_1*%
%TO.N,GND*%
X4004000Y22795000D03*
%TD*%
D12*
%TO.P,J5,2,Pin_2*%
%TO.N,Net-(J5-Pad2)*%
X4000000Y35072500D03*
D13*
%TO.P,J5,1,Pin_1*%
%TO.N,Net-(J5-Pad1)*%
X4000000Y37612500D03*
%TD*%
D12*
%TO.P,J4,4,Pin_4*%
%TO.N,VCC*%
X4004000Y42481250D03*
%TO.P,J4,3,Pin_3*%
%TO.N,/motor/MOTY_ENCB*%
X4004000Y45021250D03*
%TO.P,J4,2,Pin_2*%
%TO.N,/motor/MOTY_ENCA*%
X4004000Y47561250D03*
D13*
%TO.P,J4,1,Pin_1*%
%TO.N,GND*%
X4004000Y50101250D03*
%TD*%
D12*
%TO.P,J3,2,Pin_2*%
%TO.N,V_SUPPLY*%
X26797000Y57012000D03*
D13*
%TO.P,J3,1,Pin_1*%
%TO.N,GND*%
X29337000Y57012000D03*
%TD*%
D12*
%TO.P,J2,4,Pin_4*%
%TO.N,VCC*%
X18542000Y4053000D03*
%TO.P,J2,3,Pin_3*%
%TO.N,GND*%
X16002000Y4053000D03*
%TO.P,J2,2,Pin_2*%
%TO.N,/GPS_TX*%
X13462000Y4053000D03*
D13*
%TO.P,J2,1,Pin_1*%
%TO.N,/GPS_RX*%
X10922000Y4053000D03*
%TD*%
D14*
%TO.P,J1,6,Pin_6*%
%TO.N,/EN*%
X38227000Y25643000D03*
%TO.P,J1,5,Pin_5*%
%TO.N,/TX0*%
X35687000Y25643000D03*
%TO.P,J1,4,Pin_4*%
%TO.N,/RX0*%
X33147000Y25643000D03*
%TO.P,J1,3,Pin_3*%
%TO.N,/BOOT*%
X30607000Y25643000D03*
%TO.P,J1,2,Pin_2*%
%TO.N,VCC*%
X28067000Y25643000D03*
D15*
%TO.P,J1,1,Pin_1*%
%TO.N,GND*%
X25527000Y25643000D03*
%TD*%
D10*
%TO.P,H3,1,1*%
%TO.N,GND*%
X33600000Y4000000D03*
X34302944Y2302944D03*
X34302944Y5697056D03*
X36000000Y1600000D03*
D11*
X36000000Y4000000D03*
D10*
X38400000Y4000000D03*
X37697056Y5697056D03*
X37697056Y2302944D03*
X36000000Y6400000D03*
%TD*%
%TO.P,H2,1,1*%
%TO.N,GND*%
X1553500Y4000000D03*
X2256444Y2302944D03*
X2256444Y5697056D03*
X3953500Y1600000D03*
D11*
X3953500Y4000000D03*
D10*
X6353500Y4000000D03*
X5650556Y5697056D03*
X5650556Y2302944D03*
X3953500Y6400000D03*
%TD*%
D16*
%TO.N,GND*%
X38608000Y33771000D03*
X37592000Y35041000D03*
X38735000Y45074000D03*
X37592000Y45074000D03*
X39116000Y14086000D03*
X39116000Y16753000D03*
X39116000Y18912000D03*
X16383000Y45709000D03*
X16383000Y47233000D03*
X12827000Y30342000D03*
X11811000Y28945000D03*
X12827000Y37327000D03*
X12827000Y38724000D03*
X9525000Y24246000D03*
X9525000Y25516000D03*
X15367000Y23611000D03*
X17145000Y25643000D03*
X10795000Y7355000D03*
X9398000Y13578000D03*
X10922000Y13578000D03*
X26797000Y18531000D03*
X24511000Y18531000D03*
X24511000Y21198000D03*
X22098000Y21198000D03*
X20193000Y18658000D03*
X22225000Y18658000D03*
X34544000Y51170000D03*
X31242000Y37962000D03*
X29845000Y37962000D03*
X28067000Y39232000D03*
X28067000Y41137000D03*
%TO.N,/EN*%
X38100000Y28437000D03*
%TO.N,GND*%
X32444234Y14526234D03*
X27763500Y13274500D03*
%TO.N,Net-(R11-Pad2)*%
X23749000Y12435000D03*
X25654000Y11292000D03*
%TO.N,/IMU_SDA*%
X24003000Y16245000D03*
%TO.N,VCC*%
X18288000Y9260000D03*
X19748500Y10720500D03*
%TO.N,/imu/IMU_INT*%
X19685000Y12054000D03*
%TO.N,/IMU_SDA*%
X20447000Y15229000D03*
%TO.N,GND*%
X21082000Y11292000D03*
X19698117Y14781500D03*
X16764000Y9006000D03*
%TO.N,VCC*%
X27051000Y28564000D03*
X16002000Y31485000D03*
%TO.N,/BOOT*%
X30480000Y31866000D03*
%TO.N,/EN*%
X37465000Y32374000D03*
%TO.N,/power/ADC_POWER*%
X34163000Y44947000D03*
X31369000Y50662000D03*
%TO.N,GND*%
X13081000Y27548000D03*
X14224000Y27167000D03*
X14224000Y35549000D03*
X13462000Y36057000D03*
%TO.N,/motor/MOTX_ENCB*%
X22225000Y41518000D03*
%TO.N,/motor/MOTX_ENCA*%
X23050500Y42470500D03*
X18669000Y41518000D03*
%TO.N,/motor/MOTX_ENCB*%
X18796000Y40629000D03*
%TO.N,/motor/MOTX_IN1*%
X23114000Y43423000D03*
%TO.N,/motor/MOTX_IN2*%
X23111571Y44246454D03*
%TO.N,/motor/MOTX_IN1*%
X18669000Y42534000D03*
%TO.N,/motor/MOTX_IN2*%
X18542000Y43423000D03*
%TO.N,VCC*%
X1270000Y33136000D03*
X5715000Y33644000D03*
X8128000Y40629000D03*
X11684000Y39994000D03*
%TO.N,/MOTY_IN2*%
X18796000Y45074000D03*
%TO.N,/MOTY_IN1*%
X18669000Y44185000D03*
X22098000Y44499500D03*
%TO.N,/MOTY_IN2*%
X22627978Y45388500D03*
%TO.N,/motor/MOTY_ENCB*%
X19431000Y48249000D03*
X22098000Y45963000D03*
%TO.N,V_SUPPLY*%
X10414000Y44693000D03*
%TO.N,GND*%
X12827000Y41772000D03*
X13716000Y41772000D03*
%TO.N,V_SUPPLY*%
X23622000Y55361000D03*
X23622000Y54599000D03*
%TO.N,GND*%
X11811000Y37327000D03*
X11811000Y38724000D03*
X12827000Y28945000D03*
X11811000Y30342000D03*
X11684000Y33644000D03*
X9144000Y34152000D03*
X8890000Y42534000D03*
X11938000Y41137000D03*
X8890000Y58155000D03*
X9779000Y58155000D03*
X13970000Y57774000D03*
X13589000Y58790000D03*
X14859000Y57901000D03*
X14097000Y60060000D03*
X20701000Y52440000D03*
X29845000Y51297000D03*
X21463000Y52440000D03*
X20955000Y54218000D03*
X21082000Y53202000D03*
X17145000Y54472000D03*
X20320000Y53583000D03*
X38481000Y49011000D03*
X39116000Y49900000D03*
X38735000Y50535000D03*
X16637000Y51297000D03*
X17145000Y52313000D03*
X18034000Y52059000D03*
%TD*%
D17*
%TO.N,GND*%
X16764000Y10657000D02*
X16764000Y9006000D01*
X20022029Y11295500D02*
X19997029Y11320500D01*
X21078500Y11295500D02*
X20022029Y11295500D01*
X17427500Y11320500D02*
X16764000Y10657000D01*
X21082000Y11292000D02*
X21078500Y11295500D01*
X19997029Y11320500D02*
X17427500Y11320500D01*
D18*
X16764000Y9006000D02*
X16764000Y7736000D01*
D17*
X28956000Y14467000D02*
X27763500Y13274500D01*
X32444234Y14526234D02*
X32385000Y14467000D01*
X32385000Y14467000D02*
X28956000Y14467000D01*
X27763500Y13274500D02*
X21205117Y13274500D01*
X21205117Y13274500D02*
X21082000Y13397617D01*
X21082000Y13397617D02*
X21082000Y11292000D01*
X19698117Y14781500D02*
X21082000Y13397617D01*
D19*
%TO.N,/EN*%
X38100000Y31739000D02*
X37465000Y32374000D01*
X38100000Y28437000D02*
X38100000Y31739000D01*
%TO.N,/IMU_SDA*%
X20447000Y15737000D02*
X20447000Y15229000D01*
X20955000Y16245000D02*
X20447000Y15737000D01*
X24003000Y16245000D02*
X20955000Y16245000D01*
%TO.N,Net-(R11-Pad2)*%
X23749000Y12435000D02*
X24892000Y11292000D01*
X24892000Y11292000D02*
X25654000Y11292000D01*
%TO.N,VCC*%
X19748500Y10720500D02*
X18288000Y9260000D01*
D18*
X18923000Y28564000D02*
X16002000Y31485000D01*
X27051000Y28564000D02*
X18923000Y28564000D01*
D19*
%TO.N,/BOOT*%
X30480000Y31866000D02*
X30607000Y31739000D01*
X30607000Y31739000D02*
X30607000Y25643000D01*
D17*
%TO.N,/power/ADC_POWER*%
X31369000Y47741000D02*
X34163000Y44947000D01*
X31369000Y50662000D02*
X31369000Y47741000D01*
D19*
%TO.N,/motor/MOTX_ENCB*%
X18796000Y40629000D02*
X19685000Y41518000D01*
X19685000Y41518000D02*
X22225000Y41518000D01*
%TO.N,/motor/MOTX_ENCA*%
X22714000Y42134000D02*
X23050500Y42470500D01*
X18669000Y41518000D02*
X19285000Y42134000D01*
X19285000Y42134000D02*
X22714000Y42134000D01*
%TO.N,/motor/MOTX_IN1*%
X22225000Y42534000D02*
X18669000Y42534000D01*
X23114000Y43423000D02*
X22225000Y42534000D01*
%TO.N,/motor/MOTX_IN2*%
X22288117Y43423000D02*
X18542000Y43423000D01*
X23111571Y44246454D02*
X22288117Y43423000D01*
%TO.N,/MOTY_IN1*%
X21783500Y44185000D02*
X18669000Y44185000D01*
X22098000Y44499500D02*
X21783500Y44185000D01*
%TO.N,/MOTY_IN2*%
X18796000Y45074000D02*
X22313478Y45074000D01*
X22313478Y45074000D02*
X22627978Y45388500D01*
D18*
%TO.N,VCC*%
X5207000Y33136000D02*
X5715000Y33644000D01*
X1270000Y33136000D02*
X5207000Y33136000D01*
D19*
X8128000Y40629000D02*
X11049000Y40629000D01*
X11049000Y40629000D02*
X11684000Y39994000D01*
%TO.N,/motor/MOTY_ENCB*%
X22098000Y45963000D02*
X21717000Y45963000D01*
X21717000Y45963000D02*
X19431000Y48249000D01*
D20*
%TO.N,V_SUPPLY*%
X19431000Y49011000D02*
X23622000Y53202000D01*
X23622000Y53202000D02*
X23622000Y55361000D01*
X10414000Y47360000D02*
X12065000Y49011000D01*
X10414000Y44693000D02*
X10414000Y47360000D01*
X12065000Y49011000D02*
X19431000Y49011000D01*
%TD*%
%TA.AperFunction,Conductor*%
%TO.N,/EN*%
G36*
X37716427Y32464411D02*
G01*
X37724631Y32460823D01*
X37727332Y32456307D01*
X37741025Y32413889D01*
X37741151Y32413473D01*
X37753778Y32368735D01*
X37753832Y32368538D01*
X37764549Y32327859D01*
X37774937Y32290154D01*
X37786603Y32254279D01*
X37801174Y32219006D01*
X37801295Y32218779D01*
X37801299Y32218770D01*
X37812050Y32198569D01*
X37820280Y32183104D01*
X37845548Y32145346D01*
X37845715Y32145139D01*
X37845717Y32145137D01*
X37872805Y32111668D01*
X37878606Y32104500D01*
X37878744Y32104353D01*
X37878753Y32104343D01*
X37913309Y32067604D01*
X37916481Y32059230D01*
X37913059Y32051315D01*
X37787685Y31925941D01*
X37779412Y31922514D01*
X37771396Y31925691D01*
X37734657Y31960247D01*
X37734647Y31960256D01*
X37734500Y31960394D01*
X37734342Y31960522D01*
X37734335Y31960528D01*
X37693863Y31993283D01*
X37693861Y31993285D01*
X37693654Y31993452D01*
X37655896Y32018720D01*
X37640431Y32026950D01*
X37620230Y32037701D01*
X37620221Y32037705D01*
X37619994Y32037826D01*
X37597918Y32046946D01*
X37584932Y32052310D01*
X37584928Y32052311D01*
X37584721Y32052397D01*
X37584498Y32052469D01*
X37584494Y32052471D01*
X37549007Y32064011D01*
X37548992Y32064015D01*
X37548846Y32064063D01*
X37548711Y32064100D01*
X37548705Y32064102D01*
X37511141Y32074451D01*
X37470462Y32085168D01*
X37470265Y32085222D01*
X37448784Y32091285D01*
X37425507Y32097855D01*
X37425133Y32097968D01*
X37400232Y32106006D01*
X37382693Y32111668D01*
X37375872Y32117470D01*
X37374589Y32122573D01*
X37368011Y32459062D01*
X37371276Y32467401D01*
X37379938Y32470989D01*
X37716427Y32464411D01*
G37*
%TD.AperFunction*%
%TD*%
%TA.AperFunction,Conductor*%
%TO.N,/EN*%
G36*
X38196925Y28978573D02*
G01*
X38200347Y28970658D01*
X38201898Y28920031D01*
X38207404Y28867773D01*
X38216236Y28823207D01*
X38228113Y28784311D01*
X38242751Y28749065D01*
X38259870Y28715449D01*
X38259922Y28715357D01*
X38259926Y28715350D01*
X38279160Y28681487D01*
X38279186Y28681441D01*
X38300373Y28645101D01*
X38300475Y28644922D01*
X38323172Y28604370D01*
X38323376Y28603988D01*
X38343697Y28564296D01*
X38344417Y28555370D01*
X38341716Y28550854D01*
X38108433Y28308269D01*
X38100229Y28304681D01*
X38091567Y28308269D01*
X37858284Y28550854D01*
X37855019Y28559193D01*
X37856302Y28564296D01*
X37876622Y28603988D01*
X37876827Y28604370D01*
X37899524Y28644922D01*
X37899626Y28645101D01*
X37920813Y28681441D01*
X37920839Y28681487D01*
X37940073Y28715350D01*
X37940077Y28715357D01*
X37940129Y28715449D01*
X37957248Y28749065D01*
X37971886Y28784311D01*
X37983763Y28823207D01*
X37992595Y28867773D01*
X37998101Y28920031D01*
X37999652Y28970659D01*
X38003331Y28978823D01*
X38011347Y28982000D01*
X38188652Y28982000D01*
X38196925Y28978573D01*
G37*
%TD.AperFunction*%
%TD*%
%TA.AperFunction,Conductor*%
%TO.N,VCC*%
G36*
X16253781Y31575404D02*
G01*
X16261985Y31571816D01*
X16264531Y31567750D01*
X16277100Y31533628D01*
X16292764Y31496584D01*
X16309435Y31462936D01*
X16327789Y31431505D01*
X16348503Y31401111D01*
X16348611Y31400972D01*
X16348622Y31400957D01*
X16369493Y31374120D01*
X16372252Y31370572D01*
X16399711Y31338709D01*
X16431558Y31304341D01*
X16431575Y31304323D01*
X16431598Y31304299D01*
X16468424Y31266333D01*
X16468467Y31266289D01*
X16501331Y31233219D01*
X16502895Y31231645D01*
X16506296Y31223361D01*
X16502869Y31215125D01*
X16271875Y30984131D01*
X16263602Y30980704D01*
X16255355Y30984105D01*
X16220711Y31018533D01*
X16182701Y31055402D01*
X16182677Y31055425D01*
X16182659Y31055442D01*
X16148291Y31087289D01*
X16148220Y31087350D01*
X16148208Y31087361D01*
X16116539Y31114652D01*
X16116428Y31114748D01*
X16112880Y31117507D01*
X16086043Y31138378D01*
X16086028Y31138389D01*
X16085889Y31138497D01*
X16055495Y31159211D01*
X16055332Y31159306D01*
X16055326Y31159310D01*
X16024215Y31177477D01*
X16024211Y31177479D01*
X16024064Y31177565D01*
X16008058Y31185495D01*
X15990572Y31194159D01*
X15990564Y31194163D01*
X15990416Y31194236D01*
X15990268Y31194299D01*
X15990254Y31194305D01*
X15953493Y31209849D01*
X15953487Y31209851D01*
X15953372Y31209900D01*
X15919250Y31222469D01*
X15912671Y31228544D01*
X15911596Y31233219D01*
X15905011Y31570062D01*
X15908276Y31578401D01*
X15916938Y31581989D01*
X16253781Y31575404D01*
G37*
%TD.AperFunction*%
%TD*%
%TA.AperFunction,Conductor*%
%TO.N,VCC*%
G36*
X26936890Y28805962D02*
G01*
X27006484Y28739037D01*
X27179731Y28572433D01*
X27183319Y28564229D01*
X27179731Y28555567D01*
X26950505Y28335131D01*
X26936891Y28322039D01*
X26928552Y28318774D01*
X26923878Y28319849D01*
X26890971Y28335039D01*
X26890949Y28335048D01*
X26890859Y28335090D01*
X26853588Y28350208D01*
X26853429Y28350262D01*
X26853420Y28350265D01*
X26818201Y28362147D01*
X26818198Y28362148D01*
X26818008Y28362212D01*
X26782804Y28371459D01*
X26769648Y28373951D01*
X26746819Y28378276D01*
X26746813Y28378277D01*
X26746665Y28378305D01*
X26746524Y28378323D01*
X26746509Y28378325D01*
X26715723Y28382175D01*
X26708278Y28383106D01*
X26708146Y28383116D01*
X26708144Y28383116D01*
X26693403Y28384210D01*
X26666330Y28386220D01*
X26644069Y28387067D01*
X26619541Y28388001D01*
X26619514Y28388002D01*
X26619506Y28388002D01*
X26619474Y28388003D01*
X26590654Y28388442D01*
X26566503Y28388810D01*
X26517662Y28388963D01*
X26509401Y28392416D01*
X26506000Y28400663D01*
X26506000Y28727337D01*
X26509427Y28735610D01*
X26517663Y28739037D01*
X26566503Y28739191D01*
X26590654Y28739559D01*
X26619474Y28739998D01*
X26619506Y28739999D01*
X26619514Y28739999D01*
X26619541Y28740000D01*
X26644069Y28740934D01*
X26666330Y28741781D01*
X26693403Y28743791D01*
X26708144Y28744885D01*
X26708146Y28744885D01*
X26708278Y28744895D01*
X26715723Y28745826D01*
X26746509Y28749676D01*
X26746524Y28749678D01*
X26746665Y28749696D01*
X26746813Y28749724D01*
X26746819Y28749725D01*
X26769648Y28754050D01*
X26782804Y28756542D01*
X26818008Y28765789D01*
X26818201Y28765854D01*
X26853420Y28777736D01*
X26853429Y28777739D01*
X26853588Y28777793D01*
X26890859Y28792911D01*
X26890975Y28792964D01*
X26890983Y28792968D01*
X26919133Y28805962D01*
X26923878Y28808152D01*
X26932824Y28808508D01*
X26936890Y28805962D01*
G37*
%TD.AperFunction*%
%TD*%
%TA.AperFunction,Conductor*%
%TO.N,/BOOT*%
G36*
X30747101Y31868859D02*
G01*
X30753714Y31862821D01*
X30754816Y31857600D01*
X30753662Y31805055D01*
X30753637Y31804504D01*
X30750026Y31752309D01*
X30749977Y31751779D01*
X30744657Y31705581D01*
X30744602Y31705165D01*
X30738118Y31662397D01*
X30738092Y31662237D01*
X30734545Y31641335D01*
X30731000Y31620446D01*
X30727150Y31597087D01*
X30723896Y31577349D01*
X30717367Y31530586D01*
X30711992Y31477728D01*
X30711985Y31477611D01*
X30711984Y31477598D01*
X30711599Y31471117D01*
X30708344Y31416342D01*
X30708342Y31416224D01*
X30708341Y31416205D01*
X30707213Y31355483D01*
X30703633Y31347275D01*
X30695515Y31344000D01*
X30518208Y31344000D01*
X30509935Y31347427D01*
X30506519Y31355198D01*
X30504887Y31393218D01*
X30504886Y31393224D01*
X30504873Y31393536D01*
X30498583Y31435498D01*
X30488266Y31471117D01*
X30474058Y31501624D01*
X30456094Y31528250D01*
X30454087Y31530480D01*
X30434719Y31551993D01*
X30434511Y31552224D01*
X30409445Y31574778D01*
X30381031Y31597143D01*
X30349405Y31620548D01*
X30321310Y31641335D01*
X30316698Y31649010D01*
X30317061Y31654096D01*
X30319486Y31662193D01*
X30413576Y31976425D01*
X30419231Y31983367D01*
X30428764Y31984070D01*
X30747101Y31868859D01*
G37*
%TD.AperFunction*%
%TD*%
%TA.AperFunction,Conductor*%
%TO.N,/BOOT*%
G36*
X30704192Y27329573D02*
G01*
X30707602Y27321936D01*
X30717910Y27132445D01*
X30748748Y26968673D01*
X30796673Y26833607D01*
X30858845Y26719171D01*
X30861000Y26716187D01*
X30861000Y25482129D01*
X30771443Y25389000D01*
X30442557Y25389000D01*
X30353000Y25482129D01*
X30353000Y26716188D01*
X30355154Y26719171D01*
X30417326Y26833607D01*
X30465251Y26968673D01*
X30496089Y27132445D01*
X30506398Y27321936D01*
X30510269Y27330010D01*
X30518081Y27333000D01*
X30695919Y27333000D01*
X30704192Y27329573D01*
G37*
%TD.AperFunction*%
%TD*%
%TA.AperFunction,Conductor*%
%TO.N,/power/ADC_POWER*%
G36*
X33874285Y45412835D02*
G01*
X33874467Y45412661D01*
X33910261Y45378359D01*
X33910370Y45378265D01*
X33910381Y45378255D01*
X33929479Y45361794D01*
X33949971Y45344131D01*
X33986386Y45316762D01*
X34020747Y45294936D01*
X34020955Y45294827D01*
X34020960Y45294824D01*
X34045427Y45281991D01*
X34054295Y45277340D01*
X34088270Y45262657D01*
X34088434Y45262597D01*
X34088436Y45262596D01*
X34123797Y45249616D01*
X34123808Y45249612D01*
X34123912Y45249574D01*
X34140748Y45243984D01*
X34162462Y45236774D01*
X34205160Y45222945D01*
X34205285Y45222903D01*
X34245441Y45209395D01*
X34252190Y45203510D01*
X34253409Y45198535D01*
X34259989Y44861938D01*
X34256724Y44853599D01*
X34248062Y44850011D01*
X33960870Y44855625D01*
X33911465Y44856591D01*
X33903261Y44860179D01*
X33900605Y44864559D01*
X33887096Y44904719D01*
X33887054Y44904844D01*
X33873226Y44947538D01*
X33860426Y44986088D01*
X33847343Y45021730D01*
X33832660Y45055705D01*
X33815064Y45089253D01*
X33793238Y45123614D01*
X33765869Y45160029D01*
X33732679Y45198535D01*
X33731745Y45199619D01*
X33731735Y45199630D01*
X33731641Y45199739D01*
X33724904Y45206769D01*
X33697165Y45235715D01*
X33693915Y45244059D01*
X33697339Y45252083D01*
X33857917Y45412661D01*
X33866190Y45416088D01*
X33874285Y45412835D01*
G37*
%TD.AperFunction*%
%TD*%
%TA.AperFunction,Conductor*%
%TO.N,/power/ADC_POWER*%
G36*
X31377433Y50790731D02*
G01*
X31610791Y50548068D01*
X31614056Y50539729D01*
X31612837Y50534754D01*
X31593960Y50496744D01*
X31593901Y50496627D01*
X31573521Y50456719D01*
X31555312Y50420409D01*
X31539361Y50385955D01*
X31525720Y50351549D01*
X31514440Y50315384D01*
X31505576Y50275654D01*
X31499180Y50230551D01*
X31495303Y50178269D01*
X31495300Y50178107D01*
X31494244Y50128451D01*
X31490642Y50120253D01*
X31482547Y50117000D01*
X31255453Y50117000D01*
X31247180Y50120427D01*
X31243756Y50128451D01*
X31242699Y50178107D01*
X31242696Y50178269D01*
X31238819Y50230551D01*
X31232423Y50275654D01*
X31223559Y50315384D01*
X31212279Y50351549D01*
X31198638Y50385955D01*
X31182687Y50420409D01*
X31164478Y50456719D01*
X31144098Y50496627D01*
X31144039Y50496744D01*
X31125163Y50534754D01*
X31124553Y50543688D01*
X31127209Y50548068D01*
X31360567Y50790731D01*
X31368771Y50794319D01*
X31377433Y50790731D01*
G37*
%TD.AperFunction*%
%TD*%
%TA.AperFunction,Conductor*%
%TO.N,/motor/MOTX_ENCB*%
G36*
X19118685Y41077059D02*
G01*
X19244060Y40951684D01*
X19247487Y40943411D01*
X19244310Y40935397D01*
X19209606Y40898501D01*
X19209472Y40898335D01*
X19209469Y40898332D01*
X19201618Y40888631D01*
X19176548Y40857655D01*
X19151280Y40819897D01*
X19151149Y40819650D01*
X19132299Y40784231D01*
X19132295Y40784222D01*
X19132174Y40783995D01*
X19117603Y40748722D01*
X19105937Y40712847D01*
X19105900Y40712712D01*
X19105898Y40712706D01*
X19095549Y40675142D01*
X19095537Y40675097D01*
X19084832Y40634463D01*
X19084778Y40634266D01*
X19072151Y40589528D01*
X19072025Y40589112D01*
X19058332Y40546693D01*
X19052530Y40539872D01*
X19047427Y40538589D01*
X18710938Y40532011D01*
X18702599Y40535276D01*
X18699011Y40543938D01*
X18705589Y40880427D01*
X18709177Y40888631D01*
X18713693Y40891332D01*
X18736420Y40898669D01*
X18756133Y40905033D01*
X18756507Y40905146D01*
X18779784Y40911716D01*
X18801265Y40917779D01*
X18801462Y40917833D01*
X18842141Y40928550D01*
X18868186Y40935726D01*
X18879705Y40938899D01*
X18879711Y40938901D01*
X18879846Y40938938D01*
X18879992Y40938986D01*
X18880007Y40938990D01*
X18915494Y40950530D01*
X18915498Y40950532D01*
X18915721Y40950604D01*
X18918336Y40951684D01*
X18928918Y40956055D01*
X18950994Y40965175D01*
X18951221Y40965296D01*
X18951230Y40965300D01*
X18971431Y40976051D01*
X18986896Y40984281D01*
X19024654Y41009549D01*
X19024863Y41009718D01*
X19065335Y41042473D01*
X19065342Y41042479D01*
X19065500Y41042607D01*
X19102395Y41077309D01*
X19110770Y41080481D01*
X19118685Y41077059D01*
G37*
%TD.AperFunction*%
%TD*%
%TA.AperFunction,Conductor*%
%TO.N,/motor/MOTX_ENCB*%
G36*
X22111145Y41759717D02*
G01*
X22256516Y41619920D01*
X22353731Y41526433D01*
X22357319Y41518229D01*
X22353731Y41509567D01*
X22154091Y41317582D01*
X22111146Y41276284D01*
X22102807Y41273019D01*
X22097704Y41274303D01*
X22058012Y41294624D01*
X22057630Y41294828D01*
X22046556Y41301026D01*
X22017032Y41317551D01*
X22016935Y41317606D01*
X21980559Y41338814D01*
X21946551Y41358130D01*
X21928817Y41367161D01*
X21913146Y41375142D01*
X21913137Y41375146D01*
X21912935Y41375249D01*
X21877689Y41389887D01*
X21877430Y41389966D01*
X21877422Y41389969D01*
X21860325Y41395189D01*
X21838793Y41401764D01*
X21838508Y41401820D01*
X21838502Y41401822D01*
X21794491Y41410544D01*
X21794484Y41410545D01*
X21794227Y41410596D01*
X21793967Y41410623D01*
X21793963Y41410624D01*
X21742171Y41416081D01*
X21742164Y41416081D01*
X21741969Y41416102D01*
X21723569Y41416666D01*
X21691342Y41417653D01*
X21683177Y41421332D01*
X21680000Y41429348D01*
X21680000Y41606653D01*
X21683427Y41614926D01*
X21691341Y41618348D01*
X21741969Y41619899D01*
X21742164Y41619920D01*
X21742171Y41619920D01*
X21793963Y41625377D01*
X21793967Y41625378D01*
X21794227Y41625405D01*
X21794484Y41625456D01*
X21794491Y41625457D01*
X21838502Y41634179D01*
X21838508Y41634181D01*
X21838793Y41634237D01*
X21860325Y41640812D01*
X21877422Y41646032D01*
X21877430Y41646035D01*
X21877689Y41646114D01*
X21912935Y41660752D01*
X21913137Y41660855D01*
X21913146Y41660859D01*
X21928817Y41668840D01*
X21946551Y41677871D01*
X21980559Y41697187D01*
X22016935Y41718395D01*
X22017032Y41718450D01*
X22057630Y41741173D01*
X22058012Y41741378D01*
X22081748Y41753530D01*
X22097704Y41761698D01*
X22106630Y41762417D01*
X22111145Y41759717D01*
G37*
%TD.AperFunction*%
%TD*%
%TA.AperFunction,Conductor*%
%TO.N,/motor/MOTX_ENCA*%
G36*
X23140610Y42564160D02*
G01*
X23144198Y42555956D01*
X23143820Y42552770D01*
X23052583Y42203474D01*
X23047177Y42196336D01*
X23042292Y42194776D01*
X22999219Y42190978D01*
X22998683Y42190824D01*
X22998678Y42190823D01*
X22959086Y42179442D01*
X22956520Y42178704D01*
X22919994Y42160616D01*
X22887233Y42138652D01*
X22887081Y42138536D01*
X22855910Y42114812D01*
X22855762Y42114701D01*
X22823774Y42091143D01*
X22822940Y42090583D01*
X22788163Y42069315D01*
X22786707Y42068559D01*
X22746580Y42051187D01*
X22744718Y42050561D01*
X22696572Y42038755D01*
X22694655Y42038450D01*
X22647452Y42034936D01*
X22638947Y42037739D01*
X22634883Y42046604D01*
X22634883Y42223536D01*
X22638310Y42231809D01*
X22645282Y42235163D01*
X22680998Y42239159D01*
X22681001Y42239160D01*
X22681879Y42239258D01*
X22715791Y42254147D01*
X22738907Y42277341D01*
X22753516Y42307511D01*
X22761909Y42343332D01*
X22766373Y42383477D01*
X22769198Y42426617D01*
X22772644Y42471051D01*
X22772725Y42471792D01*
X22778992Y42515904D01*
X22779262Y42517240D01*
X22788479Y42552205D01*
X22793902Y42559332D01*
X22799563Y42560921D01*
X23132271Y42567425D01*
X23140610Y42564160D01*
G37*
%TD.AperFunction*%
%TD*%
%TA.AperFunction,Conductor*%
%TO.N,/motor/MOTX_ENCA*%
G36*
X18991685Y41966059D02*
G01*
X19117060Y41840684D01*
X19120487Y41832411D01*
X19117310Y41824397D01*
X19082606Y41787501D01*
X19082472Y41787335D01*
X19082469Y41787332D01*
X19074618Y41777631D01*
X19049548Y41746655D01*
X19024280Y41708897D01*
X19024149Y41708650D01*
X19005299Y41673231D01*
X19005295Y41673222D01*
X19005174Y41672995D01*
X18990603Y41637722D01*
X18978937Y41601847D01*
X18978900Y41601712D01*
X18978898Y41601706D01*
X18968549Y41564142D01*
X18968537Y41564097D01*
X18957832Y41523463D01*
X18957778Y41523266D01*
X18945151Y41478528D01*
X18945025Y41478112D01*
X18931332Y41435693D01*
X18925530Y41428872D01*
X18920427Y41427589D01*
X18583938Y41421011D01*
X18575599Y41424276D01*
X18572011Y41432938D01*
X18578589Y41769427D01*
X18582177Y41777631D01*
X18586693Y41780332D01*
X18609420Y41787669D01*
X18629133Y41794033D01*
X18629507Y41794146D01*
X18652784Y41800716D01*
X18674265Y41806779D01*
X18674462Y41806833D01*
X18715141Y41817550D01*
X18741186Y41824726D01*
X18752705Y41827899D01*
X18752711Y41827901D01*
X18752846Y41827938D01*
X18752992Y41827986D01*
X18753007Y41827990D01*
X18788494Y41839530D01*
X18788498Y41839532D01*
X18788721Y41839604D01*
X18791336Y41840684D01*
X18801918Y41845055D01*
X18823994Y41854175D01*
X18824221Y41854296D01*
X18824230Y41854300D01*
X18844431Y41865051D01*
X18859896Y41873281D01*
X18897654Y41898549D01*
X18897863Y41898718D01*
X18938335Y41931473D01*
X18938342Y41931479D01*
X18938500Y41931607D01*
X18975395Y41966309D01*
X18983770Y41969481D01*
X18991685Y41966059D01*
G37*
%TD.AperFunction*%
%TD*%
%TA.AperFunction,Conductor*%
%TO.N,/motor/MOTX_IN1*%
G36*
X18796296Y42777698D02*
G01*
X18835987Y42757378D01*
X18836369Y42757173D01*
X18876967Y42734450D01*
X18877064Y42734395D01*
X18913440Y42713187D01*
X18947448Y42693871D01*
X18965182Y42684840D01*
X18980853Y42676859D01*
X18980862Y42676855D01*
X18981064Y42676752D01*
X19016310Y42662114D01*
X19016569Y42662035D01*
X19016577Y42662032D01*
X19033674Y42656812D01*
X19055206Y42650237D01*
X19055491Y42650181D01*
X19055497Y42650179D01*
X19099508Y42641457D01*
X19099515Y42641456D01*
X19099772Y42641405D01*
X19100032Y42641378D01*
X19100036Y42641377D01*
X19151828Y42635920D01*
X19151835Y42635920D01*
X19152030Y42635899D01*
X19202659Y42634348D01*
X19210823Y42630669D01*
X19214000Y42622653D01*
X19214000Y42445348D01*
X19210573Y42437075D01*
X19202658Y42433653D01*
X19170596Y42432671D01*
X19152030Y42432102D01*
X19151835Y42432081D01*
X19151828Y42432081D01*
X19100036Y42426624D01*
X19100032Y42426623D01*
X19099772Y42426596D01*
X19099515Y42426545D01*
X19099508Y42426544D01*
X19055497Y42417822D01*
X19055491Y42417820D01*
X19055206Y42417764D01*
X19033674Y42411189D01*
X19016577Y42405969D01*
X19016569Y42405966D01*
X19016310Y42405887D01*
X18981064Y42391249D01*
X18980862Y42391146D01*
X18980853Y42391142D01*
X18965182Y42383161D01*
X18947448Y42374130D01*
X18913440Y42354814D01*
X18877064Y42333606D01*
X18876967Y42333551D01*
X18836348Y42310816D01*
X18835966Y42310612D01*
X18796297Y42290303D01*
X18787371Y42289583D01*
X18782855Y42292284D01*
X18540269Y42525567D01*
X18536681Y42533771D01*
X18540269Y42542433D01*
X18623688Y42622653D01*
X18782855Y42775716D01*
X18791193Y42778981D01*
X18796296Y42777698D01*
G37*
%TD.AperFunction*%
%TD*%
%TA.AperFunction,Conductor*%
%TO.N,/motor/MOTX_IN1*%
G36*
X23207401Y43516724D02*
G01*
X23210989Y43508062D01*
X23204411Y43171573D01*
X23200823Y43163369D01*
X23196307Y43160668D01*
X23180574Y43155589D01*
X23153866Y43146968D01*
X23153492Y43146855D01*
X23130215Y43140285D01*
X23108734Y43134222D01*
X23108537Y43134168D01*
X23067858Y43123451D01*
X23030294Y43113102D01*
X23030288Y43113100D01*
X23030153Y43113063D01*
X23030007Y43113015D01*
X23029992Y43113011D01*
X22994505Y43101471D01*
X22994501Y43101469D01*
X22994278Y43101397D01*
X22994071Y43101311D01*
X22994067Y43101310D01*
X22981081Y43095946D01*
X22959005Y43086826D01*
X22958778Y43086705D01*
X22958769Y43086701D01*
X22938568Y43075950D01*
X22923103Y43067720D01*
X22885345Y43042452D01*
X22844499Y43009394D01*
X22807603Y42974690D01*
X22799231Y42971518D01*
X22791316Y42974940D01*
X22665941Y43100315D01*
X22662514Y43108588D01*
X22665691Y43116604D01*
X22700245Y43153343D01*
X22700393Y43153500D01*
X22706195Y43160668D01*
X22733282Y43194137D01*
X22733284Y43194139D01*
X22733451Y43194346D01*
X22758719Y43232104D01*
X22766949Y43247569D01*
X22777700Y43267770D01*
X22777704Y43267779D01*
X22777825Y43268006D01*
X22792396Y43303279D01*
X22804062Y43339154D01*
X22814450Y43376859D01*
X22825167Y43417538D01*
X22825221Y43417735D01*
X22837848Y43462473D01*
X22837974Y43462889D01*
X22851668Y43505307D01*
X22857471Y43512128D01*
X22862573Y43513411D01*
X23199062Y43519989D01*
X23207401Y43516724D01*
G37*
%TD.AperFunction*%
%TD*%
%TA.AperFunction,Conductor*%
%TO.N,/motor/MOTX_IN2*%
G36*
X18669296Y43666698D02*
G01*
X18708987Y43646378D01*
X18709369Y43646173D01*
X18749967Y43623450D01*
X18750064Y43623395D01*
X18786440Y43602187D01*
X18820448Y43582871D01*
X18838182Y43573840D01*
X18853853Y43565859D01*
X18853862Y43565855D01*
X18854064Y43565752D01*
X18889310Y43551114D01*
X18889569Y43551035D01*
X18889577Y43551032D01*
X18906674Y43545812D01*
X18928206Y43539237D01*
X18928491Y43539181D01*
X18928497Y43539179D01*
X18972508Y43530457D01*
X18972515Y43530456D01*
X18972772Y43530405D01*
X18973032Y43530378D01*
X18973036Y43530377D01*
X19024828Y43524920D01*
X19024835Y43524920D01*
X19025030Y43524899D01*
X19075659Y43523348D01*
X19083823Y43519669D01*
X19087000Y43511653D01*
X19087000Y43334348D01*
X19083573Y43326075D01*
X19075658Y43322653D01*
X19043596Y43321671D01*
X19025030Y43321102D01*
X19024835Y43321081D01*
X19024828Y43321081D01*
X18973036Y43315624D01*
X18973032Y43315623D01*
X18972772Y43315596D01*
X18972515Y43315545D01*
X18972508Y43315544D01*
X18928497Y43306822D01*
X18928491Y43306820D01*
X18928206Y43306764D01*
X18906674Y43300189D01*
X18889577Y43294969D01*
X18889569Y43294966D01*
X18889310Y43294887D01*
X18854064Y43280249D01*
X18853862Y43280146D01*
X18853853Y43280142D01*
X18838182Y43272161D01*
X18820448Y43263130D01*
X18786440Y43243814D01*
X18750064Y43222606D01*
X18749967Y43222551D01*
X18709348Y43199816D01*
X18708966Y43199612D01*
X18669297Y43179303D01*
X18660371Y43178583D01*
X18655855Y43181284D01*
X18413269Y43414567D01*
X18409681Y43422771D01*
X18413269Y43431433D01*
X18496688Y43511653D01*
X18655855Y43664716D01*
X18664193Y43667981D01*
X18669296Y43666698D01*
G37*
%TD.AperFunction*%
%TD*%
%TA.AperFunction,Conductor*%
%TO.N,/motor/MOTX_IN2*%
G36*
X23204972Y44340178D02*
G01*
X23208560Y44331516D01*
X23201982Y43995027D01*
X23198394Y43986823D01*
X23193878Y43984122D01*
X23178145Y43979043D01*
X23151437Y43970422D01*
X23151063Y43970309D01*
X23127786Y43963739D01*
X23106305Y43957676D01*
X23106108Y43957622D01*
X23065429Y43946905D01*
X23027865Y43936556D01*
X23027859Y43936554D01*
X23027724Y43936517D01*
X23027578Y43936469D01*
X23027563Y43936465D01*
X22992076Y43924925D01*
X22992072Y43924923D01*
X22991849Y43924851D01*
X22991642Y43924765D01*
X22991638Y43924764D01*
X22978652Y43919400D01*
X22956576Y43910280D01*
X22956349Y43910159D01*
X22956340Y43910155D01*
X22936139Y43899404D01*
X22920674Y43891174D01*
X22882916Y43865906D01*
X22842070Y43832848D01*
X22805174Y43798144D01*
X22796802Y43794972D01*
X22788887Y43798394D01*
X22663512Y43923769D01*
X22660085Y43932042D01*
X22663262Y43940058D01*
X22697816Y43976797D01*
X22697964Y43976954D01*
X22703766Y43984122D01*
X22730853Y44017591D01*
X22730855Y44017593D01*
X22731022Y44017800D01*
X22756290Y44055558D01*
X22764520Y44071023D01*
X22775271Y44091224D01*
X22775275Y44091233D01*
X22775396Y44091460D01*
X22789967Y44126733D01*
X22801633Y44162608D01*
X22812021Y44200313D01*
X22822738Y44240992D01*
X22822792Y44241189D01*
X22835419Y44285927D01*
X22835545Y44286343D01*
X22849239Y44328761D01*
X22855042Y44335582D01*
X22860144Y44336865D01*
X23196633Y44343443D01*
X23204972Y44340178D01*
G37*
%TD.AperFunction*%
%TD*%
%TA.AperFunction,Conductor*%
%TO.N,/MOTY_IN1*%
G36*
X18796296Y44428698D02*
G01*
X18835987Y44408378D01*
X18836369Y44408173D01*
X18876967Y44385450D01*
X18877064Y44385395D01*
X18913440Y44364187D01*
X18947448Y44344871D01*
X18965182Y44335840D01*
X18980853Y44327859D01*
X18980862Y44327855D01*
X18981064Y44327752D01*
X19016310Y44313114D01*
X19016569Y44313035D01*
X19016577Y44313032D01*
X19033674Y44307812D01*
X19055206Y44301237D01*
X19055491Y44301181D01*
X19055497Y44301179D01*
X19099508Y44292457D01*
X19099515Y44292456D01*
X19099772Y44292405D01*
X19100032Y44292378D01*
X19100036Y44292377D01*
X19151828Y44286920D01*
X19151835Y44286920D01*
X19152030Y44286899D01*
X19202659Y44285348D01*
X19210823Y44281669D01*
X19214000Y44273653D01*
X19214000Y44096348D01*
X19210573Y44088075D01*
X19202658Y44084653D01*
X19170596Y44083671D01*
X19152030Y44083102D01*
X19151835Y44083081D01*
X19151828Y44083081D01*
X19100036Y44077624D01*
X19100032Y44077623D01*
X19099772Y44077596D01*
X19099515Y44077545D01*
X19099508Y44077544D01*
X19055497Y44068822D01*
X19055491Y44068820D01*
X19055206Y44068764D01*
X19033674Y44062189D01*
X19016577Y44056969D01*
X19016569Y44056966D01*
X19016310Y44056887D01*
X18981064Y44042249D01*
X18980862Y44042146D01*
X18980853Y44042142D01*
X18965182Y44034161D01*
X18947448Y44025130D01*
X18913440Y44005814D01*
X18877064Y43984606D01*
X18876967Y43984551D01*
X18836348Y43961816D01*
X18835966Y43961612D01*
X18796297Y43941303D01*
X18787371Y43940583D01*
X18782855Y43943284D01*
X18540269Y44176567D01*
X18536681Y44184771D01*
X18540269Y44193433D01*
X18623688Y44273653D01*
X18782855Y44426716D01*
X18791193Y44429981D01*
X18796296Y44428698D01*
G37*
%TD.AperFunction*%
%TD*%
%TA.AperFunction,Conductor*%
%TO.N,/MOTY_IN1*%
G36*
X22188110Y44593160D02*
G01*
X22191698Y44584956D01*
X22191320Y44581770D01*
X22111054Y44274473D01*
X22100111Y44232580D01*
X22094705Y44225442D01*
X22089674Y44223870D01*
X22046361Y44220594D01*
X22045896Y44220481D01*
X22045893Y44220480D01*
X22003389Y44210102D01*
X22003385Y44210101D01*
X22002940Y44209992D01*
X21965420Y44194368D01*
X21931481Y44175396D01*
X21898807Y44154750D01*
X21879641Y44143018D01*
X21865462Y44134339D01*
X21864681Y44133901D01*
X21828616Y44115459D01*
X21827302Y44114886D01*
X21785984Y44099798D01*
X21784361Y44099335D01*
X21735207Y44089076D01*
X21733563Y44088853D01*
X21730966Y44088687D01*
X21685716Y44085795D01*
X21677242Y44088687D01*
X21673271Y44097471D01*
X21673271Y44274473D01*
X21676698Y44282746D01*
X21683739Y44286108D01*
X21717882Y44289722D01*
X21717886Y44289723D01*
X21718699Y44289809D01*
X21719460Y44290118D01*
X21719462Y44290118D01*
X21751426Y44303073D01*
X21751425Y44303073D01*
X21752359Y44303451D01*
X21776254Y44324754D01*
X21792384Y44352542D01*
X21802753Y44385643D01*
X21809361Y44422883D01*
X21814211Y44463087D01*
X21819271Y44504800D01*
X21819356Y44505377D01*
X21826545Y44547121D01*
X21826795Y44548243D01*
X21835911Y44581329D01*
X21841413Y44588395D01*
X21846961Y44589919D01*
X22179771Y44596425D01*
X22188110Y44593160D01*
G37*
%TD.AperFunction*%
%TD*%
%TA.AperFunction,Conductor*%
%TO.N,/MOTY_IN2*%
G36*
X18923296Y45317698D02*
G01*
X18962987Y45297378D01*
X18963369Y45297173D01*
X19003967Y45274450D01*
X19004064Y45274395D01*
X19040440Y45253187D01*
X19074448Y45233871D01*
X19092182Y45224840D01*
X19107853Y45216859D01*
X19107862Y45216855D01*
X19108064Y45216752D01*
X19143310Y45202114D01*
X19143569Y45202035D01*
X19143577Y45202032D01*
X19160674Y45196812D01*
X19182206Y45190237D01*
X19182491Y45190181D01*
X19182497Y45190179D01*
X19226508Y45181457D01*
X19226515Y45181456D01*
X19226772Y45181405D01*
X19227032Y45181378D01*
X19227036Y45181377D01*
X19278828Y45175920D01*
X19278835Y45175920D01*
X19279030Y45175899D01*
X19329659Y45174348D01*
X19337823Y45170669D01*
X19341000Y45162653D01*
X19341000Y44985348D01*
X19337573Y44977075D01*
X19329658Y44973653D01*
X19297596Y44972671D01*
X19279030Y44972102D01*
X19278835Y44972081D01*
X19278828Y44972081D01*
X19227036Y44966624D01*
X19227032Y44966623D01*
X19226772Y44966596D01*
X19226515Y44966545D01*
X19226508Y44966544D01*
X19182497Y44957822D01*
X19182491Y44957820D01*
X19182206Y44957764D01*
X19160674Y44951189D01*
X19143577Y44945969D01*
X19143569Y44945966D01*
X19143310Y44945887D01*
X19108064Y44931249D01*
X19107862Y44931146D01*
X19107853Y44931142D01*
X19092182Y44923161D01*
X19074448Y44914130D01*
X19040440Y44894814D01*
X19004064Y44873606D01*
X19003967Y44873551D01*
X18963348Y44850816D01*
X18962966Y44850612D01*
X18923297Y44830303D01*
X18914371Y44829583D01*
X18909855Y44832284D01*
X18667269Y45065567D01*
X18663681Y45073771D01*
X18667269Y45082433D01*
X18750688Y45162653D01*
X18909855Y45315716D01*
X18918193Y45318981D01*
X18923296Y45317698D01*
G37*
%TD.AperFunction*%
%TD*%
%TA.AperFunction,Conductor*%
%TO.N,/MOTY_IN2*%
G36*
X22718088Y45482160D02*
G01*
X22721676Y45473956D01*
X22721298Y45470770D01*
X22641032Y45163473D01*
X22630089Y45121580D01*
X22624683Y45114442D01*
X22619652Y45112870D01*
X22576339Y45109594D01*
X22575874Y45109481D01*
X22575871Y45109480D01*
X22533367Y45099102D01*
X22533363Y45099101D01*
X22532918Y45098992D01*
X22495398Y45083368D01*
X22461459Y45064396D01*
X22428785Y45043750D01*
X22409619Y45032018D01*
X22395440Y45023339D01*
X22394659Y45022901D01*
X22358594Y45004459D01*
X22357280Y45003886D01*
X22315962Y44988798D01*
X22314339Y44988335D01*
X22265185Y44978076D01*
X22263541Y44977853D01*
X22260944Y44977687D01*
X22215694Y44974795D01*
X22207220Y44977687D01*
X22203249Y44986471D01*
X22203249Y45163473D01*
X22206676Y45171746D01*
X22213717Y45175108D01*
X22247860Y45178722D01*
X22247864Y45178723D01*
X22248677Y45178809D01*
X22249438Y45179118D01*
X22249440Y45179118D01*
X22281404Y45192073D01*
X22281403Y45192073D01*
X22282337Y45192451D01*
X22306232Y45213754D01*
X22322362Y45241542D01*
X22332731Y45274643D01*
X22339339Y45311883D01*
X22344189Y45352087D01*
X22349249Y45393800D01*
X22349334Y45394377D01*
X22356523Y45436121D01*
X22356773Y45437243D01*
X22365889Y45470329D01*
X22371391Y45477395D01*
X22376939Y45478919D01*
X22709749Y45485425D01*
X22718088Y45482160D01*
G37*
%TD.AperFunction*%
%TD*%
%TA.AperFunction,Conductor*%
%TO.N,VCC*%
G36*
X5808401Y33737724D02*
G01*
X5811989Y33729062D01*
X5805404Y33392219D01*
X5801816Y33384015D01*
X5797750Y33381469D01*
X5763627Y33368900D01*
X5763512Y33368851D01*
X5763506Y33368849D01*
X5726745Y33353305D01*
X5726731Y33353299D01*
X5726583Y33353236D01*
X5726435Y33353163D01*
X5726427Y33353159D01*
X5708941Y33344495D01*
X5692935Y33336565D01*
X5692788Y33336479D01*
X5692784Y33336477D01*
X5661673Y33318310D01*
X5661667Y33318306D01*
X5661504Y33318211D01*
X5631110Y33297497D01*
X5630971Y33297389D01*
X5630956Y33297378D01*
X5604119Y33276507D01*
X5600571Y33273748D01*
X5600460Y33273652D01*
X5568791Y33246361D01*
X5568779Y33246350D01*
X5568708Y33246289D01*
X5534340Y33214442D01*
X5534322Y33214425D01*
X5534298Y33214402D01*
X5496288Y33177533D01*
X5461644Y33143105D01*
X5453362Y33139704D01*
X5445125Y33143131D01*
X5214131Y33374125D01*
X5210704Y33382398D01*
X5214105Y33390645D01*
X5248532Y33425289D01*
X5248575Y33425333D01*
X5285401Y33463299D01*
X5285424Y33463323D01*
X5285441Y33463341D01*
X5317288Y33497709D01*
X5344747Y33529572D01*
X5347506Y33533120D01*
X5368377Y33559957D01*
X5368388Y33559972D01*
X5368496Y33560111D01*
X5389210Y33590505D01*
X5407564Y33621936D01*
X5424235Y33655584D01*
X5439899Y33692628D01*
X5452469Y33726750D01*
X5458545Y33733329D01*
X5463219Y33734404D01*
X5800062Y33740989D01*
X5808401Y33737724D01*
G37*
%TD.AperFunction*%
%TD*%
%TA.AperFunction,Conductor*%
%TO.N,VCC*%
G36*
X1397120Y33380153D02*
G01*
X1430140Y33364911D01*
X1467411Y33349793D01*
X1467570Y33349739D01*
X1467579Y33349736D01*
X1502798Y33337854D01*
X1502991Y33337789D01*
X1538195Y33328542D01*
X1551351Y33326050D01*
X1574180Y33321725D01*
X1574186Y33321724D01*
X1574334Y33321696D01*
X1574475Y33321678D01*
X1574490Y33321676D01*
X1605276Y33317826D01*
X1612721Y33316895D01*
X1612853Y33316885D01*
X1612855Y33316885D01*
X1627596Y33315791D01*
X1654669Y33313781D01*
X1676930Y33312934D01*
X1701458Y33312000D01*
X1701485Y33311999D01*
X1701493Y33311999D01*
X1701525Y33311998D01*
X1730345Y33311559D01*
X1754496Y33311191D01*
X1803337Y33311037D01*
X1811599Y33307584D01*
X1815000Y33299337D01*
X1815000Y32972663D01*
X1811573Y32964390D01*
X1803338Y32960963D01*
X1754496Y32960810D01*
X1730345Y32960442D01*
X1701525Y32960003D01*
X1701493Y32960002D01*
X1701485Y32960002D01*
X1701458Y32960001D01*
X1676930Y32959067D01*
X1654669Y32958220D01*
X1627596Y32956210D01*
X1612855Y32955116D01*
X1612853Y32955116D01*
X1612721Y32955106D01*
X1605276Y32954175D01*
X1574490Y32950325D01*
X1574475Y32950323D01*
X1574334Y32950305D01*
X1574186Y32950277D01*
X1574180Y32950276D01*
X1551351Y32945951D01*
X1538195Y32943459D01*
X1502991Y32934212D01*
X1502801Y32934148D01*
X1502798Y32934147D01*
X1467579Y32922265D01*
X1467570Y32922262D01*
X1467411Y32922208D01*
X1430140Y32907090D01*
X1430054Y32907050D01*
X1430044Y32907046D01*
X1397123Y32891849D01*
X1388175Y32891493D01*
X1384109Y32894039D01*
X1370495Y32907131D01*
X1141269Y33127567D01*
X1137681Y33135771D01*
X1141269Y33144433D01*
X1314517Y33311037D01*
X1384110Y33377962D01*
X1392449Y33381227D01*
X1397120Y33380153D01*
G37*
%TD.AperFunction*%
%TD*%
%TA.AperFunction,Conductor*%
%TO.N,VCC*%
G36*
X8255296Y40872698D02*
G01*
X8294987Y40852378D01*
X8295369Y40852173D01*
X8335967Y40829450D01*
X8336064Y40829395D01*
X8372440Y40808187D01*
X8406448Y40788871D01*
X8424182Y40779840D01*
X8439853Y40771859D01*
X8439862Y40771855D01*
X8440064Y40771752D01*
X8475310Y40757114D01*
X8475569Y40757035D01*
X8475577Y40757032D01*
X8492674Y40751812D01*
X8514206Y40745237D01*
X8514491Y40745181D01*
X8514497Y40745179D01*
X8558508Y40736457D01*
X8558515Y40736456D01*
X8558772Y40736405D01*
X8559032Y40736378D01*
X8559036Y40736377D01*
X8610828Y40730920D01*
X8610835Y40730920D01*
X8611030Y40730899D01*
X8661659Y40729348D01*
X8669823Y40725669D01*
X8673000Y40717653D01*
X8673000Y40540348D01*
X8669573Y40532075D01*
X8661658Y40528653D01*
X8629596Y40527671D01*
X8611030Y40527102D01*
X8610835Y40527081D01*
X8610828Y40527081D01*
X8559036Y40521624D01*
X8559032Y40521623D01*
X8558772Y40521596D01*
X8558515Y40521545D01*
X8558508Y40521544D01*
X8514497Y40512822D01*
X8514491Y40512820D01*
X8514206Y40512764D01*
X8492674Y40506189D01*
X8475577Y40500969D01*
X8475569Y40500966D01*
X8475310Y40500887D01*
X8440064Y40486249D01*
X8439862Y40486146D01*
X8439853Y40486142D01*
X8424182Y40478161D01*
X8406448Y40469130D01*
X8372440Y40449814D01*
X8336064Y40428606D01*
X8335967Y40428551D01*
X8295348Y40405816D01*
X8294966Y40405612D01*
X8255297Y40385303D01*
X8246371Y40384583D01*
X8241855Y40387284D01*
X7999269Y40620567D01*
X7995681Y40628771D01*
X7999269Y40637433D01*
X8082688Y40717653D01*
X8241855Y40870716D01*
X8250193Y40873981D01*
X8255296Y40872698D01*
G37*
%TD.AperFunction*%
%TD*%
%TA.AperFunction,Conductor*%
%TO.N,VCC*%
G36*
X11377604Y40442309D02*
G01*
X11414342Y40407754D01*
X11414352Y40407745D01*
X11414499Y40407607D01*
X11414657Y40407479D01*
X11414664Y40407473D01*
X11455136Y40374718D01*
X11455345Y40374549D01*
X11493103Y40349281D01*
X11508568Y40341051D01*
X11528769Y40330300D01*
X11528778Y40330296D01*
X11529005Y40330175D01*
X11564278Y40315604D01*
X11564501Y40315532D01*
X11564505Y40315530D01*
X11599992Y40303990D01*
X11600007Y40303986D01*
X11600153Y40303938D01*
X11600288Y40303901D01*
X11600294Y40303899D01*
X11611813Y40300726D01*
X11637858Y40293550D01*
X11678537Y40282833D01*
X11678734Y40282779D01*
X11700215Y40276716D01*
X11723492Y40270146D01*
X11723866Y40270033D01*
X11743614Y40263658D01*
X11766307Y40256332D01*
X11773128Y40250529D01*
X11774411Y40245427D01*
X11780989Y39908938D01*
X11777724Y39900599D01*
X11769062Y39897011D01*
X11432573Y39903589D01*
X11424369Y39907177D01*
X11421668Y39911693D01*
X11407974Y39954112D01*
X11407848Y39954528D01*
X11395221Y39999266D01*
X11395167Y39999463D01*
X11384450Y40040142D01*
X11374101Y40077706D01*
X11374099Y40077712D01*
X11374062Y40077847D01*
X11362396Y40113722D01*
X11347825Y40148995D01*
X11347704Y40149222D01*
X11347700Y40149231D01*
X11328850Y40184650D01*
X11328719Y40184897D01*
X11303451Y40222655D01*
X11280892Y40250529D01*
X11270527Y40263336D01*
X11270521Y40263343D01*
X11270393Y40263501D01*
X11270255Y40263648D01*
X11270246Y40263658D01*
X11235691Y40300396D01*
X11232519Y40308770D01*
X11235941Y40316685D01*
X11361315Y40442059D01*
X11369588Y40445486D01*
X11377604Y40442309D01*
G37*
%TD.AperFunction*%
%TD*%
%TA.AperFunction,Conductor*%
%TO.N,/motor/MOTY_ENCB*%
G36*
X21984259Y46204607D02*
G01*
X22172114Y46023956D01*
X22224358Y45973715D01*
X22227946Y45965511D01*
X22224681Y45957172D01*
X22222162Y45955187D01*
X21910948Y45772882D01*
X21902077Y45771657D01*
X21897186Y45774300D01*
X21864633Y45803744D01*
X21864628Y45803748D01*
X21864397Y45803957D01*
X21827506Y45830701D01*
X21827246Y45830851D01*
X21827240Y45830855D01*
X21792323Y45851016D01*
X21792119Y45851134D01*
X21757483Y45867612D01*
X21757373Y45867659D01*
X21757356Y45867667D01*
X21722844Y45882491D01*
X21687740Y45897997D01*
X21687174Y45898266D01*
X21650986Y45916647D01*
X21650142Y45917121D01*
X21611861Y45940785D01*
X21610937Y45941419D01*
X21569634Y45972787D01*
X21568795Y45973489D01*
X21561300Y45980374D01*
X21532242Y46007068D01*
X21528468Y46015187D01*
X21531884Y46023956D01*
X21657116Y46149188D01*
X21665389Y46152615D01*
X21672883Y46149900D01*
X21691995Y46133959D01*
X21697518Y46129352D01*
X21728871Y46113552D01*
X21729662Y46113400D01*
X21729665Y46113399D01*
X21745956Y46110269D01*
X21759169Y46107730D01*
X21780953Y46109594D01*
X21788204Y46110214D01*
X21788205Y46110214D01*
X21788846Y46110269D01*
X21799276Y46113552D01*
X21817925Y46119422D01*
X21817928Y46119423D01*
X21818334Y46119551D01*
X21848067Y46133959D01*
X21848249Y46134066D01*
X21848258Y46134071D01*
X21878412Y46151835D01*
X21878480Y46151875D01*
X21909924Y46171631D01*
X21910076Y46171725D01*
X21914198Y46174228D01*
X21942826Y46191610D01*
X21943329Y46191897D01*
X21970635Y46206493D01*
X21979545Y46207370D01*
X21984259Y46204607D01*
G37*
%TD.AperFunction*%
%TD*%
%TA.AperFunction,Conductor*%
%TO.N,/motor/MOTY_ENCB*%
G36*
X19682427Y48339411D02*
G01*
X19690631Y48335823D01*
X19693332Y48331307D01*
X19707025Y48288889D01*
X19707151Y48288473D01*
X19719778Y48243735D01*
X19719832Y48243538D01*
X19730549Y48202859D01*
X19740937Y48165154D01*
X19752603Y48129279D01*
X19767174Y48094006D01*
X19767295Y48093779D01*
X19767299Y48093770D01*
X19778050Y48073569D01*
X19786280Y48058104D01*
X19811548Y48020346D01*
X19811715Y48020139D01*
X19811717Y48020137D01*
X19838805Y47986668D01*
X19844606Y47979500D01*
X19844744Y47979353D01*
X19844753Y47979343D01*
X19879309Y47942604D01*
X19882481Y47934230D01*
X19879059Y47926315D01*
X19753685Y47800941D01*
X19745412Y47797514D01*
X19737396Y47800691D01*
X19700657Y47835247D01*
X19700647Y47835256D01*
X19700500Y47835394D01*
X19700342Y47835522D01*
X19700335Y47835528D01*
X19659863Y47868283D01*
X19659861Y47868285D01*
X19659654Y47868452D01*
X19621896Y47893720D01*
X19606431Y47901950D01*
X19586230Y47912701D01*
X19586221Y47912705D01*
X19585994Y47912826D01*
X19563918Y47921946D01*
X19550932Y47927310D01*
X19550928Y47927311D01*
X19550721Y47927397D01*
X19550498Y47927469D01*
X19550494Y47927471D01*
X19515007Y47939011D01*
X19514992Y47939015D01*
X19514846Y47939063D01*
X19514711Y47939100D01*
X19514705Y47939102D01*
X19477141Y47949451D01*
X19436462Y47960168D01*
X19436265Y47960222D01*
X19414784Y47966285D01*
X19391507Y47972855D01*
X19391133Y47972968D01*
X19366232Y47981006D01*
X19348693Y47986668D01*
X19341872Y47992470D01*
X19340589Y47997573D01*
X19334011Y48334062D01*
X19337276Y48342401D01*
X19345938Y48345989D01*
X19682427Y48339411D01*
G37*
%TD.AperFunction*%
%TD*%
%TA.AperFunction,Conductor*%
%TO.N,V_SUPPLY*%
G36*
X23630433Y55489731D02*
G01*
X23864075Y55246772D01*
X23867340Y55238433D01*
X23866357Y55233963D01*
X23853916Y55205595D01*
X23853911Y55205583D01*
X23853821Y55205377D01*
X23841886Y55170635D01*
X23833200Y55135963D01*
X23827271Y55100417D01*
X23823607Y55063055D01*
X23821714Y55022934D01*
X23821713Y55022867D01*
X23821713Y55022865D01*
X23821100Y54979111D01*
X23821100Y54979013D01*
X23821271Y54930644D01*
X23821735Y54876637D01*
X23821735Y54876587D01*
X23821949Y54827751D01*
X23818558Y54819463D01*
X23810249Y54816000D01*
X23433751Y54816000D01*
X23425478Y54819427D01*
X23422051Y54827751D01*
X23422264Y54876538D01*
X23422264Y54876587D01*
X23422728Y54930643D01*
X23422899Y54979111D01*
X23422898Y54979218D01*
X23422286Y55022865D01*
X23422286Y55022867D01*
X23422285Y55022934D01*
X23420392Y55063055D01*
X23416728Y55100417D01*
X23410799Y55135963D01*
X23402113Y55170635D01*
X23390178Y55205377D01*
X23390088Y55205583D01*
X23390083Y55205595D01*
X23377643Y55233963D01*
X23377459Y55242916D01*
X23379925Y55246772D01*
X23613567Y55489731D01*
X23621771Y55493319D01*
X23630433Y55489731D01*
G37*
%TD.AperFunction*%
%TD*%
%TA.AperFunction,Conductor*%
%TO.N,V_SUPPLY*%
G36*
X10610522Y45234573D02*
G01*
X10613949Y45226250D01*
X10613735Y45177414D01*
X10613271Y45123358D01*
X10613100Y45074890D01*
X10613714Y45031067D01*
X10615607Y44990946D01*
X10619271Y44953584D01*
X10625200Y44918038D01*
X10633886Y44883366D01*
X10645821Y44848624D01*
X10645911Y44848418D01*
X10645916Y44848406D01*
X10658357Y44820037D01*
X10658541Y44811084D01*
X10656075Y44807228D01*
X10422433Y44564269D01*
X10414229Y44560681D01*
X10405567Y44564269D01*
X10171925Y44807228D01*
X10168660Y44815567D01*
X10169643Y44820036D01*
X10182075Y44848389D01*
X10182082Y44848406D01*
X10182178Y44848624D01*
X10194113Y44883366D01*
X10202799Y44918038D01*
X10208728Y44953584D01*
X10212392Y44990946D01*
X10214285Y45031067D01*
X10214899Y45074890D01*
X10214728Y45123358D01*
X10214264Y45177414D01*
X10214051Y45226249D01*
X10217442Y45234537D01*
X10225751Y45238000D01*
X10602249Y45238000D01*
X10610522Y45234573D01*
G37*
%TD.AperFunction*%
%TD*%
%TA.AperFunction,Conductor*%
%TO.N,GND*%
G36*
X37987103Y60743079D02*
G01*
X38000000Y60740514D01*
X38012172Y60742935D01*
X38024579Y60742935D01*
X38024579Y60742295D01*
X38035358Y60742971D01*
X38219248Y60729819D01*
X38239420Y60728376D01*
X38257214Y60725818D01*
X38482960Y60676710D01*
X38500209Y60671645D01*
X38555356Y60651077D01*
X38716670Y60590910D01*
X38733017Y60583444D01*
X38935782Y60472725D01*
X38950905Y60463006D01*
X39135848Y60324559D01*
X39149434Y60312786D01*
X39312786Y60149434D01*
X39324559Y60135848D01*
X39463006Y59950905D01*
X39472725Y59935782D01*
X39583444Y59733017D01*
X39590910Y59716670D01*
X39651077Y59555356D01*
X39671645Y59500209D01*
X39676710Y59482960D01*
X39725818Y59257214D01*
X39728376Y59239420D01*
X39742971Y59035361D01*
X39742295Y59024579D01*
X39742935Y59024579D01*
X39742935Y59012172D01*
X39740514Y59000000D01*
X39742935Y58987830D01*
X39743079Y58987106D01*
X39745500Y58962524D01*
X39745500Y2037476D01*
X39743079Y2012897D01*
X39740514Y2000000D01*
X39742935Y1987828D01*
X39742935Y1975421D01*
X39742295Y1975421D01*
X39742971Y1964639D01*
X39728376Y1760580D01*
X39725818Y1742786D01*
X39676710Y1517040D01*
X39671645Y1499791D01*
X39590910Y1283330D01*
X39583444Y1266983D01*
X39472725Y1064218D01*
X39463006Y1049095D01*
X39324559Y864152D01*
X39312786Y850566D01*
X39149434Y687214D01*
X39135848Y675441D01*
X38950905Y536994D01*
X38935782Y527275D01*
X38733017Y416556D01*
X38716670Y409090D01*
X38555356Y348923D01*
X38500209Y328355D01*
X38482960Y323290D01*
X38257214Y274182D01*
X38239420Y271624D01*
X38219248Y270181D01*
X38035358Y257029D01*
X38024579Y257705D01*
X38024579Y257065D01*
X38012172Y257065D01*
X38000000Y259486D01*
X37987103Y256921D01*
X37962524Y254500D01*
X2037476Y254500D01*
X2012897Y256921D01*
X2000000Y259486D01*
X1987828Y257065D01*
X1975421Y257065D01*
X1975421Y257705D01*
X1964642Y257029D01*
X1780752Y270181D01*
X1760580Y271624D01*
X1742786Y274182D01*
X1517040Y323290D01*
X1499791Y328355D01*
X1444644Y348923D01*
X1283330Y409090D01*
X1266983Y416556D01*
X1064218Y527275D01*
X1049095Y536994D01*
X864152Y675441D01*
X850566Y687214D01*
X687214Y850566D01*
X675441Y864152D01*
X536994Y1049095D01*
X527275Y1064218D01*
X416556Y1266983D01*
X409090Y1283330D01*
X328355Y1499791D01*
X323290Y1517040D01*
X274182Y1742786D01*
X271624Y1760580D01*
X257029Y1964639D01*
X257705Y1975421D01*
X257065Y1975421D01*
X257065Y1987828D01*
X259486Y2000000D01*
X256921Y2012897D01*
X254500Y2037476D01*
X254500Y5128067D01*
X9617500Y5128067D01*
X9617501Y2977934D01*
X9624612Y2942182D01*
X9629232Y2918954D01*
X9632266Y2903699D01*
X9688516Y2819516D01*
X9772699Y2763266D01*
X9846933Y2748500D01*
X10921826Y2748500D01*
X11997066Y2748501D01*
X12032818Y2755612D01*
X12059126Y2760844D01*
X12059128Y2760845D01*
X12071301Y2763266D01*
X12081621Y2770161D01*
X12081622Y2770162D01*
X12145168Y2812623D01*
X12155484Y2819516D01*
X12211734Y2903699D01*
X12226500Y2977933D01*
X12226500Y3143530D01*
X12246502Y3211651D01*
X12300158Y3258144D01*
X12370432Y3268248D01*
X12435012Y3238754D01*
X12452035Y3219880D01*
X12452184Y3220005D01*
X12455697Y3215818D01*
X12455712Y3215802D01*
X12458878Y3211281D01*
X12620281Y3049878D01*
X12807258Y2918954D01*
X12812240Y2916631D01*
X12812245Y2916628D01*
X13009148Y2824811D01*
X13014130Y2822488D01*
X13019438Y2821066D01*
X13019440Y2821065D01*
X13209419Y2770161D01*
X13234611Y2763411D01*
X13462000Y2743517D01*
X13689389Y2763411D01*
X13714581Y2770161D01*
X13904560Y2821065D01*
X13904562Y2821066D01*
X13909870Y2822488D01*
X13914852Y2824811D01*
X14111755Y2916628D01*
X14111760Y2916631D01*
X14116742Y2918954D01*
X14303719Y3049878D01*
X14465122Y3211281D01*
X14470597Y3219100D01*
X14475106Y3225538D01*
X14530564Y3269865D01*
X14601184Y3277173D01*
X14664543Y3245140D01*
X14685750Y3219100D01*
X14735071Y3138615D01*
X14740872Y3130631D01*
X14893708Y2951683D01*
X14900683Y2944708D01*
X15079631Y2791872D01*
X15087624Y2786065D01*
X15288272Y2663107D01*
X15297067Y2658625D01*
X15514490Y2568566D01*
X15523875Y2565517D01*
X15730385Y2515938D01*
X15744470Y2516643D01*
X15748000Y2525522D01*
X15748000Y2529824D01*
X16256000Y2529824D01*
X16259973Y2516293D01*
X16269431Y2514933D01*
X16480125Y2565517D01*
X16489510Y2568566D01*
X16706933Y2658625D01*
X16715728Y2663107D01*
X16916376Y2786065D01*
X16924369Y2791872D01*
X17103317Y2944708D01*
X17110292Y2951683D01*
X17263128Y3130631D01*
X17268929Y3138615D01*
X17318250Y3219100D01*
X17370898Y3266731D01*
X17440939Y3278338D01*
X17506137Y3250235D01*
X17528894Y3225538D01*
X17533403Y3219100D01*
X17538878Y3211281D01*
X17700281Y3049878D01*
X17887258Y2918954D01*
X17892240Y2916631D01*
X17892245Y2916628D01*
X18089148Y2824811D01*
X18094130Y2822488D01*
X18099438Y2821066D01*
X18099440Y2821065D01*
X18289419Y2770161D01*
X18314611Y2763411D01*
X18542000Y2743517D01*
X18769389Y2763411D01*
X18794581Y2770161D01*
X18984560Y2821065D01*
X18984562Y2821066D01*
X18989870Y2822488D01*
X18994852Y2824811D01*
X19191755Y2916628D01*
X19191760Y2916631D01*
X19196742Y2918954D01*
X19383719Y3049878D01*
X19545122Y3211281D01*
X19568831Y3245140D01*
X19672889Y3393751D01*
X19676046Y3398259D01*
X19678369Y3403241D01*
X19678372Y3403246D01*
X19770189Y3600148D01*
X19770190Y3600150D01*
X19772512Y3605130D01*
X19777501Y3623747D01*
X19830165Y3820296D01*
X19830165Y3820297D01*
X19831589Y3825611D01*
X19851483Y4053000D01*
X19831589Y4280389D01*
X19772512Y4500870D01*
X19770189Y4505852D01*
X19678372Y4702754D01*
X19678369Y4702759D01*
X19676046Y4707741D01*
X19572398Y4855765D01*
X19548281Y4890208D01*
X19548279Y4890211D01*
X19545122Y4894719D01*
X19383719Y5056122D01*
X19196742Y5187046D01*
X19191760Y5189369D01*
X19191755Y5189372D01*
X18994852Y5281189D01*
X18994851Y5281190D01*
X18989870Y5283512D01*
X18984562Y5284934D01*
X18984560Y5284935D01*
X18774704Y5341165D01*
X18774703Y5341165D01*
X18769389Y5342589D01*
X18542000Y5362483D01*
X18314611Y5342589D01*
X18309297Y5341165D01*
X18309296Y5341165D01*
X18099440Y5284935D01*
X18099438Y5284934D01*
X18094130Y5283512D01*
X18089150Y5281190D01*
X18089148Y5281189D01*
X17892246Y5189372D01*
X17892241Y5189369D01*
X17887259Y5187046D01*
X17700281Y5056122D01*
X17538878Y4894719D01*
X17535716Y4890203D01*
X17535715Y4890202D01*
X17528894Y4880462D01*
X17473436Y4836135D01*
X17402816Y4828827D01*
X17339457Y4860860D01*
X17318250Y4886900D01*
X17268929Y4967385D01*
X17263128Y4975369D01*
X17110292Y5154317D01*
X17103317Y5161292D01*
X16924369Y5314128D01*
X16916376Y5319935D01*
X16715728Y5442893D01*
X16706933Y5447375D01*
X16489510Y5537434D01*
X16480125Y5540483D01*
X16273615Y5590062D01*
X16259530Y5589357D01*
X16256000Y5580478D01*
X16256000Y2529824D01*
X15748000Y2529824D01*
X15748000Y5576176D01*
X15744027Y5589707D01*
X15734569Y5591067D01*
X15523875Y5540483D01*
X15514490Y5537434D01*
X15297067Y5447375D01*
X15288272Y5442893D01*
X15087624Y5319935D01*
X15079631Y5314128D01*
X14900683Y5161292D01*
X14893708Y5154317D01*
X14740872Y4975369D01*
X14735071Y4967385D01*
X14685750Y4886900D01*
X14633102Y4839269D01*
X14563061Y4827662D01*
X14497863Y4855765D01*
X14475106Y4880462D01*
X14468285Y4890202D01*
X14468284Y4890203D01*
X14465122Y4894719D01*
X14303719Y5056122D01*
X14116742Y5187046D01*
X14111760Y5189369D01*
X14111755Y5189372D01*
X13914852Y5281189D01*
X13914851Y5281190D01*
X13909870Y5283512D01*
X13904562Y5284934D01*
X13904560Y5284935D01*
X13694704Y5341165D01*
X13694703Y5341165D01*
X13689389Y5342589D01*
X13462000Y5362483D01*
X13234611Y5342589D01*
X13229297Y5341165D01*
X13229296Y5341165D01*
X13019440Y5284935D01*
X13019438Y5284934D01*
X13014130Y5283512D01*
X13009150Y5281190D01*
X13009148Y5281189D01*
X12812246Y5189372D01*
X12812241Y5189369D01*
X12807259Y5187046D01*
X12620281Y5056122D01*
X12458878Y4894719D01*
X12455721Y4890210D01*
X12455714Y4890202D01*
X12455708Y4890193D01*
X12455704Y4890190D01*
X12452184Y4885995D01*
X12451341Y4886703D01*
X12400249Y4845867D01*
X12329629Y4838562D01*
X12266270Y4870596D01*
X12230289Y4931799D01*
X12226499Y4962469D01*
X12226499Y5128066D01*
X12215396Y5183889D01*
X12214156Y5190126D01*
X12214155Y5190128D01*
X12211734Y5202301D01*
X12155484Y5286484D01*
X12071301Y5342734D01*
X11997067Y5357500D01*
X10922174Y5357500D01*
X9846934Y5357499D01*
X9811182Y5350388D01*
X9784874Y5345156D01*
X9784872Y5345155D01*
X9772699Y5342734D01*
X9762379Y5335839D01*
X9762378Y5335838D01*
X9701985Y5295484D01*
X9688516Y5286484D01*
X9632266Y5202301D01*
X9617500Y5128067D01*
X254500Y5128067D01*
X254500Y8000000D01*
X16000000Y8000000D01*
X35000000Y8000000D01*
X35000000Y18000000D01*
X16000000Y18000000D01*
X16000000Y8000000D01*
X254500Y8000000D01*
X254500Y21700331D01*
X2446001Y21700331D01*
X2446371Y21693510D01*
X2451895Y21642648D01*
X2455521Y21627396D01*
X2500676Y21506946D01*
X2509214Y21491351D01*
X2585715Y21389276D01*
X2598276Y21376715D01*
X2700351Y21300214D01*
X2715946Y21291676D01*
X2836394Y21246522D01*
X2851649Y21242895D01*
X2873638Y21240506D01*
X2939200Y21213265D01*
X2979627Y21154902D01*
X2982083Y21083948D01*
X2963244Y21042973D01*
X2869954Y20909741D01*
X2867631Y20904759D01*
X2867628Y20904754D01*
X2775811Y20707852D01*
X2773488Y20702870D01*
X2714411Y20482389D01*
X2694517Y20255000D01*
X2714411Y20027611D01*
X2773488Y19807130D01*
X2775810Y19802150D01*
X2775811Y19802148D01*
X2867628Y19605246D01*
X2867631Y19605241D01*
X2869954Y19600259D01*
X3000878Y19413281D01*
X3162281Y19251878D01*
X3349258Y19120954D01*
X3354243Y19118629D01*
X3354249Y19118626D01*
X3395920Y19099195D01*
X3449206Y19052278D01*
X3468667Y18984001D01*
X3448126Y18916041D01*
X3395921Y18870805D01*
X3354246Y18851372D01*
X3354241Y18851369D01*
X3349259Y18849046D01*
X3162281Y18718122D01*
X3000878Y18556719D01*
X2869954Y18369741D01*
X2867631Y18364759D01*
X2867628Y18364754D01*
X2775811Y18167852D01*
X2773488Y18162870D01*
X2772066Y18157562D01*
X2772065Y18157560D01*
X2724994Y17981885D01*
X2714411Y17942389D01*
X2694517Y17715000D01*
X2714411Y17487611D01*
X2773488Y17267130D01*
X2775810Y17262150D01*
X2775811Y17262148D01*
X2867628Y17065246D01*
X2867631Y17065241D01*
X2869954Y17060259D01*
X3000878Y16873281D01*
X3162281Y16711878D01*
X3349258Y16580954D01*
X3354243Y16578629D01*
X3354249Y16578626D01*
X3395920Y16559195D01*
X3449206Y16512278D01*
X3468667Y16444001D01*
X3448126Y16376041D01*
X3395921Y16330805D01*
X3354246Y16311372D01*
X3354241Y16311369D01*
X3349259Y16309046D01*
X3162281Y16178122D01*
X3000878Y16016719D01*
X2869954Y15829741D01*
X2867631Y15824759D01*
X2867628Y15824754D01*
X2775811Y15627852D01*
X2773488Y15622870D01*
X2714411Y15402389D01*
X2694517Y15175000D01*
X2714411Y14947611D01*
X2773488Y14727130D01*
X2775810Y14722150D01*
X2775811Y14722148D01*
X2867628Y14525246D01*
X2867631Y14525241D01*
X2869954Y14520259D01*
X3000878Y14333281D01*
X3162281Y14171878D01*
X3349258Y14040954D01*
X3354240Y14038631D01*
X3354245Y14038628D01*
X3551148Y13946811D01*
X3556130Y13944488D01*
X3561438Y13943066D01*
X3561440Y13943065D01*
X3771296Y13886835D01*
X3776611Y13885411D01*
X4004000Y13865517D01*
X4231389Y13885411D01*
X4236704Y13886835D01*
X4446560Y13943065D01*
X4446562Y13943066D01*
X4451870Y13944488D01*
X4456852Y13946811D01*
X4653755Y14038628D01*
X4653760Y14038631D01*
X4658742Y14040954D01*
X4845719Y14171878D01*
X5007122Y14333281D01*
X5138046Y14520259D01*
X5140369Y14525241D01*
X5140372Y14525246D01*
X5232189Y14722148D01*
X5232190Y14722150D01*
X5234512Y14727130D01*
X5293589Y14947611D01*
X5313483Y15175000D01*
X5293589Y15402389D01*
X5234512Y15622870D01*
X5232189Y15627852D01*
X5140372Y15824754D01*
X5140369Y15824759D01*
X5138046Y15829741D01*
X5007122Y16016719D01*
X4845719Y16178122D01*
X4658742Y16309046D01*
X4653760Y16311369D01*
X4653755Y16311372D01*
X4612080Y16330805D01*
X4558795Y16377723D01*
X4539334Y16446000D01*
X4559876Y16513960D01*
X4612080Y16559195D01*
X4653755Y16578628D01*
X4653760Y16578631D01*
X4658742Y16580954D01*
X4845719Y16711878D01*
X5007122Y16873281D01*
X5138046Y17060259D01*
X5140369Y17065241D01*
X5140372Y17065246D01*
X5232189Y17262148D01*
X5232190Y17262150D01*
X5234512Y17267130D01*
X5293589Y17487611D01*
X5313483Y17715000D01*
X5293589Y17942389D01*
X5283006Y17981885D01*
X5235935Y18157560D01*
X5235934Y18157562D01*
X5234512Y18162870D01*
X5232189Y18167852D01*
X5140372Y18364754D01*
X5140369Y18364759D01*
X5138046Y18369741D01*
X5007122Y18556719D01*
X4845719Y18718122D01*
X4658742Y18849046D01*
X4653760Y18851369D01*
X4653755Y18851372D01*
X4612080Y18870805D01*
X4558795Y18917723D01*
X4539334Y18986000D01*
X4559876Y19053960D01*
X4612080Y19099195D01*
X4653755Y19118628D01*
X4653760Y19118631D01*
X4658742Y19120954D01*
X4845719Y19251878D01*
X5007122Y19413281D01*
X5138046Y19600259D01*
X5140369Y19605241D01*
X5140372Y19605246D01*
X5232189Y19802148D01*
X5232190Y19802150D01*
X5234512Y19807130D01*
X5293589Y20027611D01*
X5313483Y20255000D01*
X5293589Y20482389D01*
X5234512Y20702870D01*
X5232189Y20707852D01*
X5140372Y20904754D01*
X5140369Y20904759D01*
X5138046Y20909741D01*
X5134890Y20914248D01*
X5134889Y20914250D01*
X5044756Y21042973D01*
X5022068Y21110247D01*
X5039353Y21179108D01*
X5091123Y21227692D01*
X5134365Y21240507D01*
X5156352Y21242895D01*
X5171604Y21246521D01*
X5292054Y21291676D01*
X5307649Y21300214D01*
X5409724Y21376715D01*
X5422285Y21389276D01*
X5498786Y21491351D01*
X5507324Y21506946D01*
X5552478Y21627394D01*
X5556105Y21642649D01*
X5561631Y21693514D01*
X5562000Y21700328D01*
X5562000Y22522885D01*
X5557525Y22538124D01*
X5556135Y22539329D01*
X5548452Y22541000D01*
X2464116Y22541000D01*
X2448877Y22536525D01*
X2447672Y22535135D01*
X2446001Y22527452D01*
X2446001Y21700331D01*
X254500Y21700331D01*
X254500Y23067115D01*
X2446000Y23067115D01*
X2450475Y23051876D01*
X2451865Y23050671D01*
X2459548Y23049000D01*
X3731885Y23049000D01*
X3747124Y23053475D01*
X3748329Y23054865D01*
X3750000Y23062548D01*
X3750000Y23067115D01*
X4258000Y23067115D01*
X4262475Y23051876D01*
X4263865Y23050671D01*
X4271548Y23049000D01*
X5543884Y23049000D01*
X5559123Y23053475D01*
X5560328Y23054865D01*
X5561999Y23062548D01*
X5561999Y23889669D01*
X5561629Y23896490D01*
X5556105Y23947352D01*
X5552479Y23962604D01*
X5507324Y24083054D01*
X5498786Y24098649D01*
X5422285Y24200724D01*
X5409724Y24213285D01*
X5307649Y24289786D01*
X5292054Y24298324D01*
X5171606Y24343478D01*
X5156351Y24347105D01*
X5105486Y24352631D01*
X5098672Y24353000D01*
X4276115Y24353000D01*
X4260876Y24348525D01*
X4259671Y24347135D01*
X4258000Y24339452D01*
X4258000Y23067115D01*
X3750000Y23067115D01*
X3750000Y24334884D01*
X3745525Y24350123D01*
X3744135Y24351328D01*
X3736452Y24352999D01*
X2909331Y24352999D01*
X2902510Y24352629D01*
X2851648Y24347105D01*
X2836396Y24343479D01*
X2715946Y24298324D01*
X2700351Y24289786D01*
X2598276Y24213285D01*
X2585715Y24200724D01*
X2509214Y24098649D01*
X2500676Y24083054D01*
X2455522Y23962606D01*
X2451895Y23947351D01*
X2446369Y23896486D01*
X2446000Y23889672D01*
X2446000Y23067115D01*
X254500Y23067115D01*
X254500Y24748331D01*
X24169001Y24748331D01*
X24169371Y24741510D01*
X24174895Y24690648D01*
X24178521Y24675396D01*
X24223676Y24554946D01*
X24232214Y24539351D01*
X24308715Y24437276D01*
X24321276Y24424715D01*
X24423351Y24348214D01*
X24438946Y24339676D01*
X24559394Y24294522D01*
X24574649Y24290895D01*
X24625514Y24285369D01*
X24632328Y24285000D01*
X25254885Y24285000D01*
X25270124Y24289475D01*
X25271329Y24290865D01*
X25273000Y24298548D01*
X25273000Y24303116D01*
X25781000Y24303116D01*
X25785475Y24287877D01*
X25786865Y24286672D01*
X25794548Y24285001D01*
X26421669Y24285001D01*
X26428490Y24285371D01*
X26479352Y24290895D01*
X26494604Y24294521D01*
X26615054Y24339676D01*
X26630649Y24348214D01*
X26732724Y24424715D01*
X26745285Y24437276D01*
X26821786Y24539351D01*
X26830324Y24554946D01*
X26875478Y24675394D01*
X26879105Y24690649D01*
X26884631Y24741514D01*
X26885000Y24748328D01*
X26885000Y25005024D01*
X26905002Y25073145D01*
X26958658Y25119638D01*
X27028932Y25129742D01*
X27093512Y25100248D01*
X27113895Y25077746D01*
X27223533Y24922611D01*
X27368938Y24780965D01*
X27373742Y24777755D01*
X27427980Y24741514D01*
X27537720Y24668188D01*
X27543023Y24665910D01*
X27543026Y24665908D01*
X27631707Y24627808D01*
X27724228Y24588058D01*
X27797244Y24571536D01*
X27916579Y24544533D01*
X27916584Y24544532D01*
X27922216Y24543258D01*
X27927987Y24543031D01*
X27927989Y24543031D01*
X27987756Y24540683D01*
X28125053Y24535288D01*
X28225499Y24549852D01*
X28320231Y24563587D01*
X28320236Y24563588D01*
X28325945Y24564416D01*
X28331409Y24566271D01*
X28331414Y24566272D01*
X28512693Y24627808D01*
X28512698Y24627810D01*
X28518165Y24629666D01*
X28695276Y24728853D01*
X28710495Y24741510D01*
X28846913Y24854969D01*
X28851345Y24858655D01*
X28981147Y25014724D01*
X29080334Y25191835D01*
X29082190Y25197302D01*
X29082192Y25197307D01*
X29143728Y25378586D01*
X29143729Y25378591D01*
X29145584Y25384055D01*
X29146412Y25389764D01*
X29146413Y25389769D01*
X29174179Y25581273D01*
X29174712Y25584947D01*
X29176232Y25643000D01*
X29173564Y25672036D01*
X29498148Y25672036D01*
X29511424Y25469478D01*
X29512845Y25463882D01*
X29512846Y25463877D01*
X29559971Y25278326D01*
X29561392Y25272731D01*
X29563809Y25267488D01*
X29601010Y25186792D01*
X29646377Y25088384D01*
X29763533Y24922611D01*
X29908938Y24780965D01*
X29913742Y24777755D01*
X29967980Y24741514D01*
X30077720Y24668188D01*
X30083023Y24665910D01*
X30083026Y24665908D01*
X30171707Y24627808D01*
X30264228Y24588058D01*
X30337244Y24571536D01*
X30456579Y24544533D01*
X30456584Y24544532D01*
X30462216Y24543258D01*
X30467987Y24543031D01*
X30467989Y24543031D01*
X30527756Y24540683D01*
X30665053Y24535288D01*
X30765499Y24549852D01*
X30860231Y24563587D01*
X30860236Y24563588D01*
X30865945Y24564416D01*
X30871409Y24566271D01*
X30871414Y24566272D01*
X31052693Y24627808D01*
X31052698Y24627810D01*
X31058165Y24629666D01*
X31235276Y24728853D01*
X31250495Y24741510D01*
X31386913Y24854969D01*
X31391345Y24858655D01*
X31521147Y25014724D01*
X31620334Y25191835D01*
X31622190Y25197302D01*
X31622192Y25197307D01*
X31683728Y25378586D01*
X31683729Y25378591D01*
X31685584Y25384055D01*
X31686412Y25389764D01*
X31686413Y25389769D01*
X31714179Y25581273D01*
X31714712Y25584947D01*
X31716232Y25643000D01*
X31713564Y25672036D01*
X32038148Y25672036D01*
X32051424Y25469478D01*
X32052845Y25463882D01*
X32052846Y25463877D01*
X32099971Y25278326D01*
X32101392Y25272731D01*
X32103809Y25267488D01*
X32141010Y25186792D01*
X32186377Y25088384D01*
X32303533Y24922611D01*
X32448938Y24780965D01*
X32453742Y24777755D01*
X32507980Y24741514D01*
X32617720Y24668188D01*
X32623023Y24665910D01*
X32623026Y24665908D01*
X32711707Y24627808D01*
X32804228Y24588058D01*
X32877244Y24571536D01*
X32996579Y24544533D01*
X32996584Y24544532D01*
X33002216Y24543258D01*
X33007987Y24543031D01*
X33007989Y24543031D01*
X33067756Y24540683D01*
X33205053Y24535288D01*
X33305499Y24549852D01*
X33400231Y24563587D01*
X33400236Y24563588D01*
X33405945Y24564416D01*
X33411409Y24566271D01*
X33411414Y24566272D01*
X33592693Y24627808D01*
X33592698Y24627810D01*
X33598165Y24629666D01*
X33775276Y24728853D01*
X33790495Y24741510D01*
X33926913Y24854969D01*
X33931345Y24858655D01*
X34061147Y25014724D01*
X34160334Y25191835D01*
X34162190Y25197302D01*
X34162192Y25197307D01*
X34223728Y25378586D01*
X34223729Y25378591D01*
X34225584Y25384055D01*
X34226412Y25389764D01*
X34226413Y25389769D01*
X34254179Y25581273D01*
X34254712Y25584947D01*
X34256232Y25643000D01*
X34253564Y25672036D01*
X34578148Y25672036D01*
X34591424Y25469478D01*
X34592845Y25463882D01*
X34592846Y25463877D01*
X34639971Y25278326D01*
X34641392Y25272731D01*
X34643809Y25267488D01*
X34681010Y25186792D01*
X34726377Y25088384D01*
X34843533Y24922611D01*
X34988938Y24780965D01*
X34993742Y24777755D01*
X35047980Y24741514D01*
X35157720Y24668188D01*
X35163023Y24665910D01*
X35163026Y24665908D01*
X35251707Y24627808D01*
X35344228Y24588058D01*
X35417244Y24571536D01*
X35536579Y24544533D01*
X35536584Y24544532D01*
X35542216Y24543258D01*
X35547987Y24543031D01*
X35547989Y24543031D01*
X35607756Y24540683D01*
X35745053Y24535288D01*
X35845499Y24549852D01*
X35940231Y24563587D01*
X35940236Y24563588D01*
X35945945Y24564416D01*
X35951409Y24566271D01*
X35951414Y24566272D01*
X36132693Y24627808D01*
X36132698Y24627810D01*
X36138165Y24629666D01*
X36315276Y24728853D01*
X36330495Y24741510D01*
X36466913Y24854969D01*
X36471345Y24858655D01*
X36601147Y25014724D01*
X36700334Y25191835D01*
X36702190Y25197302D01*
X36702192Y25197307D01*
X36763728Y25378586D01*
X36763729Y25378591D01*
X36765584Y25384055D01*
X36766412Y25389764D01*
X36766413Y25389769D01*
X36794179Y25581273D01*
X36794712Y25584947D01*
X36796232Y25643000D01*
X36793564Y25672036D01*
X37118148Y25672036D01*
X37131424Y25469478D01*
X37132845Y25463882D01*
X37132846Y25463877D01*
X37179971Y25278326D01*
X37181392Y25272731D01*
X37183809Y25267488D01*
X37221010Y25186792D01*
X37266377Y25088384D01*
X37383533Y24922611D01*
X37528938Y24780965D01*
X37533742Y24777755D01*
X37587980Y24741514D01*
X37697720Y24668188D01*
X37703023Y24665910D01*
X37703026Y24665908D01*
X37791707Y24627808D01*
X37884228Y24588058D01*
X37957244Y24571536D01*
X38076579Y24544533D01*
X38076584Y24544532D01*
X38082216Y24543258D01*
X38087987Y24543031D01*
X38087989Y24543031D01*
X38147756Y24540683D01*
X38285053Y24535288D01*
X38385499Y24549852D01*
X38480231Y24563587D01*
X38480236Y24563588D01*
X38485945Y24564416D01*
X38491409Y24566271D01*
X38491414Y24566272D01*
X38672693Y24627808D01*
X38672698Y24627810D01*
X38678165Y24629666D01*
X38855276Y24728853D01*
X38870495Y24741510D01*
X39006913Y24854969D01*
X39011345Y24858655D01*
X39141147Y25014724D01*
X39240334Y25191835D01*
X39242190Y25197302D01*
X39242192Y25197307D01*
X39303728Y25378586D01*
X39303729Y25378591D01*
X39305584Y25384055D01*
X39306412Y25389764D01*
X39306413Y25389769D01*
X39334179Y25581273D01*
X39334712Y25584947D01*
X39336232Y25643000D01*
X39317658Y25845141D01*
X39316090Y25850701D01*
X39264125Y26034954D01*
X39264124Y26034956D01*
X39262557Y26040513D01*
X39251978Y26061967D01*
X39175331Y26217391D01*
X39172776Y26222572D01*
X39051320Y26385221D01*
X38902258Y26523013D01*
X38897375Y26526094D01*
X38897371Y26526097D01*
X38735464Y26628252D01*
X38730581Y26631333D01*
X38542039Y26706554D01*
X38536379Y26707680D01*
X38536375Y26707681D01*
X38348613Y26745029D01*
X38348610Y26745029D01*
X38342946Y26746156D01*
X38337171Y26746232D01*
X38337167Y26746232D01*
X38235793Y26747559D01*
X38139971Y26748813D01*
X38134274Y26747834D01*
X38134273Y26747834D01*
X37950106Y26716188D01*
X37939910Y26714436D01*
X37749463Y26644176D01*
X37575010Y26540388D01*
X37570670Y26536582D01*
X37570666Y26536579D01*
X37550723Y26519089D01*
X37422392Y26406545D01*
X37296720Y26247131D01*
X37294031Y26242020D01*
X37294029Y26242017D01*
X37282507Y26220117D01*
X37202203Y26067485D01*
X37142007Y25873622D01*
X37118148Y25672036D01*
X36793564Y25672036D01*
X36777658Y25845141D01*
X36776090Y25850701D01*
X36724125Y26034954D01*
X36724124Y26034956D01*
X36722557Y26040513D01*
X36711978Y26061967D01*
X36635331Y26217391D01*
X36632776Y26222572D01*
X36511320Y26385221D01*
X36362258Y26523013D01*
X36357375Y26526094D01*
X36357371Y26526097D01*
X36195464Y26628252D01*
X36190581Y26631333D01*
X36002039Y26706554D01*
X35996379Y26707680D01*
X35996375Y26707681D01*
X35808613Y26745029D01*
X35808610Y26745029D01*
X35802946Y26746156D01*
X35797171Y26746232D01*
X35797167Y26746232D01*
X35695793Y26747559D01*
X35599971Y26748813D01*
X35594274Y26747834D01*
X35594273Y26747834D01*
X35410106Y26716188D01*
X35399910Y26714436D01*
X35209463Y26644176D01*
X35035010Y26540388D01*
X35030670Y26536582D01*
X35030666Y26536579D01*
X35010723Y26519089D01*
X34882392Y26406545D01*
X34756720Y26247131D01*
X34754031Y26242020D01*
X34754029Y26242017D01*
X34742507Y26220117D01*
X34662203Y26067485D01*
X34602007Y25873622D01*
X34578148Y25672036D01*
X34253564Y25672036D01*
X34237658Y25845141D01*
X34236090Y25850701D01*
X34184125Y26034954D01*
X34184124Y26034956D01*
X34182557Y26040513D01*
X34171978Y26061967D01*
X34095331Y26217391D01*
X34092776Y26222572D01*
X33971320Y26385221D01*
X33822258Y26523013D01*
X33817375Y26526094D01*
X33817371Y26526097D01*
X33655464Y26628252D01*
X33650581Y26631333D01*
X33462039Y26706554D01*
X33456379Y26707680D01*
X33456375Y26707681D01*
X33268613Y26745029D01*
X33268610Y26745029D01*
X33262946Y26746156D01*
X33257171Y26746232D01*
X33257167Y26746232D01*
X33155793Y26747559D01*
X33059971Y26748813D01*
X33054274Y26747834D01*
X33054273Y26747834D01*
X32870106Y26716188D01*
X32859910Y26714436D01*
X32669463Y26644176D01*
X32495010Y26540388D01*
X32490670Y26536582D01*
X32490666Y26536579D01*
X32470723Y26519089D01*
X32342392Y26406545D01*
X32216720Y26247131D01*
X32214031Y26242020D01*
X32214029Y26242017D01*
X32202507Y26220117D01*
X32122203Y26067485D01*
X32062007Y25873622D01*
X32038148Y25672036D01*
X31713564Y25672036D01*
X31697658Y25845141D01*
X31696090Y25850701D01*
X31644125Y26034954D01*
X31644124Y26034956D01*
X31642557Y26040513D01*
X31631978Y26061967D01*
X31555331Y26217391D01*
X31552776Y26222572D01*
X31431320Y26385221D01*
X31282258Y26523013D01*
X31277382Y26526089D01*
X31277371Y26526098D01*
X31179264Y26587999D01*
X31132326Y26641265D01*
X31120500Y26694560D01*
X31120500Y26716187D01*
X31119791Y26722256D01*
X31114648Y26766242D01*
X31113502Y26776045D01*
X31089491Y26828523D01*
X31084551Y26841795D01*
X31086866Y26843053D01*
X31039141Y26930898D01*
X31031112Y26948911D01*
X31003308Y27027271D01*
X30998231Y27046085D01*
X30977635Y27155465D01*
X30975645Y27171937D01*
X30967032Y27330276D01*
X30966719Y27336032D01*
X30965027Y27343034D01*
X30961500Y27372634D01*
X30961500Y31313394D01*
X30964399Y31340267D01*
X30964532Y31340878D01*
X30966668Y31350661D01*
X30967653Y31403668D01*
X30967853Y31408787D01*
X30967890Y31409400D01*
X30970555Y31454257D01*
X30970979Y31459524D01*
X30974807Y31497159D01*
X30975370Y31501830D01*
X30980249Y31536779D01*
X30980717Y31539851D01*
X30982531Y31550852D01*
X30986900Y31577361D01*
X30986992Y31577912D01*
X30993878Y31618487D01*
X30993896Y31618595D01*
X30993934Y31618820D01*
X30994659Y31623329D01*
X30995801Y31630856D01*
X31001131Y31666009D01*
X31001169Y31666257D01*
X31001863Y31671152D01*
X31001918Y31671568D01*
X31002453Y31675894D01*
X31003818Y31687742D01*
X31006097Y31707536D01*
X31007773Y31722092D01*
X31008375Y31727889D01*
X31008424Y31728419D01*
X31008907Y31734399D01*
X31010546Y31758083D01*
X31012500Y31786327D01*
X31012504Y31786395D01*
X31012518Y31786594D01*
X31012870Y31792742D01*
X31012895Y31793293D01*
X31013099Y31799357D01*
X31013106Y31799673D01*
X31014174Y31848288D01*
X31014174Y31848294D01*
X31014253Y31851902D01*
X31013839Y31856346D01*
X31013536Y31859588D01*
X31013455Y31861333D01*
X31014069Y31866000D01*
X31010500Y31893107D01*
X31009966Y31897854D01*
X31009057Y31907597D01*
X31008722Y31911192D01*
X31007976Y31914725D01*
X31007759Y31916158D01*
X31006485Y31923606D01*
X30996949Y31996039D01*
X30995871Y32004227D01*
X30942517Y32133034D01*
X30857644Y32243644D01*
X30849493Y32249899D01*
X30784913Y32299452D01*
X30747035Y32328517D01*
X30637229Y32374000D01*
X36930931Y32374000D01*
X36949129Y32235773D01*
X37002483Y32106966D01*
X37087356Y31996356D01*
X37093906Y31991330D01*
X37093907Y31991329D01*
X37142660Y31953920D01*
X37197965Y31911483D01*
X37273392Y31880240D01*
X37286523Y31873887D01*
X37302975Y31864716D01*
X37345415Y31851016D01*
X37350079Y31849559D01*
X37350453Y31849446D01*
X37355025Y31848110D01*
X37399980Y31835423D01*
X37400160Y31835374D01*
X37400199Y31835363D01*
X37403302Y31834516D01*
X37404352Y31834230D01*
X37404564Y31834174D01*
X37404587Y31834168D01*
X37442982Y31824052D01*
X37444345Y31823685D01*
X37459899Y31819400D01*
X37471462Y31816214D01*
X37476932Y31814573D01*
X37490301Y31810225D01*
X37499430Y31806860D01*
X37503574Y31805148D01*
X37514656Y31799926D01*
X37516834Y31798767D01*
X37527704Y31792260D01*
X37534806Y31787508D01*
X37543990Y31780739D01*
X37560105Y31767696D01*
X37567151Y31761547D01*
X37593605Y31736665D01*
X37602170Y31731222D01*
X37623688Y31713973D01*
X37708595Y31629066D01*
X37742621Y31566754D01*
X37745500Y31539971D01*
X37745500Y29015595D01*
X37742268Y28987239D01*
X37740274Y28978605D01*
X37739601Y28956630D01*
X37739162Y28942316D01*
X37738528Y28932976D01*
X37736353Y28912337D01*
X37734646Y28901063D01*
X37733536Y28895461D01*
X37732988Y28892699D01*
X37729898Y28880398D01*
X37729176Y28878034D01*
X37725044Y28866533D01*
X37723317Y28862374D01*
X37719239Y28853537D01*
X37712870Y28841029D01*
X37710154Y28835984D01*
X37696276Y28811549D01*
X37695627Y28810420D01*
X37675443Y28775800D01*
X37673186Y28771850D01*
X37650387Y28731119D01*
X37648172Y28727078D01*
X37647967Y28726696D01*
X37645632Y28722241D01*
X37645512Y28722006D01*
X37626943Y28685736D01*
X37626939Y28685728D01*
X37625312Y28682549D01*
X37624051Y28679196D01*
X37624050Y28679194D01*
X37620605Y28670033D01*
X37604634Y28627570D01*
X37603764Y28624109D01*
X37603563Y28623467D01*
X37599717Y28612861D01*
X37584129Y28575227D01*
X37565931Y28437000D01*
X37584129Y28298773D01*
X37637483Y28169966D01*
X37722356Y28059356D01*
X37728906Y28054330D01*
X37728907Y28054329D01*
X37777661Y28016919D01*
X37832965Y27974483D01*
X37961773Y27921129D01*
X38100000Y27902931D01*
X38108188Y27904009D01*
X38230039Y27920051D01*
X38238227Y27921129D01*
X38367035Y27974483D01*
X38422340Y28016920D01*
X38471093Y28054329D01*
X38471094Y28054330D01*
X38477644Y28059356D01*
X38562517Y28169966D01*
X38615871Y28298773D01*
X38634069Y28437000D01*
X38615871Y28575227D01*
X38612710Y28582859D01*
X38584624Y28650664D01*
X38579832Y28664440D01*
X38574685Y28682554D01*
X38554364Y28722246D01*
X38552280Y28726230D01*
X38552076Y28726612D01*
X38549612Y28731119D01*
X38526813Y28771850D01*
X38524554Y28775803D01*
X38524433Y28776010D01*
X38524360Y28776137D01*
X38504469Y28810254D01*
X38503759Y28811487D01*
X38489841Y28835991D01*
X38487125Y28841038D01*
X38480768Y28853520D01*
X38476682Y28862374D01*
X38474955Y28866533D01*
X38470823Y28878034D01*
X38470101Y28880398D01*
X38467011Y28892699D01*
X38466463Y28895461D01*
X38465353Y28901063D01*
X38463646Y28912337D01*
X38461471Y28932976D01*
X38460837Y28942316D01*
X38459907Y28972658D01*
X38459725Y28978604D01*
X38457519Y28988501D01*
X38454500Y29015916D01*
X38454500Y31687742D01*
X38456606Y31707536D01*
X38456811Y31711889D01*
X38459003Y31722069D01*
X38455373Y31752738D01*
X38455058Y31758083D01*
X38454928Y31758072D01*
X38454500Y31763250D01*
X38454500Y31768451D01*
X38451573Y31786037D01*
X38450736Y31791914D01*
X38446355Y31828929D01*
X38445131Y31839270D01*
X38441430Y31846978D01*
X38440025Y31855417D01*
X38417380Y31897385D01*
X38414684Y31902676D01*
X38397474Y31938517D01*
X38397472Y31938520D01*
X38394045Y31945657D01*
X38390689Y31949650D01*
X38388763Y31951576D01*
X38387250Y31953226D01*
X38387014Y31953662D01*
X38387049Y31953694D01*
X38386916Y31953845D01*
X38383983Y31959280D01*
X38347119Y31993357D01*
X38343553Y31996786D01*
X38124797Y32215542D01*
X38107034Y32237874D01*
X38105615Y32240145D01*
X38102335Y32245395D01*
X38077453Y32271849D01*
X38071304Y32278895D01*
X38058261Y32295010D01*
X38051492Y32304194D01*
X38046740Y32311296D01*
X38040233Y32322166D01*
X38039074Y32324344D01*
X38033852Y32335426D01*
X38032140Y32339570D01*
X38028775Y32348699D01*
X38024427Y32362068D01*
X38022782Y32367550D01*
X38015315Y32394655D01*
X38014948Y32396018D01*
X38004835Y32434403D01*
X38004810Y32434497D01*
X38004770Y32434648D01*
X38003577Y32439018D01*
X37990896Y32483953D01*
X37989509Y32488697D01*
X37989383Y32489113D01*
X37987977Y32493608D01*
X37974284Y32536026D01*
X37965789Y32554764D01*
X37951513Y32586255D01*
X37951508Y32586265D01*
X37950038Y32589507D01*
X37948210Y32592564D01*
X37947885Y32593184D01*
X37943106Y32603401D01*
X37930679Y32633402D01*
X37930677Y32633406D01*
X37927517Y32641034D01*
X37842644Y32751644D01*
X37815226Y32772683D01*
X37787339Y32794081D01*
X37732035Y32836517D01*
X37603227Y32889871D01*
X37465000Y32908069D01*
X37326773Y32889871D01*
X37197966Y32836517D01*
X37191415Y32831490D01*
X37191412Y32831488D01*
X37130310Y32784603D01*
X37087356Y32751644D01*
X37082330Y32745094D01*
X37048171Y32700576D01*
X37002483Y32641034D01*
X36949129Y32512227D01*
X36948051Y32504039D01*
X36945407Y32483953D01*
X36930931Y32374000D01*
X30637229Y32374000D01*
X30618227Y32381871D01*
X30480000Y32400069D01*
X30341773Y32381871D01*
X30212966Y32328517D01*
X30102356Y32243644D01*
X30017483Y32133034D01*
X29964129Y32004227D01*
X29945931Y31866000D01*
X29949957Y31835423D01*
X29956459Y31786036D01*
X29964129Y31727773D01*
X29967289Y31720144D01*
X29973363Y31705480D01*
X30017483Y31598966D01*
X30022512Y31592412D01*
X30096564Y31495905D01*
X30102356Y31488356D01*
X30108906Y31483330D01*
X30139844Y31459591D01*
X30156405Y31444349D01*
X30166964Y31432726D01*
X30195059Y31411939D01*
X30195058Y31411938D01*
X30195069Y31411932D01*
X30201452Y31407209D01*
X30244311Y31350610D01*
X30252500Y31305926D01*
X30252500Y27372290D01*
X30249464Y27348193D01*
X30249757Y27348148D01*
X30248816Y27342028D01*
X30247281Y27336033D01*
X30240474Y27210898D01*
X30238354Y27171937D01*
X30236364Y27155465D01*
X30215768Y27046085D01*
X30210691Y27027271D01*
X30182887Y26948911D01*
X30174858Y26930898D01*
X30127133Y26843053D01*
X30127535Y26842834D01*
X30125503Y26837443D01*
X30120525Y26828523D01*
X30113253Y26815494D01*
X30093500Y26716188D01*
X30093500Y26694431D01*
X30073498Y26626310D01*
X30031923Y26586146D01*
X29955010Y26540388D01*
X29950674Y26536585D01*
X29950668Y26536581D01*
X29835478Y26435561D01*
X29802392Y26406545D01*
X29676720Y26247131D01*
X29674031Y26242020D01*
X29674029Y26242017D01*
X29662507Y26220117D01*
X29582203Y26067485D01*
X29522007Y25873622D01*
X29498148Y25672036D01*
X29173564Y25672036D01*
X29157658Y25845141D01*
X29156090Y25850701D01*
X29104125Y26034954D01*
X29104124Y26034956D01*
X29102557Y26040513D01*
X29091978Y26061967D01*
X29015331Y26217391D01*
X29012776Y26222572D01*
X28891320Y26385221D01*
X28742258Y26523013D01*
X28737375Y26526094D01*
X28737371Y26526097D01*
X28575464Y26628252D01*
X28570581Y26631333D01*
X28382039Y26706554D01*
X28376379Y26707680D01*
X28376375Y26707681D01*
X28188613Y26745029D01*
X28188610Y26745029D01*
X28182946Y26746156D01*
X28177171Y26746232D01*
X28177167Y26746232D01*
X28075793Y26747559D01*
X27979971Y26748813D01*
X27974274Y26747834D01*
X27974273Y26747834D01*
X27790106Y26716188D01*
X27779910Y26714436D01*
X27589463Y26644176D01*
X27415010Y26540388D01*
X27410670Y26536582D01*
X27410666Y26536579D01*
X27390723Y26519089D01*
X27262392Y26406545D01*
X27136720Y26247131D01*
X27134031Y26242020D01*
X27134029Y26242017D01*
X27122507Y26220117D01*
X27073087Y26169144D01*
X27003955Y26152982D01*
X26937059Y26176761D01*
X26893638Y26232932D01*
X26884999Y26278785D01*
X26884999Y26537669D01*
X26884629Y26544490D01*
X26879105Y26595352D01*
X26875479Y26610604D01*
X26830324Y26731054D01*
X26821786Y26746649D01*
X26745285Y26848724D01*
X26732724Y26861285D01*
X26630649Y26937786D01*
X26615054Y26946324D01*
X26494606Y26991478D01*
X26479351Y26995105D01*
X26428486Y27000631D01*
X26421672Y27001000D01*
X25799115Y27001000D01*
X25783876Y26996525D01*
X25782671Y26995135D01*
X25781000Y26987452D01*
X25781000Y24303116D01*
X25273000Y24303116D01*
X25273000Y25370885D01*
X25268525Y25386124D01*
X25267135Y25387329D01*
X25259452Y25389000D01*
X24187116Y25389000D01*
X24171877Y25384525D01*
X24170672Y25383135D01*
X24169001Y25375452D01*
X24169001Y24748331D01*
X254500Y24748331D01*
X254500Y25915115D01*
X24169000Y25915115D01*
X24173475Y25899876D01*
X24174865Y25898671D01*
X24182548Y25897000D01*
X25254885Y25897000D01*
X25270124Y25901475D01*
X25271329Y25902865D01*
X25273000Y25910548D01*
X25273000Y26982884D01*
X25268525Y26998123D01*
X25267135Y26999328D01*
X25259452Y27000999D01*
X24632331Y27000999D01*
X24625510Y27000629D01*
X24574648Y26995105D01*
X24559396Y26991479D01*
X24438946Y26946324D01*
X24423351Y26937786D01*
X24321276Y26861285D01*
X24308715Y26848724D01*
X24232214Y26746649D01*
X24223676Y26731054D01*
X24178522Y26610606D01*
X24174895Y26595351D01*
X24169369Y26544486D01*
X24169000Y26537672D01*
X24169000Y25915115D01*
X254500Y25915115D01*
X254500Y27663750D01*
X2690517Y27663750D01*
X2710411Y27436361D01*
X2711835Y27431047D01*
X2711835Y27431046D01*
X2727579Y27372290D01*
X2769488Y27215880D01*
X2771810Y27210900D01*
X2771811Y27210898D01*
X2863628Y27013996D01*
X2863631Y27013991D01*
X2865954Y27009009D01*
X2884247Y26982884D01*
X2982597Y26842427D01*
X2996878Y26822031D01*
X3158281Y26660628D01*
X3162790Y26657471D01*
X3162792Y26657469D01*
X3209055Y26625075D01*
X3345258Y26529704D01*
X3350240Y26527381D01*
X3350245Y26527378D01*
X3547148Y26435561D01*
X3552130Y26433238D01*
X3557438Y26431816D01*
X3557440Y26431815D01*
X3767296Y26375585D01*
X3772611Y26374161D01*
X4000000Y26354267D01*
X4227389Y26374161D01*
X4232704Y26375585D01*
X4442560Y26431815D01*
X4442562Y26431816D01*
X4447870Y26433238D01*
X4452852Y26435561D01*
X4649755Y26527378D01*
X4649760Y26527381D01*
X4654742Y26529704D01*
X4790945Y26625075D01*
X4837208Y26657469D01*
X4837210Y26657471D01*
X4841719Y26660628D01*
X5003122Y26822031D01*
X5017404Y26842427D01*
X5115753Y26982884D01*
X5134046Y27009009D01*
X5136369Y27013991D01*
X5136372Y27013996D01*
X5228189Y27210898D01*
X5228190Y27210900D01*
X5230512Y27215880D01*
X5272422Y27372290D01*
X5288165Y27431046D01*
X5288165Y27431047D01*
X5289589Y27436361D01*
X5309483Y27663750D01*
X5289589Y27891139D01*
X5288165Y27896454D01*
X5231935Y28106310D01*
X5231934Y28106312D01*
X5230512Y28111620D01*
X5227455Y28118175D01*
X5136372Y28313504D01*
X5136369Y28313509D01*
X5134046Y28318491D01*
X5051065Y28437000D01*
X5006281Y28500958D01*
X5006279Y28500961D01*
X5003122Y28505469D01*
X4841719Y28666872D01*
X4837205Y28670033D01*
X4837199Y28670038D01*
X4837193Y28670042D01*
X4837190Y28670046D01*
X4832995Y28673566D01*
X4833703Y28674409D01*
X4792867Y28725501D01*
X4785562Y28796121D01*
X4817596Y28859480D01*
X4878799Y28895461D01*
X4909469Y28899251D01*
X5075066Y28899251D01*
X5112322Y28906661D01*
X5137126Y28911594D01*
X5137128Y28911595D01*
X5149301Y28914016D01*
X5159621Y28920911D01*
X5159622Y28920912D01*
X5223168Y28963373D01*
X5233484Y28970266D01*
X5289734Y29054449D01*
X5304500Y29128683D01*
X5304499Y31278816D01*
X5297388Y31314568D01*
X5292156Y31340876D01*
X5292155Y31340878D01*
X5289734Y31353051D01*
X5279303Y31368663D01*
X5240377Y31426918D01*
X5233484Y31437234D01*
X5161998Y31485000D01*
X15467931Y31485000D01*
X15486129Y31346773D01*
X15539483Y31217966D01*
X15624356Y31107356D01*
X15734965Y31022483D01*
X15742592Y31019324D01*
X15742597Y31019321D01*
X15798495Y30996168D01*
X15816051Y30987229D01*
X15829554Y30978964D01*
X15855153Y30969535D01*
X15860663Y30967355D01*
X15878719Y30959720D01*
X15885579Y30956574D01*
X15897013Y30950909D01*
X15904596Y30946823D01*
X15913036Y30941895D01*
X15920445Y30937216D01*
X15929773Y30930859D01*
X15936150Y30926212D01*
X15949455Y30915865D01*
X15954361Y30911848D01*
X15973638Y30895235D01*
X15977013Y30892219D01*
X16003100Y30868046D01*
X16005116Y30866134D01*
X16034368Y30837761D01*
X16038305Y30833942D01*
X16039393Y30832874D01*
X16068059Y30804387D01*
X16068063Y30804384D01*
X16072436Y30800038D01*
X16077569Y30796625D01*
X16077571Y30796624D01*
X16083231Y30792861D01*
X16102568Y30777028D01*
X18595986Y28283609D01*
X18605841Y28272520D01*
X18625666Y28247372D01*
X18633413Y28242017D01*
X18633415Y28242016D01*
X18671585Y28215636D01*
X18674807Y28213334D01*
X18711332Y28186356D01*
X18719754Y28180135D01*
X18726251Y28177853D01*
X18731912Y28173941D01*
X18740886Y28171103D01*
X18740888Y28171102D01*
X18785140Y28157108D01*
X18788897Y28155854D01*
X18832720Y28140464D01*
X18832728Y28140462D01*
X18841611Y28137343D01*
X18848490Y28137073D01*
X18855053Y28134997D01*
X18861367Y28134500D01*
X18911485Y28134500D01*
X18916431Y28134403D01*
X18970663Y28132272D01*
X18977506Y28134087D01*
X18985019Y28134500D01*
X26479334Y28134500D01*
X26504308Y28132000D01*
X26516849Y28129464D01*
X26543510Y28129381D01*
X26563371Y28129318D01*
X26564895Y28129304D01*
X26611118Y28128600D01*
X26613991Y28128524D01*
X26649516Y28127172D01*
X26654052Y28126917D01*
X26679389Y28125036D01*
X26685694Y28124408D01*
X26702441Y28122314D01*
X26710250Y28121088D01*
X26719504Y28119335D01*
X26721314Y28118992D01*
X26729860Y28117063D01*
X26739320Y28114578D01*
X26747568Y28112106D01*
X26759670Y28108023D01*
X26766740Y28105400D01*
X26776397Y28101483D01*
X26784932Y28098021D01*
X26790365Y28095667D01*
X26815124Y28084238D01*
X26818191Y28083190D01*
X26865713Y28066952D01*
X26865705Y28066930D01*
X26876250Y28063257D01*
X26897805Y28054329D01*
X26912773Y28048129D01*
X26920957Y28047052D01*
X26920959Y28047051D01*
X27042812Y28031009D01*
X27051000Y28029931D01*
X27059188Y28031009D01*
X27181039Y28047051D01*
X27189227Y28048129D01*
X27318035Y28101483D01*
X27408765Y28171102D01*
X27422093Y28181329D01*
X27422094Y28181330D01*
X27428644Y28186356D01*
X27513517Y28296966D01*
X27566871Y28425773D01*
X27585069Y28564000D01*
X27566871Y28702227D01*
X27513517Y28831034D01*
X27428644Y28941644D01*
X27318035Y29026517D01*
X27189227Y29079871D01*
X27051000Y29098069D01*
X27042812Y29096991D01*
X26920959Y29080949D01*
X26920957Y29080948D01*
X26912773Y29079871D01*
X26905145Y29076711D01*
X26905140Y29076710D01*
X26849249Y29053559D01*
X26830503Y29047463D01*
X26815124Y29043763D01*
X26790365Y29032334D01*
X26784932Y29029980D01*
X26766740Y29022601D01*
X26759670Y29019978D01*
X26747568Y29015895D01*
X26739320Y29013423D01*
X26729860Y29010938D01*
X26721312Y29009009D01*
X26710250Y29006913D01*
X26702451Y29005688D01*
X26685695Y29003593D01*
X26679395Y29002965D01*
X26666957Y29002042D01*
X26654052Y29001084D01*
X26649517Y29000829D01*
X26614052Y28999479D01*
X26611180Y28999403D01*
X26564883Y28998697D01*
X26563360Y28998683D01*
X26523017Y28998556D01*
X26523011Y28998555D01*
X26516845Y28998536D01*
X26510798Y28997318D01*
X26510796Y28997318D01*
X26504153Y28995980D01*
X26479278Y28993500D01*
X19153095Y28993500D01*
X19084974Y29013502D01*
X19064000Y29030405D01*
X16709933Y31384472D01*
X16694045Y31403893D01*
X16690390Y31409400D01*
X16690385Y31409406D01*
X16686962Y31414564D01*
X16666739Y31434914D01*
X16654204Y31447528D01*
X16653136Y31448616D01*
X16620905Y31481844D01*
X16618928Y31483929D01*
X16594800Y31509966D01*
X16591774Y31513352D01*
X16575151Y31532640D01*
X16571144Y31537533D01*
X16560779Y31550862D01*
X16556141Y31557227D01*
X16549784Y31566555D01*
X16545105Y31573964D01*
X16540177Y31582404D01*
X16536091Y31589987D01*
X16530426Y31601421D01*
X16527280Y31608281D01*
X16519645Y31626337D01*
X16517462Y31631856D01*
X16509159Y31654397D01*
X16508036Y31657446D01*
X16484471Y31705469D01*
X16484494Y31705480D01*
X16479645Y31715511D01*
X16467679Y31744401D01*
X16467678Y31744403D01*
X16464517Y31752034D01*
X16379644Y31862644D01*
X16356713Y31880240D01*
X16308364Y31917339D01*
X16269035Y31947517D01*
X16154324Y31995032D01*
X16147856Y31997711D01*
X16140227Y32000871D01*
X16002000Y32019069D01*
X15863773Y32000871D01*
X15856144Y31997711D01*
X15845633Y31993357D01*
X15734966Y31947517D01*
X15624356Y31862644D01*
X15619330Y31856094D01*
X15588146Y31815454D01*
X15539483Y31752034D01*
X15486129Y31623227D01*
X15485051Y31615039D01*
X15482935Y31598966D01*
X15467931Y31485000D01*
X5161998Y31485000D01*
X5149301Y31493484D01*
X5075067Y31508250D01*
X4000174Y31508250D01*
X2924934Y31508249D01*
X2892661Y31501830D01*
X2862874Y31495906D01*
X2862872Y31495905D01*
X2850699Y31493484D01*
X2840379Y31486589D01*
X2840378Y31486588D01*
X2799975Y31459591D01*
X2766516Y31437234D01*
X2710266Y31353051D01*
X2695500Y31278817D01*
X2695501Y29128684D01*
X2701590Y29098069D01*
X2705210Y29079871D01*
X2710266Y29054449D01*
X2717161Y29044130D01*
X2717162Y29044128D01*
X2742520Y29006178D01*
X2766516Y28970266D01*
X2850699Y28914016D01*
X2924933Y28899250D01*
X3090530Y28899250D01*
X3158651Y28879248D01*
X3205144Y28825592D01*
X3215248Y28755318D01*
X3185754Y28690738D01*
X3166880Y28673715D01*
X3167005Y28673566D01*
X3162818Y28670053D01*
X3162802Y28670038D01*
X3158281Y28666872D01*
X2996878Y28505469D01*
X2993721Y28500961D01*
X2993719Y28500958D01*
X2948935Y28437000D01*
X2865954Y28318491D01*
X2863631Y28313509D01*
X2863628Y28313504D01*
X2772545Y28118175D01*
X2769488Y28111620D01*
X2768066Y28106312D01*
X2768065Y28106310D01*
X2711835Y27896454D01*
X2710411Y27891139D01*
X2690517Y27663750D01*
X254500Y27663750D01*
X254500Y33136000D01*
X735931Y33136000D01*
X754129Y32997773D01*
X807483Y32868966D01*
X892356Y32758356D01*
X898906Y32753330D01*
X898907Y32753329D01*
X941235Y32720850D01*
X1002965Y32673483D01*
X1131773Y32620129D01*
X1270000Y32601931D01*
X1278188Y32603009D01*
X1400039Y32619051D01*
X1408227Y32620129D01*
X1471766Y32646448D01*
X1490493Y32652537D01*
X1505883Y32656240D01*
X1511501Y32658833D01*
X1511506Y32658835D01*
X1530647Y32667671D01*
X1536078Y32670024D01*
X1554262Y32677401D01*
X1561328Y32680023D01*
X1573434Y32684107D01*
X1581679Y32686578D01*
X1591139Y32689063D01*
X1599685Y32690992D01*
X1601495Y32691335D01*
X1610749Y32693088D01*
X1618548Y32694313D01*
X1635304Y32696408D01*
X1641604Y32697036D01*
X1654243Y32697974D01*
X1666947Y32698917D01*
X1671482Y32699172D01*
X1706946Y32700522D01*
X1709818Y32700598D01*
X1756115Y32701304D01*
X1757640Y32701318D01*
X1780254Y32701389D01*
X1804151Y32701464D01*
X1810191Y32702680D01*
X1810196Y32702681D01*
X1816843Y32704020D01*
X1841720Y32706500D01*
X5174031Y32706500D01*
X5188841Y32705627D01*
X5220643Y32701863D01*
X5229907Y32703555D01*
X5229908Y32703555D01*
X5275583Y32711897D01*
X5279489Y32712547D01*
X5325405Y32719450D01*
X5334717Y32720850D01*
X5340924Y32723831D01*
X5347694Y32725067D01*
X5356050Y32729407D01*
X5356057Y32729410D01*
X5397273Y32750821D01*
X5400750Y32752559D01*
X5451141Y32776757D01*
X5456196Y32781429D01*
X5462305Y32784603D01*
X5467121Y32788717D01*
X5502545Y32824141D01*
X5506112Y32827571D01*
X5539061Y32858028D01*
X5539062Y32858029D01*
X5545981Y32864425D01*
X5549540Y32870551D01*
X5554564Y32876160D01*
X5614470Y32936066D01*
X5633886Y32951951D01*
X5639404Y32955613D01*
X5639410Y32955618D01*
X5644563Y32959038D01*
X5648951Y32963398D01*
X5648954Y32963401D01*
X5677527Y32991796D01*
X5678615Y32992864D01*
X5711843Y33025095D01*
X5713928Y33027072D01*
X5739965Y33051200D01*
X5743351Y33054226D01*
X5762639Y33070849D01*
X5767532Y33074856D01*
X5780861Y33085221D01*
X5787226Y33089859D01*
X5796554Y33096216D01*
X5803963Y33100895D01*
X5812403Y33105823D01*
X5819983Y33109907D01*
X5831432Y33115580D01*
X5838265Y33118715D01*
X5856350Y33126362D01*
X5861853Y33128537D01*
X5884379Y33136834D01*
X5884380Y33136835D01*
X5887444Y33137963D01*
X5890371Y33139399D01*
X5890375Y33139401D01*
X5935469Y33161529D01*
X5935480Y33161506D01*
X5945497Y33166349D01*
X5982035Y33181483D01*
X6092644Y33266356D01*
X6177517Y33376966D01*
X6230871Y33505773D01*
X6249069Y33644000D01*
X6235245Y33749000D01*
X6231949Y33774039D01*
X6230871Y33782227D01*
X6177517Y33911034D01*
X6092644Y34021644D01*
X5982035Y34106517D01*
X5853227Y34159871D01*
X5715000Y34178069D01*
X5576773Y34159871D01*
X5447966Y34106517D01*
X5337356Y34021644D01*
X5252483Y33911034D01*
X5249322Y33903402D01*
X5249320Y33903398D01*
X5226169Y33847509D01*
X5217226Y33829946D01*
X5208966Y33816453D01*
X5206826Y33810645D01*
X5206823Y33810638D01*
X5199532Y33790846D01*
X5197351Y33785330D01*
X5189719Y33767281D01*
X5186573Y33760421D01*
X5180908Y33748987D01*
X5176822Y33741404D01*
X5171894Y33732964D01*
X5167215Y33725555D01*
X5160858Y33716227D01*
X5156211Y33709850D01*
X5145864Y33696545D01*
X5141847Y33691639D01*
X5125234Y33672362D01*
X5122209Y33668977D01*
X5098080Y33642938D01*
X5096103Y33640853D01*
X5063981Y33607736D01*
X5062914Y33606649D01*
X5058977Y33602687D01*
X4996773Y33568465D01*
X4969600Y33565500D01*
X4373068Y33565500D01*
X4304947Y33585502D01*
X4258454Y33639158D01*
X4248350Y33709432D01*
X4277844Y33774012D01*
X4340457Y33813207D01*
X4442560Y33840565D01*
X4442562Y33840566D01*
X4447870Y33841988D01*
X4459710Y33847509D01*
X4649755Y33936128D01*
X4649760Y33936131D01*
X4654742Y33938454D01*
X4764194Y34015094D01*
X4837208Y34066219D01*
X4837210Y34066221D01*
X4841719Y34069378D01*
X5003122Y34230781D01*
X5134046Y34417759D01*
X5136369Y34422741D01*
X5136372Y34422746D01*
X5228189Y34619648D01*
X5228190Y34619650D01*
X5230512Y34624630D01*
X5289589Y34845111D01*
X5309483Y35072500D01*
X5289589Y35299889D01*
X5230512Y35520370D01*
X5228189Y35525352D01*
X5136372Y35722254D01*
X5136369Y35722259D01*
X5134046Y35727241D01*
X5003122Y35914219D01*
X4841719Y36075622D01*
X4837205Y36078783D01*
X4837199Y36078788D01*
X4837193Y36078792D01*
X4837190Y36078796D01*
X4832995Y36082316D01*
X4833703Y36083159D01*
X4792867Y36134251D01*
X4785562Y36204871D01*
X4817596Y36268230D01*
X4878799Y36304211D01*
X4909469Y36308001D01*
X5075066Y36308001D01*
X5110818Y36315112D01*
X5137126Y36320344D01*
X5137128Y36320345D01*
X5149301Y36322766D01*
X5159621Y36329661D01*
X5159622Y36329662D01*
X5223168Y36372123D01*
X5233484Y36379016D01*
X5289734Y36463199D01*
X5304500Y36537433D01*
X5304499Y38687566D01*
X5289734Y38761801D01*
X5233484Y38845984D01*
X5149301Y38902234D01*
X5075067Y38917000D01*
X4000174Y38917000D01*
X2924934Y38916999D01*
X2889182Y38909888D01*
X2862874Y38904656D01*
X2862872Y38904655D01*
X2850699Y38902234D01*
X2840379Y38895339D01*
X2840378Y38895338D01*
X2779985Y38854984D01*
X2766516Y38845984D01*
X2710266Y38761801D01*
X2695500Y38687567D01*
X2695501Y36537434D01*
X2710266Y36463199D01*
X2766516Y36379016D01*
X2850699Y36322766D01*
X2924933Y36308000D01*
X3090530Y36308000D01*
X3158651Y36287998D01*
X3205144Y36234342D01*
X3215248Y36164068D01*
X3185754Y36099488D01*
X3166880Y36082465D01*
X3167005Y36082316D01*
X3162818Y36078803D01*
X3162802Y36078788D01*
X3158281Y36075622D01*
X2996878Y35914219D01*
X2865954Y35727241D01*
X2863631Y35722259D01*
X2863628Y35722254D01*
X2771811Y35525352D01*
X2769488Y35520370D01*
X2710411Y35299889D01*
X2690517Y35072500D01*
X2710411Y34845111D01*
X2769488Y34624630D01*
X2771810Y34619650D01*
X2771811Y34619648D01*
X2863628Y34422746D01*
X2863631Y34422741D01*
X2865954Y34417759D01*
X2996878Y34230781D01*
X3158281Y34069378D01*
X3162790Y34066221D01*
X3162792Y34066219D01*
X3235806Y34015094D01*
X3345258Y33938454D01*
X3350240Y33936131D01*
X3350245Y33936128D01*
X3540290Y33847509D01*
X3552130Y33841988D01*
X3557438Y33840566D01*
X3557440Y33840565D01*
X3659543Y33813207D01*
X3720166Y33776255D01*
X3751187Y33712395D01*
X3742759Y33641900D01*
X3697556Y33587153D01*
X3626932Y33565500D01*
X1841670Y33565500D01*
X1816705Y33567998D01*
X1804155Y33570536D01*
X1797961Y33570556D01*
X1797956Y33570556D01*
X1757626Y33570683D01*
X1756105Y33570697D01*
X1709881Y33571401D01*
X1707008Y33571477D01*
X1671483Y33572829D01*
X1666947Y33573084D01*
X1660536Y33573560D01*
X1641611Y33574965D01*
X1635305Y33575593D01*
X1618558Y33577687D01*
X1610749Y33578913D01*
X1599687Y33581009D01*
X1591139Y33582938D01*
X1581679Y33585423D01*
X1573424Y33587897D01*
X1561327Y33591979D01*
X1554257Y33594603D01*
X1536088Y33601972D01*
X1530652Y33604327D01*
X1505877Y33615763D01*
X1455269Y33633054D01*
X1455277Y33633077D01*
X1444740Y33636747D01*
X1415857Y33648711D01*
X1415854Y33648712D01*
X1408227Y33651871D01*
X1270000Y33670069D01*
X1131773Y33651871D01*
X1002966Y33598517D01*
X892356Y33513644D01*
X807483Y33403034D01*
X754129Y33274227D01*
X735931Y33136000D01*
X254500Y33136000D01*
X254500Y40629000D01*
X7593931Y40629000D01*
X7595009Y40620812D01*
X7608407Y40519048D01*
X7612129Y40490773D01*
X7665483Y40361966D01*
X7750356Y40251356D01*
X7756906Y40246330D01*
X7756907Y40246329D01*
X7805661Y40208919D01*
X7860965Y40166483D01*
X7989773Y40113129D01*
X8128000Y40094931D01*
X8136188Y40096009D01*
X8258039Y40112051D01*
X8266227Y40113129D01*
X8273856Y40116289D01*
X8273860Y40116290D01*
X8341669Y40144377D01*
X8355437Y40149167D01*
X8373554Y40154315D01*
X8413223Y40174624D01*
X8417208Y40176708D01*
X8417590Y40176912D01*
X8418970Y40177667D01*
X8421770Y40179197D01*
X8421834Y40179232D01*
X8422091Y40179373D01*
X8427714Y40182520D01*
X8462495Y40201987D01*
X8462594Y40202043D01*
X8462710Y40202108D01*
X8466662Y40204366D01*
X8466917Y40204515D01*
X8466980Y40204551D01*
X8501261Y40224536D01*
X8502494Y40225246D01*
X8526992Y40239160D01*
X8532037Y40241875D01*
X8537648Y40244733D01*
X8544525Y40248235D01*
X8553373Y40252318D01*
X8557532Y40254045D01*
X8569033Y40258177D01*
X8571397Y40258899D01*
X8583698Y40261989D01*
X8586087Y40262463D01*
X8592062Y40263647D01*
X8603336Y40265354D01*
X8623974Y40267529D01*
X8633315Y40268163D01*
X8655678Y40268848D01*
X8669604Y40269275D01*
X8675412Y40270570D01*
X8675414Y40270570D01*
X8679501Y40271481D01*
X8706916Y40274500D01*
X10849971Y40274500D01*
X10918092Y40254498D01*
X10939066Y40237595D01*
X11024205Y40152456D01*
X11041967Y40130126D01*
X11046665Y40122606D01*
X11050908Y40118095D01*
X11050911Y40118091D01*
X11071528Y40096172D01*
X11077690Y40089113D01*
X11090741Y40072987D01*
X11097511Y40063800D01*
X11102250Y40056719D01*
X11108766Y40045835D01*
X11109923Y40043661D01*
X11115147Y40032575D01*
X11116859Y40028431D01*
X11120224Y40019302D01*
X11124566Y40005952D01*
X11126217Y40000451D01*
X11133684Y39973346D01*
X11134051Y39971983D01*
X11144164Y39933598D01*
X11144229Y39933353D01*
X11145422Y39928983D01*
X11158103Y39884048D01*
X11159490Y39879304D01*
X11159616Y39878888D01*
X11161023Y39874390D01*
X11174717Y39831971D01*
X11176184Y39828734D01*
X11176188Y39828725D01*
X11197484Y39781753D01*
X11198962Y39778493D01*
X11200800Y39775420D01*
X11201112Y39774824D01*
X11205895Y39764597D01*
X11218320Y39734600D01*
X11218323Y39734595D01*
X11221483Y39726966D01*
X11306356Y39616356D01*
X11416965Y39531483D01*
X11545773Y39478129D01*
X11684000Y39459931D01*
X11692188Y39461009D01*
X11814039Y39477051D01*
X11822227Y39478129D01*
X11951035Y39531483D01*
X12061644Y39616356D01*
X12146517Y39726966D01*
X12199871Y39855773D01*
X12203594Y39884048D01*
X12216991Y39985812D01*
X12218069Y39994000D01*
X12199871Y40132227D01*
X12146517Y40261034D01*
X12061644Y40371644D01*
X11951035Y40456517D01*
X11875608Y40487760D01*
X11862471Y40494117D01*
X11851440Y40500267D01*
X11851434Y40500270D01*
X11846029Y40503283D01*
X11840143Y40505183D01*
X11840141Y40505184D01*
X11811890Y40514304D01*
X11803588Y40516984D01*
X11803404Y40517041D01*
X11803327Y40517066D01*
X11799102Y40518385D01*
X11798920Y40518442D01*
X11798546Y40518555D01*
X11793974Y40519891D01*
X11749019Y40532578D01*
X11748839Y40532627D01*
X11748800Y40532638D01*
X11744786Y40533733D01*
X11744647Y40533771D01*
X11744412Y40533833D01*
X11706017Y40543949D01*
X11704654Y40544316D01*
X11689100Y40548601D01*
X11677537Y40551787D01*
X11672067Y40553428D01*
X11658698Y40557776D01*
X11649569Y40561141D01*
X11645425Y40562853D01*
X11634339Y40568077D01*
X11632165Y40569234D01*
X11621281Y40575750D01*
X11614200Y40580489D01*
X11605013Y40587259D01*
X11588887Y40600310D01*
X11581828Y40606472D01*
X11559730Y40627257D01*
X11559728Y40627259D01*
X11555394Y40631335D01*
X11550375Y40634524D01*
X11550369Y40634529D01*
X11546831Y40636777D01*
X11525313Y40654026D01*
X11335916Y40843422D01*
X11323414Y40858902D01*
X11320475Y40862132D01*
X11314825Y40870882D01*
X11290562Y40890009D01*
X11286567Y40893559D01*
X11286483Y40893460D01*
X11282520Y40896818D01*
X11278844Y40900494D01*
X11274614Y40903517D01*
X11264348Y40910854D01*
X11259605Y40914415D01*
X11230325Y40937497D01*
X11230321Y40937499D01*
X11222143Y40943946D01*
X11214075Y40946779D01*
X11207115Y40951753D01*
X11161414Y40965420D01*
X11155765Y40967256D01*
X11118269Y40980424D01*
X11118270Y40980424D01*
X11110792Y40983050D01*
X11105596Y40983500D01*
X11102891Y40983500D01*
X11100635Y40983597D01*
X11100159Y40983740D01*
X11100161Y40983786D01*
X11099962Y40983799D01*
X11094045Y40985568D01*
X11044411Y40983618D01*
X11043876Y40983597D01*
X11038930Y40983500D01*
X8706595Y40983500D01*
X8678239Y40986732D01*
X8675633Y40987334D01*
X8675629Y40987334D01*
X8669605Y40988726D01*
X8648206Y40989381D01*
X8633315Y40989838D01*
X8623975Y40990472D01*
X8623054Y40990569D01*
X8603336Y40992647D01*
X8592062Y40994354D01*
X8586087Y40995538D01*
X8583698Y40996012D01*
X8571397Y40999102D01*
X8569033Y40999824D01*
X8557532Y41003956D01*
X8553373Y41005683D01*
X8544525Y41009766D01*
X8532037Y41016126D01*
X8526990Y41018842D01*
X8502486Y41032760D01*
X8501253Y41033470D01*
X8467060Y41053405D01*
X8466997Y41053441D01*
X8466766Y41053576D01*
X8462809Y41055837D01*
X8462579Y41055966D01*
X8422279Y41078523D01*
X8422223Y41078554D01*
X8422114Y41078615D01*
X8421983Y41078687D01*
X8421914Y41078725D01*
X8418386Y41080659D01*
X8418320Y41080695D01*
X8418077Y41080828D01*
X8417695Y41081033D01*
X8417430Y41081172D01*
X8413574Y41083194D01*
X8413501Y41083232D01*
X8413243Y41083367D01*
X8373552Y41103687D01*
X8370213Y41104943D01*
X8370208Y41104945D01*
X8345491Y41114241D01*
X8318570Y41124366D01*
X8315113Y41125235D01*
X8314474Y41125435D01*
X8303858Y41129284D01*
X8300017Y41130875D01*
X8266227Y41144871D01*
X8128000Y41163069D01*
X7989773Y41144871D01*
X7860966Y41091517D01*
X7854412Y41086488D01*
X7764769Y41017703D01*
X7750356Y41006644D01*
X7745330Y41000094D01*
X7737947Y40990472D01*
X7665483Y40896034D01*
X7612129Y40767227D01*
X7593931Y40629000D01*
X254500Y40629000D01*
X254500Y49006581D01*
X2446001Y49006581D01*
X2446371Y48999760D01*
X2451895Y48948898D01*
X2455521Y48933646D01*
X2500676Y48813196D01*
X2509214Y48797601D01*
X2585715Y48695526D01*
X2598276Y48682965D01*
X2700351Y48606464D01*
X2715946Y48597926D01*
X2836394Y48552772D01*
X2851649Y48549145D01*
X2873638Y48546756D01*
X2939200Y48519515D01*
X2979627Y48461152D01*
X2982083Y48390198D01*
X2963244Y48349223D01*
X2869954Y48215991D01*
X2867631Y48211009D01*
X2867628Y48211004D01*
X2817332Y48103144D01*
X2773488Y48009120D01*
X2772066Y48003812D01*
X2772065Y48003810D01*
X2736575Y47871356D01*
X2714411Y47788639D01*
X2694517Y47561250D01*
X2714411Y47333861D01*
X2715835Y47328547D01*
X2715835Y47328546D01*
X2757851Y47171740D01*
X2773488Y47113380D01*
X2775810Y47108400D01*
X2775811Y47108398D01*
X2867628Y46911496D01*
X2867631Y46911491D01*
X2869954Y46906509D01*
X3000878Y46719531D01*
X3162281Y46558128D01*
X3349258Y46427204D01*
X3354243Y46424879D01*
X3354249Y46424876D01*
X3395920Y46405445D01*
X3449206Y46358528D01*
X3468667Y46290251D01*
X3448126Y46222291D01*
X3395921Y46177055D01*
X3354246Y46157622D01*
X3354241Y46157619D01*
X3349259Y46155296D01*
X3162281Y46024372D01*
X3000878Y45862969D01*
X2997721Y45858461D01*
X2997719Y45858458D01*
X2965031Y45811775D01*
X2869954Y45675991D01*
X2867631Y45671009D01*
X2867628Y45671004D01*
X2777848Y45478470D01*
X2773488Y45469120D01*
X2772066Y45463812D01*
X2772065Y45463810D01*
X2718156Y45262615D01*
X2714411Y45248639D01*
X2694517Y45021250D01*
X2714411Y44793861D01*
X2715835Y44788547D01*
X2715835Y44788546D01*
X2767368Y44596222D01*
X2773488Y44573380D01*
X2775810Y44568400D01*
X2775811Y44568398D01*
X2867628Y44371496D01*
X2867631Y44371491D01*
X2869954Y44366509D01*
X2905772Y44315356D01*
X2997049Y44185000D01*
X3000878Y44179531D01*
X3162281Y44018128D01*
X3166790Y44014971D01*
X3166792Y44014969D01*
X3211550Y43983629D01*
X3349258Y43887204D01*
X3354243Y43884879D01*
X3354249Y43884876D01*
X3395920Y43865445D01*
X3449206Y43818528D01*
X3468667Y43750251D01*
X3448126Y43682291D01*
X3395921Y43637055D01*
X3354246Y43617622D01*
X3354241Y43617619D01*
X3349259Y43615296D01*
X3162281Y43484372D01*
X3000878Y43322969D01*
X2869954Y43135991D01*
X2867631Y43131009D01*
X2867628Y43131004D01*
X2778073Y42938952D01*
X2773488Y42929120D01*
X2772066Y42923812D01*
X2772065Y42923810D01*
X2764004Y42893726D01*
X2714411Y42708639D01*
X2694517Y42481250D01*
X2714411Y42253861D01*
X2715835Y42248547D01*
X2715835Y42248546D01*
X2758899Y42087829D01*
X2773488Y42033380D01*
X2775810Y42028400D01*
X2775811Y42028398D01*
X2867628Y41831496D01*
X2867631Y41831491D01*
X2869954Y41826509D01*
X2906023Y41774997D01*
X2994921Y41648039D01*
X3000878Y41639531D01*
X3162281Y41478128D01*
X3349258Y41347204D01*
X3354240Y41344881D01*
X3354245Y41344878D01*
X3539274Y41258598D01*
X3556130Y41250738D01*
X3561438Y41249316D01*
X3561440Y41249315D01*
X3771296Y41193085D01*
X3776611Y41191661D01*
X4004000Y41171767D01*
X4231389Y41191661D01*
X4236704Y41193085D01*
X4446560Y41249315D01*
X4446562Y41249316D01*
X4451870Y41250738D01*
X4468726Y41258598D01*
X4653755Y41344878D01*
X4653760Y41344881D01*
X4658742Y41347204D01*
X4845719Y41478128D01*
X5007122Y41639531D01*
X5013080Y41648039D01*
X5101977Y41774997D01*
X5138046Y41826509D01*
X5140369Y41831491D01*
X5140372Y41831496D01*
X5232189Y42028398D01*
X5232190Y42028400D01*
X5234512Y42033380D01*
X5249102Y42087829D01*
X5292165Y42248546D01*
X5292165Y42248547D01*
X5293589Y42253861D01*
X5313483Y42481250D01*
X5293589Y42708639D01*
X5243996Y42893726D01*
X5235935Y42923810D01*
X5235934Y42923812D01*
X5234512Y42929120D01*
X5229927Y42938952D01*
X5140372Y43131004D01*
X5140369Y43131009D01*
X5138046Y43135991D01*
X5007122Y43322969D01*
X4845719Y43484372D01*
X4658742Y43615296D01*
X4653760Y43617619D01*
X4653755Y43617622D01*
X4612080Y43637055D01*
X4558795Y43683973D01*
X4539334Y43752250D01*
X4559876Y43820210D01*
X4612080Y43865445D01*
X4653755Y43884878D01*
X4653760Y43884881D01*
X4658742Y43887204D01*
X4796450Y43983629D01*
X4841208Y44014969D01*
X4841210Y44014971D01*
X4845719Y44018128D01*
X5007122Y44179531D01*
X5010952Y44185000D01*
X5102228Y44315356D01*
X5138046Y44366509D01*
X5140369Y44371491D01*
X5140372Y44371496D01*
X5232189Y44568398D01*
X5232190Y44568400D01*
X5234512Y44573380D01*
X5240633Y44596222D01*
X5266564Y44693000D01*
X9879931Y44693000D01*
X9881009Y44684812D01*
X9893608Y44589117D01*
X9898129Y44554773D01*
X9951483Y44425966D01*
X10036356Y44315356D01*
X10146965Y44230483D01*
X10275773Y44177129D01*
X10283961Y44176051D01*
X10315445Y44171906D01*
X10414000Y44158931D01*
X10422188Y44160009D01*
X10544039Y44176051D01*
X10552227Y44177129D01*
X10681035Y44230483D01*
X10791644Y44315356D01*
X10876517Y44425966D01*
X10929871Y44554773D01*
X10934393Y44589117D01*
X10946991Y44684812D01*
X10948069Y44693000D01*
X10936688Y44779445D01*
X10930949Y44823041D01*
X10930948Y44823043D01*
X10929871Y44831227D01*
X10905572Y44889890D01*
X10898933Y44910993D01*
X10897343Y44918209D01*
X10897343Y44918210D01*
X10896011Y44924253D01*
X10889853Y44938296D01*
X10886083Y44947957D01*
X10884661Y44952096D01*
X10881602Y44962414D01*
X10880681Y44966090D01*
X10878621Y44975980D01*
X10877377Y44983439D01*
X10876262Y44991868D01*
X10874821Y45006560D01*
X10874359Y45012923D01*
X10874225Y45015775D01*
X10873228Y45036905D01*
X10873100Y45041074D01*
X10872621Y45075226D01*
X10872610Y45077439D01*
X10872766Y45121512D01*
X10872770Y45122147D01*
X10873225Y45175187D01*
X10873233Y45176277D01*
X10873234Y45176401D01*
X10873420Y45218892D01*
X10873420Y45218895D01*
X10873447Y45225113D01*
X10870842Y45238436D01*
X10868500Y45262615D01*
X10868500Y47119550D01*
X10888502Y47187671D01*
X10905405Y47208645D01*
X12216355Y48519595D01*
X12278667Y48553621D01*
X12305450Y48556500D01*
X18797395Y48556500D01*
X18865516Y48536498D01*
X18912009Y48482842D01*
X18922113Y48412568D01*
X18919102Y48397890D01*
X18918289Y48394856D01*
X18915129Y48387227D01*
X18914051Y48379039D01*
X18911407Y48358953D01*
X18896931Y48249000D01*
X18915129Y48110773D01*
X18968483Y47981966D01*
X19053356Y47871356D01*
X19059906Y47866330D01*
X19059907Y47866329D01*
X19108660Y47828920D01*
X19163965Y47786483D01*
X19201412Y47770972D01*
X19239392Y47755240D01*
X19252523Y47748887D01*
X19268975Y47739716D01*
X19311415Y47726016D01*
X19316079Y47724559D01*
X19316453Y47724446D01*
X19321025Y47723110D01*
X19365980Y47710423D01*
X19366160Y47710374D01*
X19366199Y47710363D01*
X19369302Y47709516D01*
X19370352Y47709230D01*
X19370564Y47709174D01*
X19370587Y47709168D01*
X19408982Y47699052D01*
X19410345Y47698685D01*
X19425899Y47694400D01*
X19437462Y47691214D01*
X19442932Y47689573D01*
X19456301Y47685225D01*
X19465430Y47681860D01*
X19469574Y47680148D01*
X19480656Y47674926D01*
X19482834Y47673767D01*
X19493704Y47667260D01*
X19500806Y47662508D01*
X19509990Y47655739D01*
X19526105Y47642696D01*
X19533151Y47636547D01*
X19559605Y47611665D01*
X19568170Y47606222D01*
X19589688Y47588973D01*
X21333451Y45845211D01*
X21346060Y45830495D01*
X21356687Y45815964D01*
X21393240Y45782385D01*
X21402271Y45774467D01*
X21403110Y45773765D01*
X21406363Y45771171D01*
X21406401Y45771141D01*
X21416941Y45761721D01*
X21430082Y45748580D01*
X21442587Y45733098D01*
X21445523Y45729871D01*
X21451175Y45721118D01*
X21475438Y45701991D01*
X21479433Y45698441D01*
X21479517Y45698540D01*
X21483480Y45695182D01*
X21487156Y45691506D01*
X21491385Y45688483D01*
X21491386Y45688483D01*
X21501652Y45681146D01*
X21506395Y45677585D01*
X21537010Y45653451D01*
X21578124Y45595571D01*
X21581419Y45524651D01*
X21545849Y45463208D01*
X21482707Y45430749D01*
X21459006Y45428500D01*
X19374595Y45428500D01*
X19346239Y45431732D01*
X19343633Y45432334D01*
X19343629Y45432334D01*
X19337605Y45433726D01*
X19316206Y45434381D01*
X19301315Y45434838D01*
X19291975Y45435472D01*
X19291054Y45435569D01*
X19271336Y45437647D01*
X19260062Y45439354D01*
X19254087Y45440538D01*
X19251698Y45441012D01*
X19239397Y45444102D01*
X19237033Y45444824D01*
X19225532Y45448956D01*
X19221373Y45450683D01*
X19212525Y45454766D01*
X19200037Y45461126D01*
X19194990Y45463842D01*
X19170486Y45477760D01*
X19169253Y45478470D01*
X19135060Y45498405D01*
X19134997Y45498441D01*
X19134766Y45498576D01*
X19130809Y45500837D01*
X19130579Y45500966D01*
X19090279Y45523523D01*
X19090223Y45523554D01*
X19090114Y45523615D01*
X19089983Y45523687D01*
X19089914Y45523725D01*
X19086386Y45525659D01*
X19086320Y45525695D01*
X19086077Y45525828D01*
X19085695Y45526033D01*
X19085430Y45526172D01*
X19081574Y45528194D01*
X19081501Y45528232D01*
X19081243Y45528367D01*
X19041552Y45548687D01*
X19038213Y45549943D01*
X19038208Y45549945D01*
X19014402Y45558898D01*
X18986570Y45569366D01*
X18983113Y45570235D01*
X18982474Y45570435D01*
X18971858Y45574284D01*
X18934227Y45589871D01*
X18796000Y45608069D01*
X18657773Y45589871D01*
X18528966Y45536517D01*
X18418356Y45451644D01*
X18413330Y45445094D01*
X18405947Y45435472D01*
X18333483Y45341034D01*
X18280129Y45212227D01*
X18261931Y45074000D01*
X18280129Y44935773D01*
X18333483Y44806966D01*
X18338512Y44800412D01*
X18359167Y44773493D01*
X18384766Y44707272D01*
X18370500Y44637724D01*
X18335906Y44596828D01*
X18291356Y44562644D01*
X18206483Y44452034D01*
X18153129Y44323227D01*
X18134931Y44185000D01*
X18153129Y44046773D01*
X18156288Y44039146D01*
X18156289Y44039143D01*
X18196735Y43941498D01*
X18204324Y43870908D01*
X18169723Y43804762D01*
X18164356Y43800644D01*
X18079483Y43690034D01*
X18026129Y43561227D01*
X18007931Y43423000D01*
X18026129Y43284773D01*
X18079483Y43155966D01*
X18164356Y43045356D01*
X18170906Y43040330D01*
X18170907Y43040329D01*
X18208907Y43011171D01*
X18250774Y42953833D01*
X18254996Y42882962D01*
X18232167Y42834507D01*
X18206483Y42801034D01*
X18153129Y42672227D01*
X18134931Y42534000D01*
X18153129Y42395773D01*
X18206483Y42266966D01*
X18291356Y42156356D01*
X18297906Y42151330D01*
X18297911Y42151325D01*
X18330966Y42125961D01*
X18372833Y42068623D01*
X18377055Y41997752D01*
X18342291Y41935849D01*
X18330973Y41926043D01*
X18291356Y41895644D01*
X18206483Y41785034D01*
X18153129Y41656227D01*
X18134931Y41518000D01*
X18153129Y41379773D01*
X18206483Y41250966D01*
X18291356Y41140356D01*
X18297906Y41135330D01*
X18297907Y41135329D01*
X18335907Y41106171D01*
X18377774Y41048833D01*
X18381996Y40977962D01*
X18359167Y40929507D01*
X18333483Y40896034D01*
X18280129Y40767227D01*
X18261931Y40629000D01*
X18263009Y40620812D01*
X18276407Y40519048D01*
X18280129Y40490773D01*
X18333483Y40361966D01*
X18418356Y40251356D01*
X18424906Y40246330D01*
X18424907Y40246329D01*
X18473661Y40208919D01*
X18528965Y40166483D01*
X18657773Y40113129D01*
X18796000Y40094931D01*
X18804188Y40096009D01*
X18926039Y40112051D01*
X18934227Y40113129D01*
X19063035Y40166483D01*
X19118339Y40208919D01*
X19167093Y40246329D01*
X19167094Y40246330D01*
X19173644Y40251356D01*
X19258517Y40361966D01*
X19289759Y40437389D01*
X19296110Y40450518D01*
X19302274Y40461576D01*
X19302274Y40461577D01*
X19305284Y40466976D01*
X19315609Y40498961D01*
X19318903Y40509164D01*
X19318931Y40509251D01*
X19318977Y40509395D01*
X19320383Y40513888D01*
X19320509Y40514304D01*
X19321896Y40519048D01*
X19334577Y40563983D01*
X19334615Y40564121D01*
X19334642Y40564219D01*
X19335694Y40568077D01*
X19335770Y40568354D01*
X19345957Y40607021D01*
X19346273Y40608191D01*
X19352006Y40629000D01*
X19353785Y40635461D01*
X19355437Y40640963D01*
X19359774Y40654297D01*
X19363134Y40663416D01*
X19364844Y40667557D01*
X19370076Y40678661D01*
X19371233Y40680835D01*
X19377747Y40691715D01*
X19382487Y40698798D01*
X19389261Y40707991D01*
X19402307Y40724110D01*
X19408457Y40731156D01*
X19433333Y40757604D01*
X19438779Y40766174D01*
X19456024Y40787685D01*
X19623076Y40954737D01*
X19794933Y41126595D01*
X19857246Y41160620D01*
X19884029Y41163500D01*
X21646413Y41163500D01*
X21674766Y41160268D01*
X21683396Y41158275D01*
X21689578Y41158086D01*
X21689583Y41158085D01*
X21719684Y41157163D01*
X21729025Y41156529D01*
X21749663Y41154354D01*
X21760937Y41152647D01*
X21766912Y41151463D01*
X21769301Y41150989D01*
X21781602Y41147899D01*
X21783966Y41147177D01*
X21795467Y41143045D01*
X21799626Y41141318D01*
X21808474Y41137235D01*
X21815351Y41133733D01*
X21820962Y41130875D01*
X21826009Y41128159D01*
X21850513Y41114241D01*
X21851746Y41113531D01*
X21885939Y41093596D01*
X21886002Y41093560D01*
X21886233Y41093425D01*
X21890190Y41091164D01*
X21890381Y41091057D01*
X21890420Y41091035D01*
X21908290Y41081033D01*
X21930885Y41068386D01*
X21935388Y41065924D01*
X21935770Y41065720D01*
X21939754Y41063636D01*
X21979446Y41043315D01*
X22034383Y41022647D01*
X22037855Y41021773D01*
X22038569Y41021550D01*
X22049162Y41017708D01*
X22086773Y41002129D01*
X22225000Y40983931D01*
X22233188Y40985009D01*
X22234328Y40985159D01*
X22363227Y41002129D01*
X22492035Y41055483D01*
X22580170Y41123111D01*
X22596093Y41135329D01*
X22596094Y41135330D01*
X22602644Y41140356D01*
X22687517Y41250966D01*
X22740871Y41379773D01*
X22759069Y41518000D01*
X22740871Y41656227D01*
X22744007Y41656640D01*
X22745354Y41712676D01*
X22785161Y41771463D01*
X22815027Y41787252D01*
X22814254Y41788862D01*
X22814268Y41788869D01*
X22814270Y41788869D01*
X22817626Y41790480D01*
X22823239Y41792780D01*
X22830417Y41793975D01*
X22872401Y41816629D01*
X22877664Y41819310D01*
X22892656Y41826509D01*
X22920658Y41839955D01*
X22924650Y41843311D01*
X22926597Y41845258D01*
X22928222Y41846748D01*
X22928654Y41846981D01*
X22928687Y41846945D01*
X22928845Y41847084D01*
X22934280Y41850017D01*
X22941348Y41857663D01*
X22942839Y41858820D01*
X22954335Y41866758D01*
X22957716Y41868826D01*
X22958328Y41869200D01*
X22967599Y41875144D01*
X22968433Y41875704D01*
X22977658Y41882193D01*
X23009646Y41905751D01*
X23009874Y41905922D01*
X23009923Y41905958D01*
X23012683Y41908025D01*
X23012688Y41908029D01*
X23012918Y41908201D01*
X23021271Y41914558D01*
X23072721Y41937815D01*
X23079768Y41939233D01*
X23090717Y41941436D01*
X23099101Y41942830D01*
X23188727Y41954629D01*
X23317535Y42007983D01*
X23428144Y42092856D01*
X23513017Y42203466D01*
X23566371Y42332273D01*
X23584569Y42470500D01*
X23566371Y42608727D01*
X23513017Y42737534D01*
X23433134Y42841641D01*
X23407534Y42907861D01*
X23421799Y42977410D01*
X23456393Y43018307D01*
X23485093Y43040329D01*
X23485094Y43040330D01*
X23491644Y43045356D01*
X23576517Y43155966D01*
X23629871Y43284773D01*
X23648069Y43423000D01*
X23629871Y43561227D01*
X23576517Y43690034D01*
X23571490Y43696585D01*
X23571488Y43696589D01*
X23523133Y43759607D01*
X23497533Y43825828D01*
X23511798Y43895376D01*
X23523133Y43913013D01*
X23569059Y43972866D01*
X23574088Y43979420D01*
X23627442Y44108227D01*
X23645640Y44246454D01*
X23627442Y44384681D01*
X23574088Y44513488D01*
X23489215Y44624098D01*
X23471454Y44637727D01*
X23429552Y44669879D01*
X23378606Y44708971D01*
X23249798Y44762325D01*
X23111571Y44780523D01*
X23103383Y44779445D01*
X23103381Y44779445D01*
X23087550Y44777361D01*
X23017401Y44788301D01*
X22964303Y44835430D01*
X22945114Y44903784D01*
X22965926Y44971662D01*
X22994402Y45002246D01*
X22999068Y45005826D01*
X22999072Y45005830D01*
X23005622Y45010856D01*
X23090495Y45121466D01*
X23143849Y45250273D01*
X23162047Y45388500D01*
X23147278Y45500685D01*
X23144927Y45518539D01*
X23143849Y45526727D01*
X23138485Y45539678D01*
X23125587Y45570814D01*
X23090495Y45655534D01*
X23005622Y45766144D01*
X22996246Y45773339D01*
X22911538Y45838337D01*
X22895013Y45851017D01*
X22766205Y45904371D01*
X22733414Y45908688D01*
X22668487Y45937410D01*
X22629395Y45996676D01*
X22624938Y46017164D01*
X22614949Y46093039D01*
X22613871Y46101227D01*
X22560517Y46230034D01*
X22475644Y46340644D01*
X22365035Y46425517D01*
X22236227Y46478871D01*
X22098000Y46497069D01*
X22089812Y46495991D01*
X21967959Y46479949D01*
X21967957Y46479948D01*
X21959773Y46478871D01*
X21952145Y46475711D01*
X21952140Y46475710D01*
X21877926Y46444969D01*
X21866277Y46440801D01*
X21854224Y46437145D01*
X21854179Y46437131D01*
X21854177Y46437131D01*
X21848301Y46435349D01*
X21847963Y46436464D01*
X21783603Y46429549D01*
X21716889Y46464450D01*
X20090799Y48090539D01*
X20073036Y48112870D01*
X20068335Y48120395D01*
X20043453Y48146849D01*
X20037304Y48153895D01*
X20024261Y48170010D01*
X20017492Y48179194D01*
X20012740Y48186296D01*
X20006233Y48197166D01*
X20005076Y48199340D01*
X19999852Y48210426D01*
X19998140Y48214570D01*
X19994775Y48223699D01*
X19990427Y48237068D01*
X19988782Y48242550D01*
X19981315Y48269655D01*
X19980948Y48271018D01*
X19970835Y48309403D01*
X19970810Y48309497D01*
X19970770Y48309648D01*
X19969577Y48314018D01*
X19956896Y48358953D01*
X19955509Y48363697D01*
X19955383Y48364113D01*
X19953977Y48368608D01*
X19940284Y48411026D01*
X19931789Y48429764D01*
X19917513Y48461255D01*
X19917508Y48461265D01*
X19916038Y48464507D01*
X19914210Y48467564D01*
X19913885Y48468184D01*
X19909106Y48478401D01*
X19896679Y48508402D01*
X19896677Y48508406D01*
X19893517Y48516034D01*
X19877815Y48536498D01*
X19824140Y48606450D01*
X19798540Y48672671D01*
X19812805Y48742219D01*
X19835008Y48772248D01*
X21724760Y50662000D01*
X30834931Y50662000D01*
X30853129Y50523773D01*
X30856288Y50516147D01*
X30882761Y50452236D01*
X30887968Y50436965D01*
X30892744Y50419334D01*
X30895496Y50413792D01*
X30895497Y50413790D01*
X30911533Y50381499D01*
X30911620Y50381324D01*
X30912908Y50378767D01*
X30912929Y50378726D01*
X30932684Y50340040D01*
X30933098Y50339222D01*
X30948048Y50309410D01*
X30949746Y50305888D01*
X30958603Y50286755D01*
X30961390Y50280263D01*
X30965708Y50269372D01*
X30968859Y50260464D01*
X30971076Y50253356D01*
X30973766Y50243281D01*
X30975849Y50233943D01*
X30977622Y50224205D01*
X30980080Y50206875D01*
X30980984Y50198505D01*
X30983155Y50169231D01*
X30983471Y50162609D01*
X30984315Y50122931D01*
X30986673Y50111991D01*
X30989500Y50085452D01*
X30989500Y47794920D01*
X30986951Y47770972D01*
X30986872Y47769307D01*
X30984680Y47759124D01*
X30985904Y47748783D01*
X30988627Y47725777D01*
X30988977Y47719846D01*
X30989072Y47719854D01*
X30989500Y47714676D01*
X30989500Y47709476D01*
X30990354Y47704347D01*
X30990354Y47704344D01*
X30992669Y47690435D01*
X30993506Y47684557D01*
X30996115Y47662517D01*
X30999530Y47633659D01*
X31003493Y47625407D01*
X31004996Y47616374D01*
X31009943Y47607205D01*
X31009944Y47607203D01*
X31029334Y47571268D01*
X31032031Y47565975D01*
X31050785Y47526918D01*
X31050788Y47526914D01*
X31054219Y47519768D01*
X31057814Y47515492D01*
X31059737Y47513569D01*
X31061509Y47511637D01*
X31061552Y47511558D01*
X31061428Y47511445D01*
X31061904Y47510905D01*
X31064990Y47505186D01*
X31072635Y47498119D01*
X31104586Y47468584D01*
X31108152Y47465154D01*
X33487160Y45086146D01*
X33504295Y45064809D01*
X33509806Y45056168D01*
X33537264Y45027515D01*
X33541716Y45022617D01*
X33560894Y45000368D01*
X33566180Y44993804D01*
X33576687Y44979824D01*
X33582322Y44971678D01*
X33587449Y44963606D01*
X33592673Y44954576D01*
X33596120Y44948004D01*
X33600198Y44939464D01*
X33604849Y44928702D01*
X33607464Y44922155D01*
X33614738Y44902339D01*
X33616035Y44898626D01*
X33626506Y44867091D01*
X33626796Y44866208D01*
X33634868Y44841287D01*
X33640180Y44824885D01*
X33640789Y44823041D01*
X33641028Y44822316D01*
X33641148Y44821953D01*
X33650153Y44795183D01*
X33654647Y44781824D01*
X33678714Y44730006D01*
X33680111Y44727703D01*
X33684969Y44717419D01*
X33694070Y44695449D01*
X33700483Y44679966D01*
X33785356Y44569356D01*
X33791906Y44564330D01*
X33791907Y44564329D01*
X33819447Y44543197D01*
X33895965Y44484483D01*
X34024773Y44431129D01*
X34163000Y44412931D01*
X34171188Y44414009D01*
X34293039Y44430051D01*
X34301227Y44431129D01*
X34430035Y44484483D01*
X34506553Y44543197D01*
X34534093Y44564329D01*
X34534094Y44564330D01*
X34540644Y44569356D01*
X34625517Y44679966D01*
X34678871Y44808773D01*
X34686490Y44866641D01*
X34695991Y44938812D01*
X34697069Y44947000D01*
X34682010Y45061387D01*
X34679949Y45077039D01*
X34678871Y45085227D01*
X34625517Y45214034D01*
X34540644Y45324644D01*
X34529231Y45333402D01*
X34436586Y45404490D01*
X34430035Y45409517D01*
X34384205Y45428500D01*
X34358508Y45439144D01*
X34344031Y45446258D01*
X34333547Y45452272D01*
X34328178Y45455352D01*
X34322310Y45457326D01*
X34288240Y45468787D01*
X34288131Y45468823D01*
X34288022Y45468860D01*
X34287919Y45468894D01*
X34287817Y45468928D01*
X34285559Y45469673D01*
X34285560Y45469673D01*
X34285250Y45469775D01*
X34243829Y45483192D01*
X34243047Y45483448D01*
X34228778Y45488186D01*
X34211384Y45493961D01*
X34207672Y45495259D01*
X34187866Y45502529D01*
X34181298Y45505151D01*
X34170536Y45509802D01*
X34161996Y45513880D01*
X34155424Y45517327D01*
X34146394Y45522551D01*
X34140693Y45526172D01*
X34138317Y45527682D01*
X34130184Y45533308D01*
X34116188Y45543827D01*
X34109632Y45549106D01*
X34087383Y45568284D01*
X34082485Y45572736D01*
X34053832Y45600194D01*
X34044430Y45606261D01*
X34023664Y45623030D01*
X31785405Y47861289D01*
X31751379Y47923601D01*
X31748500Y47950384D01*
X31748500Y50085724D01*
X31751472Y50112928D01*
X31752348Y50116891D01*
X31753685Y50122936D01*
X31754528Y50162592D01*
X31754845Y50169231D01*
X31757015Y50198498D01*
X31757919Y50206875D01*
X31760377Y50224205D01*
X31762150Y50233943D01*
X31764233Y50243281D01*
X31766923Y50253356D01*
X31769140Y50260464D01*
X31772291Y50269372D01*
X31776609Y50280263D01*
X31779396Y50286755D01*
X31788253Y50305888D01*
X31789950Y50309410D01*
X31804901Y50339222D01*
X31805284Y50339977D01*
X31824886Y50378363D01*
X31824899Y50378390D01*
X31825010Y50378606D01*
X31826315Y50381197D01*
X31845251Y50419324D01*
X31864881Y50472997D01*
X31865525Y50475624D01*
X31869362Y50486332D01*
X31881711Y50516145D01*
X31881712Y50516147D01*
X31884871Y50523773D01*
X31903069Y50662000D01*
X31884871Y50800227D01*
X31831517Y50929034D01*
X31746644Y51039644D01*
X31636035Y51124517D01*
X31507227Y51177871D01*
X31369000Y51196069D01*
X31230773Y51177871D01*
X31101966Y51124517D01*
X30991356Y51039644D01*
X30906483Y50929034D01*
X30853129Y50800227D01*
X30834931Y50662000D01*
X21724760Y50662000D01*
X23919011Y52856251D01*
X23930100Y52866106D01*
X23931444Y52867165D01*
X23957059Y52887359D01*
X23990742Y52936094D01*
X23993024Y52939287D01*
X24028209Y52986924D01*
X24030623Y52993797D01*
X24034764Y52999789D01*
X24052629Y53056278D01*
X24053880Y53060027D01*
X24073493Y53115874D01*
X24073776Y53123078D01*
X24073809Y53123249D01*
X24075975Y53130097D01*
X24076500Y53136768D01*
X24076500Y53189938D01*
X24076597Y53194884D01*
X24078488Y53243024D01*
X24078858Y53252437D01*
X24076961Y53259592D01*
X24076500Y53267967D01*
X24076500Y54287548D01*
X24086091Y54335766D01*
X24134711Y54453144D01*
X24137871Y54460773D01*
X24156069Y54599000D01*
X24137871Y54737227D01*
X24090642Y54851246D01*
X24081057Y54898382D01*
X24080770Y54931857D01*
X24080766Y54932490D01*
X24080610Y54976481D01*
X24080621Y54978691D01*
X24081100Y55012924D01*
X24081228Y55017097D01*
X24082359Y55041078D01*
X24082821Y55047441D01*
X24084262Y55062133D01*
X24085377Y55070562D01*
X24086621Y55078021D01*
X24088682Y55087915D01*
X24089603Y55091591D01*
X24092665Y55101918D01*
X24094087Y55106056D01*
X24097854Y55115708D01*
X24102767Y55126911D01*
X24102769Y55126917D01*
X24104009Y55129744D01*
X24119684Y55177868D01*
X24123072Y55187045D01*
X24137871Y55222773D01*
X24156069Y55361000D01*
X24137871Y55499227D01*
X24130421Y55517214D01*
X24127053Y55525343D01*
X24084517Y55628034D01*
X23999644Y55738644D01*
X23889035Y55823517D01*
X23760227Y55876871D01*
X23622000Y55895069D01*
X23483773Y55876871D01*
X23354966Y55823517D01*
X23348415Y55818490D01*
X23348412Y55818488D01*
X23303220Y55783811D01*
X23244356Y55738644D01*
X23159483Y55628034D01*
X23116947Y55525343D01*
X23113580Y55517214D01*
X23106129Y55499227D01*
X23087931Y55361000D01*
X23106129Y55222773D01*
X23130429Y55164108D01*
X23137066Y55143013D01*
X23139988Y55129751D01*
X23142473Y55124084D01*
X23142474Y55124081D01*
X23146145Y55115710D01*
X23149917Y55106042D01*
X23151339Y55101902D01*
X23154391Y55091609D01*
X23155313Y55087931D01*
X23157378Y55078021D01*
X23158622Y55070562D01*
X23159738Y55062126D01*
X23161178Y55047436D01*
X23161639Y55041086D01*
X23162773Y55017067D01*
X23162901Y55012891D01*
X23163377Y54978929D01*
X23163388Y54976721D01*
X23163233Y54932496D01*
X23163229Y54931858D01*
X23162942Y54898380D01*
X23153356Y54851243D01*
X23106129Y54737227D01*
X23087931Y54599000D01*
X23106129Y54460773D01*
X23109289Y54453144D01*
X23157909Y54335766D01*
X23167500Y54287548D01*
X23167500Y53442450D01*
X23147498Y53374329D01*
X23130595Y53353355D01*
X19279645Y49502405D01*
X19217333Y49468379D01*
X19190550Y49465500D01*
X12099464Y49465500D01*
X12084654Y49466373D01*
X12050563Y49470408D01*
X11992275Y49459763D01*
X11988424Y49459122D01*
X11929849Y49450315D01*
X11923282Y49447162D01*
X11916117Y49445853D01*
X11907762Y49441513D01*
X11863564Y49418554D01*
X11860023Y49416785D01*
X11815140Y49395233D01*
X11815137Y49395231D01*
X11806647Y49391154D01*
X11801357Y49386264D01*
X11801202Y49386159D01*
X11794835Y49382852D01*
X11789746Y49378506D01*
X11752164Y49340924D01*
X11748599Y49337494D01*
X11706288Y49298383D01*
X11702570Y49291983D01*
X11696963Y49285723D01*
X10116989Y47705749D01*
X10105900Y47695894D01*
X10078941Y47674641D01*
X10073587Y47666894D01*
X10045258Y47625906D01*
X10042976Y47622713D01*
X10007791Y47575076D01*
X10005377Y47568203D01*
X10001236Y47562211D01*
X9986461Y47515492D01*
X9983374Y47505730D01*
X9982129Y47502001D01*
X9962507Y47446126D01*
X9962224Y47438922D01*
X9962191Y47438751D01*
X9960025Y47431903D01*
X9959500Y47425232D01*
X9959500Y47372062D01*
X9959403Y47367116D01*
X9957142Y47309563D01*
X9959039Y47302408D01*
X9959500Y47294033D01*
X9959500Y45262700D01*
X9957185Y45238657D01*
X9954553Y45225117D01*
X9954580Y45218928D01*
X9954765Y45176411D01*
X9954766Y45176282D01*
X9954774Y45175187D01*
X9955229Y45122147D01*
X9955233Y45121512D01*
X9955389Y45077439D01*
X9955378Y45075226D01*
X9954899Y45041074D01*
X9954771Y45036905D01*
X9953775Y45015775D01*
X9953640Y45012923D01*
X9953178Y45006560D01*
X9951737Y44991868D01*
X9950622Y44983439D01*
X9949378Y44975980D01*
X9947318Y44966090D01*
X9946397Y44962414D01*
X9946396Y44962410D01*
X9943340Y44952101D01*
X9941918Y44947961D01*
X9938147Y44938296D01*
X9931985Y44924242D01*
X9931029Y44921307D01*
X9931023Y44921291D01*
X9916309Y44876114D01*
X9912913Y44866918D01*
X9909334Y44858277D01*
X9898129Y44831227D01*
X9897052Y44823043D01*
X9897051Y44823041D01*
X9891312Y44779445D01*
X9879931Y44693000D01*
X5266564Y44693000D01*
X5292165Y44788546D01*
X5292165Y44788547D01*
X5293589Y44793861D01*
X5313483Y45021250D01*
X5293589Y45248639D01*
X5289844Y45262615D01*
X5235935Y45463810D01*
X5235934Y45463812D01*
X5234512Y45469120D01*
X5230152Y45478470D01*
X5140372Y45671004D01*
X5140369Y45671009D01*
X5138046Y45675991D01*
X5042969Y45811775D01*
X5010281Y45858458D01*
X5010279Y45858461D01*
X5007122Y45862969D01*
X4845719Y46024372D01*
X4658742Y46155296D01*
X4653760Y46157619D01*
X4653755Y46157622D01*
X4612080Y46177055D01*
X4558795Y46223973D01*
X4539334Y46292250D01*
X4559876Y46360210D01*
X4612080Y46405445D01*
X4653755Y46424878D01*
X4653760Y46424881D01*
X4658742Y46427204D01*
X4845719Y46558128D01*
X5007122Y46719531D01*
X5138046Y46906509D01*
X5140369Y46911491D01*
X5140372Y46911496D01*
X5232189Y47108398D01*
X5232190Y47108400D01*
X5234512Y47113380D01*
X5250150Y47171740D01*
X5292165Y47328546D01*
X5292165Y47328547D01*
X5293589Y47333861D01*
X5313483Y47561250D01*
X5293589Y47788639D01*
X5271425Y47871356D01*
X5235935Y48003810D01*
X5235934Y48003812D01*
X5234512Y48009120D01*
X5190668Y48103144D01*
X5140372Y48211004D01*
X5140369Y48211009D01*
X5138046Y48215991D01*
X5134890Y48220498D01*
X5134889Y48220500D01*
X5044756Y48349223D01*
X5022068Y48416497D01*
X5039353Y48485358D01*
X5091123Y48533942D01*
X5134365Y48546757D01*
X5156352Y48549145D01*
X5171604Y48552771D01*
X5292054Y48597926D01*
X5307649Y48606464D01*
X5409724Y48682965D01*
X5422285Y48695526D01*
X5498786Y48797601D01*
X5507324Y48813196D01*
X5552478Y48933644D01*
X5556105Y48948899D01*
X5561631Y48999764D01*
X5562000Y49006578D01*
X5562000Y49829135D01*
X5557525Y49844374D01*
X5556135Y49845579D01*
X5548452Y49847250D01*
X2464116Y49847250D01*
X2448877Y49842775D01*
X2447672Y49841385D01*
X2446001Y49833702D01*
X2446001Y49006581D01*
X254500Y49006581D01*
X254500Y50373365D01*
X2446000Y50373365D01*
X2450475Y50358126D01*
X2451865Y50356921D01*
X2459548Y50355250D01*
X3731885Y50355250D01*
X3747124Y50359725D01*
X3748329Y50361115D01*
X3750000Y50368798D01*
X3750000Y50373365D01*
X4258000Y50373365D01*
X4262475Y50358126D01*
X4263865Y50356921D01*
X4271548Y50355250D01*
X5543884Y50355250D01*
X5559123Y50359725D01*
X5560328Y50361115D01*
X5561999Y50368798D01*
X5561999Y51195919D01*
X5561629Y51202740D01*
X5556105Y51253602D01*
X5552479Y51268854D01*
X5507324Y51389304D01*
X5498786Y51404899D01*
X5422285Y51506974D01*
X5409724Y51519535D01*
X5307649Y51596036D01*
X5292054Y51604574D01*
X5171606Y51649728D01*
X5156351Y51653355D01*
X5105486Y51658881D01*
X5098672Y51659250D01*
X4276115Y51659250D01*
X4260876Y51654775D01*
X4259671Y51653385D01*
X4258000Y51645702D01*
X4258000Y50373365D01*
X3750000Y50373365D01*
X3750000Y51641134D01*
X3745525Y51656373D01*
X3744135Y51657578D01*
X3736452Y51659249D01*
X2909331Y51659249D01*
X2902510Y51658879D01*
X2851648Y51653355D01*
X2836396Y51649729D01*
X2715946Y51604574D01*
X2700351Y51596036D01*
X2598276Y51519535D01*
X2585715Y51506974D01*
X2509214Y51404899D01*
X2500676Y51389304D01*
X2455522Y51268856D01*
X2451895Y51253601D01*
X2446369Y51202736D01*
X2446000Y51195922D01*
X2446000Y50373365D01*
X254500Y50373365D01*
X254500Y57012000D01*
X25487517Y57012000D01*
X25507411Y56784611D01*
X25566488Y56564130D01*
X25568810Y56559150D01*
X25568811Y56559148D01*
X25660628Y56362246D01*
X25660631Y56362241D01*
X25662954Y56357259D01*
X25793878Y56170281D01*
X25955281Y56008878D01*
X26142258Y55877954D01*
X26147240Y55875631D01*
X26147245Y55875628D01*
X26269783Y55818488D01*
X26349130Y55781488D01*
X26354438Y55780066D01*
X26354440Y55780065D01*
X26533473Y55732094D01*
X26569611Y55722411D01*
X26797000Y55702517D01*
X27024389Y55722411D01*
X27060527Y55732094D01*
X27239560Y55780065D01*
X27239562Y55780066D01*
X27244870Y55781488D01*
X27324217Y55818488D01*
X27446755Y55875628D01*
X27446760Y55875631D01*
X27451742Y55877954D01*
X27584972Y55971244D01*
X27652247Y55993932D01*
X27721107Y55976647D01*
X27769692Y55924878D01*
X27782507Y55881635D01*
X27784895Y55859648D01*
X27788521Y55844396D01*
X27833676Y55723946D01*
X27842214Y55708351D01*
X27918715Y55606276D01*
X27931276Y55593715D01*
X28033351Y55517214D01*
X28048946Y55508676D01*
X28169394Y55463522D01*
X28184649Y55459895D01*
X28235514Y55454369D01*
X28242328Y55454000D01*
X29064885Y55454000D01*
X29080124Y55458475D01*
X29081329Y55459865D01*
X29083000Y55467548D01*
X29083000Y55472116D01*
X29591000Y55472116D01*
X29595475Y55456877D01*
X29596865Y55455672D01*
X29604548Y55454001D01*
X30431669Y55454001D01*
X30438490Y55454371D01*
X30489352Y55459895D01*
X30504604Y55463521D01*
X30625054Y55508676D01*
X30640649Y55517214D01*
X30742724Y55593715D01*
X30755285Y55606276D01*
X30831786Y55708351D01*
X30840324Y55723946D01*
X30885478Y55844394D01*
X30889105Y55859649D01*
X30894631Y55910514D01*
X30895000Y55917328D01*
X30895000Y56739885D01*
X30890525Y56755124D01*
X30889135Y56756329D01*
X30881452Y56758000D01*
X29609115Y56758000D01*
X29593876Y56753525D01*
X29592671Y56752135D01*
X29591000Y56744452D01*
X29591000Y55472116D01*
X29083000Y55472116D01*
X29083000Y57284115D01*
X29591000Y57284115D01*
X29595475Y57268876D01*
X29596865Y57267671D01*
X29604548Y57266000D01*
X30876884Y57266000D01*
X30892123Y57270475D01*
X30893328Y57271865D01*
X30894999Y57279548D01*
X30894999Y58106669D01*
X30894629Y58113490D01*
X30889105Y58164352D01*
X30885479Y58179604D01*
X30840324Y58300054D01*
X30831786Y58315649D01*
X30755285Y58417724D01*
X30742724Y58430285D01*
X30640649Y58506786D01*
X30625054Y58515324D01*
X30504606Y58560478D01*
X30489351Y58564105D01*
X30438486Y58569631D01*
X30431672Y58570000D01*
X29609115Y58570000D01*
X29593876Y58565525D01*
X29592671Y58564135D01*
X29591000Y58556452D01*
X29591000Y57284115D01*
X29083000Y57284115D01*
X29083000Y58551884D01*
X29078525Y58567123D01*
X29077135Y58568328D01*
X29069452Y58569999D01*
X28242331Y58569999D01*
X28235510Y58569629D01*
X28184648Y58564105D01*
X28169396Y58560479D01*
X28048946Y58515324D01*
X28033351Y58506786D01*
X27931276Y58430285D01*
X27918715Y58417724D01*
X27842214Y58315649D01*
X27833676Y58300054D01*
X27788522Y58179606D01*
X27784894Y58164351D01*
X27782506Y58142363D01*
X27755264Y58076801D01*
X27696902Y58036374D01*
X27625948Y58033918D01*
X27584972Y58052757D01*
X27498236Y58113490D01*
X27451742Y58146046D01*
X27446760Y58148369D01*
X27446755Y58148372D01*
X27249852Y58240189D01*
X27249851Y58240190D01*
X27244870Y58242512D01*
X27239562Y58243934D01*
X27239560Y58243935D01*
X27029704Y58300165D01*
X27029703Y58300165D01*
X27024389Y58301589D01*
X26797000Y58321483D01*
X26569611Y58301589D01*
X26564297Y58300165D01*
X26564296Y58300165D01*
X26354440Y58243935D01*
X26354438Y58243934D01*
X26349130Y58242512D01*
X26344150Y58240190D01*
X26344148Y58240189D01*
X26147246Y58148372D01*
X26147241Y58148369D01*
X26142259Y58146046D01*
X25955281Y58015122D01*
X25793878Y57853719D01*
X25662954Y57666741D01*
X25660631Y57661759D01*
X25660628Y57661754D01*
X25568811Y57464852D01*
X25566488Y57459870D01*
X25507411Y57239389D01*
X25487517Y57012000D01*
X254500Y57012000D01*
X254500Y58962524D01*
X256921Y58987106D01*
X257065Y58987830D01*
X259486Y59000000D01*
X257065Y59012172D01*
X257065Y59024579D01*
X257705Y59024579D01*
X257029Y59035361D01*
X271624Y59239420D01*
X274182Y59257214D01*
X323290Y59482960D01*
X328355Y59500209D01*
X348923Y59555356D01*
X409090Y59716670D01*
X416556Y59733017D01*
X527275Y59935782D01*
X536994Y59950905D01*
X675441Y60135848D01*
X687214Y60149434D01*
X850566Y60312786D01*
X864152Y60324559D01*
X1049095Y60463006D01*
X1064218Y60472725D01*
X1266983Y60583444D01*
X1283330Y60590910D01*
X1444644Y60651077D01*
X1499791Y60671645D01*
X1517040Y60676710D01*
X1742786Y60725818D01*
X1760580Y60728376D01*
X1780752Y60729819D01*
X1964642Y60742971D01*
X1975421Y60742295D01*
X1975421Y60742935D01*
X1987828Y60742935D01*
X2000000Y60740514D01*
X2012897Y60743079D01*
X2037476Y60745500D01*
X37962524Y60745500D01*
X37987103Y60743079D01*
G37*
%TD.AperFunction*%
%TD*%
M02*
