M48
; DRILL file {KiCad (6.0.7)} date Sat Mar 15 16:29:39 2025
; FORMAT={-:-/ absolute / inch / decimal}
; #@! TF.CreationDate,2025-03-15T16:29:39+08:00
; #@! TF.GenerationSoftware,Kicad,Pcbnew,(6.0.7)
; #@! TF.FileFunction,Plated,1,2,PTH
FMAT,2
INCH
; #@! TA.AperFunction,Plated,PTH,ViaDrill
T1C0.0138
; #@! TA.AperFunction,Plated,PTH,ComponentDrill
T2C0.0197
; #@! TA.AperFunction,Plated,PTH,ComponentDrill
T3C0.0394
; #@! TA.AperFunction,Plated,PTH,ComponentDrill
T4C0.0551
; #@! TA.AperFunction,Plated,PTH,ComponentDrill
T5C0.1260
%
G90
G05
T1
X0.05Y1.3046
X0.225Y1.3246
X0.32Y1.5996
X0.35Y2.2896
X0.35Y1.6746
X0.36Y1.3446
X0.37Y0.5346
X0.375Y1.0046
X0.375Y0.9546
X0.385Y2.2896
X0.41Y1.7596
X0.425Y0.2896
X0.43Y0.5346
X0.46Y1.5746
X0.46Y1.3246
X0.465Y1.5246
X0.465Y1.4696
X0.465Y1.1946
X0.465Y1.1396
X0.47Y1.6196
X0.505Y1.6446
X0.505Y1.5246
X0.505Y1.4696
X0.505Y1.1946
X0.505Y1.1396
X0.515Y1.0846
X0.53Y1.4196
X0.535Y2.3146
X0.54Y1.6446
X0.55Y2.2746
X0.555Y2.3646
X0.56Y1.3996
X0.56Y1.0696
X0.585Y2.2796
X0.605Y0.9296
X0.63Y1.2396
X0.645Y1.8596
X0.645Y1.7996
X0.655Y2.0196
X0.66Y0.3546
X0.675Y2.1446
X0.675Y2.0596
X0.675Y1.0096
X0.71Y2.0496
X0.72Y0.3646
X0.73Y1.7096
X0.735Y1.7396
X0.735Y1.6746
X0.735Y1.6346
X0.74Y1.7746
X0.74Y1.5996
X0.765Y1.8996
X0.775Y0.4746
X0.7755Y0.5819
X0.7775Y0.4221
X0.795Y0.7346
X0.8Y2.1096
X0.805Y0.5996
X0.815Y2.0646
X0.825Y2.1346
X0.83Y2.0946
X0.83Y0.4446
X0.845Y2.0646
X0.87Y1.8096
X0.87Y1.7519
X0.87Y0.8346
X0.875Y1.6346
X0.875Y0.7346
X0.8909Y1.7869
X0.9075Y1.6721
X0.9099Y1.742
X0.91Y1.7096
X0.93Y2.1796
X0.93Y2.1496
X0.935Y0.4896
X0.945Y0.6396
X0.965Y0.8346
X0.965Y0.7296
X1.01Y0.4446
X1.055Y0.7296
X1.065Y1.1246
X1.0931Y0.5226
X1.105Y1.6196
X1.105Y1.5446
X1.175Y2.0196
X1.175Y1.4946
X1.2Y1.2546
X1.23Y1.4946
X1.235Y1.9946
X1.2773Y0.5719
X1.345Y1.7696
X1.36Y2.0146
X1.475Y1.2746
X1.48Y1.7746
X1.48Y1.3796
X1.5Y1.1196
X1.515Y1.9296
X1.52Y1.3296
X1.525Y1.9896
X1.525Y1.7746
X1.54Y1.9646
X1.54Y0.7446
X1.54Y0.6596
X1.54Y0.5546
T2
X0.0612Y0.1575
X0.063Y2.2441
X0.0888Y0.2243
X0.0888Y0.0907
X0.0907Y2.3109
X0.0907Y2.1773
X0.1556Y0.252
X0.1556Y0.063
X0.1575Y2.3386
X0.1575Y2.1496
X0.2225Y0.2243
X0.2225Y0.0907
X0.2243Y2.3109
X0.2243Y2.1773
X0.2501Y0.1575
X0.252Y2.2441
X1.3228Y2.2441
X1.3228Y0.1575
X1.3505Y2.3109
X1.3505Y2.1773
X1.3505Y0.2243
X1.3505Y0.0907
X1.4173Y2.3386
X1.4173Y2.1496
X1.4173Y0.252
X1.4173Y0.063
X1.4841Y2.3109
X1.4841Y2.1773
X1.4841Y0.2243
X1.4841Y0.0907
X1.5118Y2.2441
X1.5118Y0.1575
T3
X1.005Y1.0096
X1.105Y1.0096
X1.205Y1.0096
X1.305Y1.0096
X1.405Y1.0096
X1.505Y1.0096
T4
X0.1575Y1.4808
X0.1575Y1.3808
X0.1575Y1.1891
X0.1575Y1.0891
X0.1576Y1.9725
X0.1576Y1.8725
X0.1576Y1.7725
X0.1576Y1.6725
X0.1576Y0.8974
X0.1576Y0.7974
X0.1576Y0.6974
X0.1576Y0.5974
X0.43Y0.1596
X0.53Y0.1596
X0.63Y0.1596
X0.73Y0.1596
X1.055Y2.2446
X1.155Y2.2446
T5
X0.1556Y0.1575
X0.1575Y2.2441
X1.4173Y2.2441
X1.4173Y0.1575
T0
M30
