%TF.GenerationSoftware,KiCad,Pcbnew,(6.0.7)*%
%TF.CreationDate,2025-03-15T16:29:39+08:00*%
%TF.ProjectId,solar_tracer,736f6c61-725f-4747-9261-6365722e6b69,1*%
%TF.SameCoordinates,PX6979f40PY7be1de0*%
%TF.FileFunction,Legend,Bot*%
%TF.FilePolarity,Positive*%
%FSLAX46Y46*%
G04 Gerber Fmt 4.6, Leading zero omitted, Abs format (unit mm)*
G04 Created by KiCad (PCBNEW (6.0.7)) date 2025-03-15 16:29:39*
%MOMM*%
%LPD*%
G01*
G04 APERTURE LIST*
%ADD10C,0.800000*%
%ADD11C,6.400000*%
%ADD12O,2.100000X2.100000*%
%ADD13R,2.100000X2.100000*%
%ADD14O,1.700000X1.700000*%
%ADD15R,1.700000X1.700000*%
G04 APERTURE END LIST*
%LPC*%
D10*
%TO.C,H4*%
X33600000Y57000000D03*
X34302944Y55302944D03*
X34302944Y58697056D03*
X36000000Y54600000D03*
D11*
X36000000Y57000000D03*
D10*
X38400000Y57000000D03*
X37697056Y58697056D03*
X37697056Y55302944D03*
X36000000Y59400000D03*
%TD*%
%TO.C,H1*%
X1600000Y57000000D03*
X2302944Y55302944D03*
X2302944Y58697056D03*
X4000000Y54600000D03*
D11*
X4000000Y57000000D03*
D10*
X6400000Y57000000D03*
X5697056Y58697056D03*
X5697056Y55302944D03*
X4000000Y59400000D03*
%TD*%
D12*
%TO.C,J7*%
X4000000Y27663750D03*
D13*
X4000000Y30203750D03*
%TD*%
D12*
%TO.C,J6*%
X4004000Y15175000D03*
X4004000Y17715000D03*
X4004000Y20255000D03*
D13*
X4004000Y22795000D03*
%TD*%
D12*
%TO.C,J5*%
X4000000Y35072500D03*
D13*
X4000000Y37612500D03*
%TD*%
D12*
%TO.C,J4*%
X4004000Y42481250D03*
X4004000Y45021250D03*
X4004000Y47561250D03*
D13*
X4004000Y50101250D03*
%TD*%
D12*
%TO.C,J3*%
X26797000Y57012000D03*
D13*
X29337000Y57012000D03*
%TD*%
D12*
%TO.C,J2*%
X18542000Y4053000D03*
X16002000Y4053000D03*
X13462000Y4053000D03*
D13*
X10922000Y4053000D03*
%TD*%
D14*
%TO.C,J1*%
X38227000Y25643000D03*
X35687000Y25643000D03*
X33147000Y25643000D03*
X30607000Y25643000D03*
X28067000Y25643000D03*
D15*
X25527000Y25643000D03*
%TD*%
D10*
%TO.C,H3*%
X33600000Y4000000D03*
X34302944Y2302944D03*
X34302944Y5697056D03*
X36000000Y1600000D03*
D11*
X36000000Y4000000D03*
D10*
X38400000Y4000000D03*
X37697056Y5697056D03*
X37697056Y2302944D03*
X36000000Y6400000D03*
%TD*%
%TO.C,H2*%
X1553500Y4000000D03*
X2256444Y2302944D03*
X2256444Y5697056D03*
X3953500Y1600000D03*
D11*
X3953500Y4000000D03*
D10*
X6353500Y4000000D03*
X5650556Y5697056D03*
X5650556Y2302944D03*
X3953500Y6400000D03*
%TD*%
M02*
